<svg width="411" height="384" viewBox="0 0 411 384" fill="none" xmlns="http://www.w3.org/2000/svg">
<path d="M278.28 367.806H381.082" stroke="#263238" stroke-linecap="round" stroke-linejoin="round"/>
<path d="M28.0596 367.806H271.133" stroke="#263238" stroke-linecap="round" stroke-linejoin="round"/>
<g opacity="0.3">
<path opacity="0.3" d="M378.943 106.176L390.956 118.174" stroke="black" stroke-width="3" stroke-linecap="round" stroke-linejoin="round"/>
<path opacity="0.3" d="M390.956 106.176L378.943 118.174" stroke="black" stroke-width="3" stroke-linecap="round" stroke-linejoin="round"/>
</g>
<g opacity="0.3">
<path opacity="0.3" d="M49.6855 325.405L61.6982 337.403" stroke="black" stroke-width="3" stroke-linecap="round" stroke-linejoin="round"/>
<path opacity="0.3" d="M61.6982 325.405L49.6855 337.403" stroke="black" stroke-width="3" stroke-linecap="round" stroke-linejoin="round"/>
</g>
<g opacity="0.3">
<path opacity="0.3" d="M17.8652 190.496L29.8779 202.494" stroke="black" stroke-width="3" stroke-linecap="round" stroke-linejoin="round"/>
<path opacity="0.3" d="M29.8779 190.496L17.8652 202.494" stroke="black" stroke-width="3" stroke-linecap="round" stroke-linejoin="round"/>
</g>
<g opacity="0.3">
<path opacity="0.3" d="M245.163 207.362L257.176 219.36" stroke="black" stroke-width="3" stroke-linecap="round" stroke-linejoin="round"/>
<path opacity="0.3" d="M257.176 207.362L245.163 219.36" stroke="black" stroke-width="3" stroke-linecap="round" stroke-linejoin="round"/>
</g>
<path opacity="0.3" d="M383.49 161.952C383.49 161.182 383.261 160.43 382.833 159.79C382.404 159.149 381.796 158.651 381.083 158.356C380.371 158.061 379.588 157.984 378.832 158.134C378.076 158.285 377.381 158.655 376.836 159.2C376.291 159.744 375.92 160.438 375.769 161.193C375.619 161.948 375.696 162.731 375.991 163.442C376.286 164.153 376.786 164.761 377.427 165.189C378.068 165.617 378.821 165.845 379.592 165.845C380.625 165.843 381.615 165.432 382.346 164.702C383.076 163.973 383.487 162.984 383.49 161.952Z" stroke="black" stroke-width="3" stroke-linecap="round" stroke-linejoin="round"/>
<path opacity="0.3" d="M63.3235 233.947C63.3235 233.177 63.0949 232.424 62.6666 231.784C62.2384 231.144 61.6297 230.645 60.9175 230.351C60.2053 230.056 59.4216 229.979 58.6655 230.129C57.9095 230.279 57.215 230.65 56.6699 231.194C56.1248 231.739 55.7536 232.432 55.6032 233.188C55.4528 233.943 55.53 234.725 55.825 235.437C56.12 236.148 56.6196 236.756 57.2605 237.184C57.9015 237.611 58.655 237.84 59.4259 237.84C59.9381 237.841 60.4454 237.741 60.9188 237.546C61.3922 237.35 61.8223 237.064 62.1844 236.702C62.5465 236.34 62.8336 235.911 63.0291 235.438C63.2246 234.965 63.3246 234.458 63.3235 233.947V233.947Z" stroke="black" stroke-width="3" stroke-linecap="round" stroke-linejoin="round"/>
<path opacity="0.3" d="M214.58 337.975C214.58 337.205 214.352 336.452 213.923 335.812C213.495 335.172 212.886 334.673 212.174 334.378C211.462 334.084 210.678 334.007 209.922 334.157C209.166 334.307 208.472 334.678 207.927 335.222C207.382 335.767 207.01 336.46 206.86 337.215C206.71 337.97 206.787 338.753 207.082 339.464C207.377 340.176 207.876 340.784 208.517 341.211C209.158 341.639 209.912 341.868 210.683 341.868C211.716 341.868 212.708 341.457 213.439 340.727C214.17 339.997 214.58 339.007 214.58 337.975Z" stroke="black" stroke-width="3" stroke-linecap="round" stroke-linejoin="round"/>
<path opacity="0.3" d="M28.9016 118.501C28.9033 117.731 28.6761 116.978 28.2488 116.336C27.8216 115.695 27.2135 115.195 26.5014 114.899C25.7894 114.603 25.0054 114.525 24.2488 114.674C23.4922 114.823 22.7969 115.193 22.251 115.737C21.7051 116.281 21.333 116.975 21.182 117.73C21.0309 118.486 21.1076 119.269 21.4023 119.981C21.6971 120.692 22.1966 121.301 22.8378 121.729C23.4789 122.157 24.2328 122.386 25.004 122.386C26.0363 122.386 27.0264 121.977 27.7571 121.248C28.4878 120.52 28.8994 119.532 28.9016 118.501V118.501Z" stroke="black" stroke-width="3" stroke-linecap="round" stroke-linejoin="round"/>
<g opacity="0.3">
<path opacity="0.3" d="M179.477 225.447H147.749V304.151H179.477V225.447Z" stroke="black" stroke-linecap="round" stroke-linejoin="round"/>
<path opacity="0.3" d="M228.605 225.447H196.877V304.151H228.605V225.447Z" stroke="black" stroke-linecap="round" stroke-linejoin="round"/>
</g>
<g opacity="0.3">
<path opacity="0.3" d="M55.5791 279.677L82.4666 264.173V295.18L55.5791 279.677Z" stroke="black" stroke-linecap="round" stroke-linejoin="round"/>
<path opacity="0.3" d="M83.2998 279.677L110.187 264.173V295.18L83.2998 279.677Z" stroke="black" stroke-linecap="round" stroke-linejoin="round"/>
</g>
<g opacity="0.3">
<path opacity="0.3" d="M320.775 279.677L293.879 264.173V295.18L320.775 279.677Z" stroke="black" stroke-linecap="round" stroke-linejoin="round"/>
<path opacity="0.3" d="M293.046 279.677L266.158 264.173V295.18L293.046 279.677Z" stroke="black" stroke-linecap="round" stroke-linejoin="round"/>
</g>
<path opacity="0.3" d="M272.236 336.353C273.146 335.936 273.857 335.18 274.215 334.246C274.574 333.313 274.553 332.276 274.156 331.358L266.579 313.702C266.293 312.958 265.723 312.358 264.994 312.033C264.264 311.708 263.436 311.686 262.69 311.97C262.209 312.145 261.78 312.439 261.445 312.827C261.111 313.214 260.881 313.68 260.779 314.182V314.098C260.565 313.406 260.109 312.815 259.495 312.432C258.88 312.05 258.148 311.901 257.432 312.013C256.717 312.125 256.066 312.491 255.598 313.044C255.131 313.597 254.878 314.299 254.887 315.022C254.437 314.628 253.88 314.376 253.287 314.298C252.694 314.22 252.091 314.32 251.554 314.585C251.018 314.85 250.572 315.267 250.274 315.785C249.975 316.303 249.838 316.898 249.878 317.494L243.792 303.891C243.651 303.51 243.435 303.162 243.157 302.867C242.879 302.572 242.544 302.336 242.173 302.172C241.801 302.009 241.401 301.922 240.995 301.917C240.589 301.912 240.186 301.989 239.811 302.142C239.435 302.296 239.094 302.524 238.809 302.812C238.523 303.1 238.299 303.442 238.149 303.819C237.998 304.195 237.926 304.598 237.935 305.004C237.944 305.409 238.035 305.808 238.202 306.177L249.836 333.292L240.214 328.441C239.858 328.251 239.469 328.134 239.067 328.097C238.666 328.059 238.261 328.103 237.877 328.224C237.492 328.346 237.136 328.543 236.829 328.804C236.522 329.065 236.27 329.384 236.089 329.744C235.907 330.103 235.8 330.496 235.773 330.897C235.745 331.299 235.799 331.702 235.93 332.083C236.061 332.464 236.267 332.815 236.535 333.115C236.804 333.415 237.13 333.658 237.495 333.83L253.54 342.65C254.313 343.075 255.182 343.298 256.065 343.297C256.343 343.264 266.992 338.782 272.236 336.353Z" stroke="black" stroke-linecap="round" stroke-linejoin="round"/>
<path d="M137.377 10.0176H106.651V12.7921H67.3132C64.1261 12.7921 60.9704 13.4195 58.0263 14.6383C55.0822 15.8572 52.4074 17.6437 50.1551 19.8956C47.9027 22.1476 46.1167 24.8208 44.8994 27.7625C43.6821 30.7042 43.0572 33.8567 43.0606 37.0398V167.098C43.0606 173.522 45.6157 179.683 50.164 184.226C54.7122 188.768 60.881 191.32 67.3132 191.32H331.97C338.401 191.318 344.568 188.765 349.114 184.223C353.661 179.68 356.215 173.521 356.215 167.098V37.0398C356.215 30.6171 353.661 24.4573 349.114 19.9149C344.568 15.3725 338.401 12.8196 331.97 12.8173H163.608V10.0428H145.408V12.8173H137.377V10.0176Z" fill="#707070" stroke="#263238" stroke-linejoin="round"/>
<path d="M46.4023 41.252L46.4023 162.852C46.4023 177.024 57.9051 188.512 72.0945 188.512L327.18 188.512C341.37 188.512 352.872 177.024 352.872 162.852V41.252C352.872 27.0803 341.37 15.5919 327.18 15.5919L72.0945 15.5919C57.9051 15.5919 46.4023 27.0803 46.4023 41.252Z" fill="#263238" stroke="#263238" stroke-linejoin="round"/>
<path d="M48.6084 44.6068V92.6313L48.7852 92.6818C54.0886 94.1027 57.54 97.3733 57.54 100.997V103.082C57.54 106.706 54.0886 109.976 48.7852 111.397L48.6084 111.448V159.472C48.6084 172.849 59.8466 183.686 73.7196 183.686H324.142C338.015 183.686 349.253 172.849 349.253 159.472V44.6068C349.253 31.2302 338.015 20.3843 324.142 20.3843H73.7196C59.8129 20.4011 48.6084 31.247 48.6084 44.6068Z" fill="white" stroke="#263238" stroke-linecap="round" stroke-linejoin="round"/>
<path opacity="0.3" d="M304.839 131.239H339.926" stroke="black" stroke-linecap="round" stroke-linejoin="round"/>
<path opacity="0.3" d="M178.727 131.239H299.24" stroke="black" stroke-linecap="round" stroke-linejoin="round"/>
<path opacity="0.3" d="M55.1572 131.239H169.576" stroke="black" stroke-linecap="round" stroke-linejoin="round"/>
<g opacity="0.3">
<path opacity="0.3" d="M330.943 115.845L341.786 126.413" stroke="black" stroke-linecap="round" stroke-linejoin="round"/>
<path opacity="0.3" d="M164.837 75.5972L225.506 119.014L283.297 69.4092L326.296 111.321" stroke="black" stroke-linecap="round" stroke-linejoin="round"/>
<path opacity="0.3" d="M55.4014 120.124L143.261 60.1689L160.603 72.5786" stroke="black" stroke-linecap="round" stroke-linejoin="round"/>
<path opacity="0.3" d="M281.959 51.4251H304.418C304.418 51.4251 305.016 43.7153 297.288 41.9329C291.261 40.5456 283.777 45.5397 278.709 41.378L278.583 41.2687C276.352 39.3433 274.98 36.6444 273.187 34.3071C271.372 31.9203 269.063 29.9525 266.418 28.5378C263.772 27.1231 260.853 26.2949 257.858 26.1096C251.872 25.8742 245.744 28.8589 242.646 33.9792C241.804 35.3749 241.072 37.006 239.599 37.6954C236.812 39.007 234.009 36.1652 231.181 34.8956C222.257 30.86 221.239 40.2177 216.735 44.4299C212.231 48.6422 205.623 42.4457 200.985 45.5313C198.833 46.9822 197.174 49.0525 196.229 51.4671H275.317" stroke="black" stroke-linecap="round" stroke-linejoin="round"/>
<path opacity="0.3" d="M109.429 44.8588C107.989 44.0528 106.38 43.5923 104.731 43.5136C103.071 43.4367 101.419 43.7969 99.9414 44.5583C98.464 45.3198 97.2128 46.4556 96.3133 47.852C95.9605 48.6828 95.3761 49.3949 94.6297 49.9034C93.0891 50.6181 91.5486 49.0627 90.0081 48.3564C85.0919 46.1284 84.5279 51.2907 82.0446 53.6112C79.5612 55.9317 75.9246 52.5182 73.3739 54.2166C72.1899 55.017 71.277 56.1574 70.7559 57.4871H130.339C130.339 57.4871 130.668 53.2329 126.416 52.2576C123.091 51.4925 118.966 54.2418 116.18 51.9465C116.154 51.9315 116.131 51.9115 116.113 51.8876C114.884 50.8283 114.126 49.3653 113.133 48.0537" stroke="black" stroke-linecap="round" stroke-linejoin="round"/>
</g>
<path d="M320.176 163.255H77.6924V169.443H320.176V163.255Z" fill="white" stroke="#263238" stroke-linecap="round" stroke-linejoin="round"/>
<path d="M225.313 163.255H77.6924V169.443H225.313V163.255Z" fill="#407BFF" stroke="#263238" stroke-linecap="round" stroke-linejoin="round"/>
<path d="M231.39 166.35C231.39 165.548 231.152 164.764 230.706 164.098C230.26 163.431 229.626 162.912 228.884 162.605C228.142 162.299 227.326 162.219 226.538 162.376C225.751 162.533 225.028 162.92 224.461 163.487C223.894 164.055 223.508 164.778 223.352 165.564C223.197 166.351 223.278 167.166 223.587 167.907C223.895 168.647 224.416 169.279 225.085 169.723C225.753 170.168 226.539 170.404 227.341 170.402C227.874 170.402 228.401 170.297 228.893 170.094C229.385 169.89 229.831 169.591 230.208 169.215C230.584 168.838 230.882 168.392 231.085 167.9C231.288 167.408 231.392 166.882 231.39 166.35Z" fill="white" stroke="#263238" stroke-linecap="round" stroke-linejoin="round"/>
<path d="M49.77 104.822C51.0252 104.822 52.0428 103.806 52.0428 102.552C52.0428 101.299 51.0252 100.282 49.77 100.282C48.5147 100.282 47.4971 101.299 47.4971 102.552C47.4971 103.806 48.5147 104.822 49.77 104.822Z" fill="#707070"/>
<path d="M278.229 93.2031L257.444 81.2222V105.192L278.229 93.2031Z" fill="white" stroke="#263238" stroke-linecap="round" stroke-linejoin="round"/>
<path d="M287.894 80.1377H282.287V106.277H287.894V80.1377Z" fill="white" stroke="#263238" stroke-linecap="round" stroke-linejoin="round"/>
<path d="M119.632 93.2031L140.425 81.2222V105.192L119.632 93.2031Z" fill="white" stroke="#263238" stroke-linecap="round" stroke-linejoin="round"/>
<path d="M109.977 106.277H115.583V80.1374H109.977V106.277Z" fill="white" stroke="#263238" stroke-linecap="round" stroke-linejoin="round"/>
<path d="M198.931 113.112C209.838 113.112 218.679 104.281 218.679 93.3879C218.679 82.4945 209.838 73.6636 198.931 73.6636C188.024 73.6636 179.182 82.4945 179.182 93.3879C179.182 104.281 188.024 113.112 198.931 113.112Z" fill="#407BFF" stroke="#263238" stroke-linecap="round" stroke-linejoin="round"/>
<path d="M196.523 82.458H187.709V104.318H196.523V82.458Z" fill="white" stroke="#263238" stroke-linecap="round" stroke-linejoin="round"/>
<path d="M210.16 82.458H201.347V104.318H210.16V82.458Z" fill="white" stroke="#263238" stroke-linecap="round" stroke-linejoin="round"/>
<path d="M145.754 133.526C145.754 133.526 151.487 136.646 152.009 139.243C152.531 141.841 152.261 145.23 153.044 146.012C153.827 146.794 157.346 146.272 157.085 148.744C156.973 150.112 156.574 151.441 155.915 152.645C155.915 152.645 155.78 156.286 155.519 159.271C155.258 162.255 155.519 163.474 153.836 164.214C152.152 164.954 146.15 164.349 145.241 164.475C144.332 164.601 142.639 160.313 141.469 151.081C140.299 141.85 143.153 132.618 145.754 133.526Z" fill="white" stroke="#263238" stroke-linecap="round" stroke-linejoin="round"/>
<path d="M86.6757 247.4L81.4649 254.689C81.4649 254.689 74.4357 254.95 72.2049 255.337C69.9741 255.723 69.6037 256.64 69.6037 257.809C69.6037 258.977 69.3428 261.575 69.3428 262.752C69.4132 263.371 69.7002 263.944 70.153 264.372C70.6059 264.8 71.1955 265.054 71.8177 265.09C73.1141 265.216 74.2926 265.476 74.9408 264.963C75.5197 264.344 76.0022 263.641 76.3719 262.878C76.3719 262.878 78.7206 263.921 81.4228 261.71C83.2014 260.382 84.8707 258.915 86.4147 257.321C87.1976 256.413 92.9303 251.335 92.9303 251.335L86.6757 247.4Z" fill="white" stroke="#263238" stroke-linecap="round" stroke-linejoin="round"/>
<path d="M76.3884 262.878C76.3884 262.878 73.2653 263.525 72.4824 262.491" stroke="#263238" stroke-linecap="round" stroke-linejoin="round"/>
<path d="M119.06 243.692C119.06 243.692 113.353 259.128 113.908 265.375C114.464 271.622 115.011 280.45 115.196 288.168C115.382 295.887 115.558 310.953 115.558 310.953C115.558 310.953 113.168 319.041 112.62 323.27C112.073 327.499 112.25 361.609 112.25 361.609C112.25 361.609 109.674 368.226 108.041 370.614C106.408 373.002 103.992 374.818 102.148 376.499C100.305 378.181 101.037 380.543 104.354 381.09C107.671 381.636 111.526 381.275 113.185 380.358C114.843 379.442 118.336 378.677 119.624 375.759C120.912 372.842 120.365 362.896 120.365 362.896C120.365 362.896 127.941 334.108 129.196 325.843C130.45 317.578 132.319 304.891 132.504 303.42C132.689 301.949 140.08 269.604 140.08 269.604L143.759 269.234L147.067 284.309L151.277 312.424C151.277 312.424 150.174 323.817 151.462 331.72C152.75 339.623 153.667 370.244 153.667 370.244C153.667 370.244 152.194 379.988 152.75 381.46C153.305 382.931 155.873 383.141 159.737 382.931C162.988 382.662 166.135 381.655 168.938 379.988C169.644 379.621 170.175 378.989 170.417 378.232C170.658 377.474 170.589 376.652 170.226 375.944C169.493 374.263 167.65 372.817 166.547 370.984C165.444 369.151 164.341 368.226 163.971 366.57C163.601 364.913 167.103 333.78 166.547 327.129C165.991 320.479 165.815 311.693 165.815 311.693C165.815 311.693 170.024 296.618 170.226 280.997C170.428 265.375 172.254 263.172 168.391 253.066C164.527 242.96 162.313 239.278 162.313 239.278L119.995 240.379L119.06 243.692Z" fill="white" stroke="#263238" stroke-linecap="round" stroke-linejoin="round"/>
<path d="M166.53 327.104C165.982 320.487 165.797 311.668 165.797 311.668C165.797 311.668 170.006 296.593 170.208 280.971C170.41 265.35 172.237 263.147 168.373 253.041C164.509 242.935 162.295 239.252 162.295 239.252L119.977 240.354L119.06 243.666C119.06 243.666 113.352 259.103 113.908 265.35C114.463 271.597 115.011 280.425 115.196 288.143C115.381 295.861 115.558 310.928 115.558 310.928C115.558 310.928 113.167 319.016 112.62 323.245C112.275 325.868 112.216 344.592 112.216 352.764C113.891 351.925 115.766 351.565 117.634 351.723C119.501 351.882 121.288 352.554 122.797 353.664C125.02 346.896 128.463 330.425 129.178 325.818C130.466 317.545 132.301 304.866 132.487 303.394C132.672 301.923 140.063 269.579 140.063 269.579L143.742 269.209L147.05 284.284L151.259 312.399C151.259 312.399 150.156 323.791 151.444 331.695C152.236 336.537 152.884 354.572 153.271 362.03C155.089 362.731 157.049 362.983 158.985 362.765C160.921 362.547 162.776 361.865 164.391 360.777C165.233 352.916 166.925 331.88 166.53 327.104Z" fill="#263238" stroke="#263238" stroke-linecap="round" stroke-linejoin="round"/>
<path d="M166.529 370.984C165.974 370.051 165.41 369.353 164.947 368.672C164.745 369.16 164.484 369.798 164.105 370.614C163.936 371.197 163.566 371.701 163.061 372.038C162.556 372.375 161.948 372.523 161.344 372.455C161.344 372.455 158.221 369.698 156.007 369.513C153.793 369.328 153.616 370.244 153.616 370.244C153.616 370.244 152.143 379.989 152.698 381.46C153.254 382.931 155.822 383.141 159.686 382.931C162.937 382.662 166.084 381.656 168.887 379.989C169.593 379.621 170.124 378.99 170.366 378.232C170.607 377.474 170.538 376.652 170.175 375.944C169.476 374.288 167.632 372.817 166.529 370.984Z" fill="white" stroke="#263238" stroke-linecap="round" stroke-linejoin="round"/>
<path d="M115.743 365.284C114.089 366.41 112.661 367.836 111.534 369.488C111.387 368.17 111.064 366.878 110.574 365.645C109.868 367.359 109.024 369.012 108.049 370.589C106.365 372.977 104 374.793 102.156 376.474C100.313 378.156 101.045 380.518 104.362 381.065C107.678 381.611 111.534 381.25 113.192 380.333C114.851 379.417 118.344 378.652 119.632 375.734C120.567 373.607 120.533 367.806 120.474 364.804L120.028 364.931C120.028 364.931 118.319 363.627 115.743 365.284Z" fill="white" stroke="#263238" stroke-linecap="round" stroke-linejoin="round"/>
<path d="M115.743 374.103C111.534 374.843 109.118 377.416 105.81 378.702C104.362 379.265 103.082 379.795 102.114 380.207C102.775 380.664 103.538 380.953 104.337 381.048C107.645 381.603 111.509 381.233 113.167 380.316C114.826 379.4 118.319 378.635 119.607 375.717C119.582 375.759 119.978 373.346 115.743 374.103Z" fill="white" stroke="#263238" stroke-linecap="round" stroke-linejoin="round"/>
<path d="M118.539 241.985C118.539 241.985 117.368 244.457 118.539 245.886C119.709 247.315 131.04 251.864 144.711 249.392C158.382 246.92 160.074 246.273 162.389 242.758C164.704 239.244 163.693 237.041 163.037 235.351C162.38 233.661 170.462 240.556 147.935 242.372C125.408 244.188 119.582 239.252 119.582 239.252L118.539 241.985Z" fill="#407BFF" stroke="#263238" stroke-linecap="round" stroke-linejoin="round"/>
<path d="M190.925 137.991C190.925 137.991 191.919 128.742 191.919 128.297C191.298 126.621 190.534 125 189.638 123.454C188.796 121.882 188.493 120.461 187.642 118.611C186.792 116.761 183.501 117.039 185.117 115.618C186.733 114.197 187.642 114.332 188.821 115.046C189.999 115.761 190.824 116.728 191.961 116.181C193.097 115.635 195.101 106.639 195.387 105.495C195.673 104.352 197.668 104.074 197.955 105.495C198.241 106.916 197.247 113.903 197.247 113.903C197.247 113.903 199.386 112.768 200.244 113.331C200.78 113.722 201.178 114.273 201.381 114.903C201.381 114.903 203.064 115.744 203.233 116.753L203.376 117.754C203.376 117.754 204.521 119.435 204.378 120.604C203.97 122.768 203.3 124.874 202.383 126.876C201.238 129.44 199.386 133.005 198.956 134.14C198.502 136.162 198.168 138.208 197.955 140.269L190.925 137.991Z" fill="white" stroke="#263238" stroke-linecap="round" stroke-linejoin="round"/>
<path d="M147.185 168.771C147.185 168.771 153.962 173.059 154.871 172.538C155.78 172.017 160.856 168.511 164.762 167.493C168.668 166.476 169.712 166.064 170.655 165.148C171.598 164.231 183.551 154.487 184.2 153.579C184.848 152.671 191.363 134.855 191.363 134.855C191.363 134.855 194.613 134.72 196.052 135.368C197.009 135.838 197.886 136.453 198.654 137.192C198.654 137.192 196.44 158.649 196.052 159.952C195.665 161.255 190.707 166.451 187.979 169.57C185.252 172.689 165.057 187.226 164.148 188.95C163.238 190.673 158.676 206.505 157.901 211.188C157.127 215.871 163.365 230.307 163.499 232.779C163.634 235.251 164.409 238.496 162.456 240.707C160.503 242.918 155.721 245.651 137.454 246.694C119.186 247.736 117.797 242.397 117.797 240.447C117.797 238.496 119.229 230.172 118.707 224.321C118.428 221.002 117.95 217.703 117.276 214.442C117.276 214.442 112.848 225.372 111.677 227.314C110.507 229.256 105.785 238.883 102.822 242.271C99.8584 245.659 94.7823 253.798 91.5245 253.411C88.2667 253.025 86.4736 250.553 86.4736 248.863C86.5942 247.357 86.8996 245.872 87.3828 244.44C87.3828 244.44 99.1682 223.278 100.237 221.067C101.306 218.856 104.539 207.547 105.448 202.864C106.357 198.181 106.096 187.781 107.923 184.914C109.75 182.047 124.591 175.817 128.362 173.471C132.134 171.125 141.587 167.989 147.185 168.771Z" fill="#407BFF" stroke="#263238" stroke-linecap="round" stroke-linejoin="round"/>
<path d="M112.073 203.083L117.242 214.417L110.188 205.177" stroke="#263238" stroke-linecap="round" stroke-linejoin="round"/>
<path d="M157.792 195.121L164.114 188.924L156.327 201.83" stroke="#263238" stroke-linecap="round" stroke-linejoin="round"/>
<path d="M145.628 222.563C145.628 222.563 134.516 237.226 125.702 240.993" stroke="#263238" stroke-linecap="round" stroke-linejoin="round"/>
<path d="M138.102 226.75C138.102 226.75 128.842 236.596 126.99 238.067" stroke="#263238" stroke-linecap="round" stroke-linejoin="round"/>
<path d="M127.158 133.913C124.321 135.901 122.108 138.654 120.777 141.85C118.959 146.794 119.742 153.419 119.607 154.075C119.473 154.73 105.936 155.243 104.892 160.187C103.849 165.131 107.889 168.771 108.537 171.117C109.186 173.463 100.204 175.018 98.9071 181.13C97.6108 187.243 112.704 187.764 112.056 191.531C111.408 195.297 109.977 194.785 110.373 198.686C110.768 202.587 115.583 204.411 121.316 206.253C127.049 208.094 126.788 209.372 130.298 206.513C133.809 203.655 134.078 201.309 134.726 198.585C135.374 195.861 136.157 197.929 140.619 194.288C145.081 190.648 146.217 185.04 145.83 182.459C145.442 179.878 145.703 183.106 148.953 178.423C152.202 173.74 150.78 171.529 148.692 167.106C146.604 162.684 145.703 160.994 145.964 158.009C146.225 155.025 149.87 145.263 148.044 141.623C146.217 137.982 145.047 138.26 145.964 135.897C146.882 133.535 149.088 133.039 146.352 129.919C143.616 126.8 139.188 126.666 137.235 127.834C135.282 129.003 136.452 129.264 133.203 130.18C130.926 130.94 128.856 132.218 127.158 133.913Z" fill="#263238" stroke="#263238" stroke-linecap="round" stroke-linejoin="round"/>
<path d="M153.044 154.789C153.044 158.631 150.687 161.742 147.774 161.742C144.862 161.742 142.496 158.631 142.496 154.789C142.496 150.947 144.862 147.828 147.774 147.828C150.687 147.828 153.044 150.947 153.044 154.789Z" fill="#787878" stroke="#263238" stroke-linecap="round" stroke-linejoin="round"/>
<path d="M153.331 154.789C153.331 157.698 151.538 160.061 149.332 160.061C147.126 160.061 145.342 157.698 145.342 154.789C145.342 151.88 147.126 149.518 149.332 149.518C151.538 149.518 153.331 151.88 153.331 154.789Z" fill="white" stroke="#263238" stroke-linecap="round" stroke-linejoin="round"/>
<path d="M149.576 144.111C148.877 140.124 147.008 136.434 144.205 133.509C141.217 130.516 136.233 129.213 131.519 130.146C127.899 130.886 126.098 132.45 125.054 135.048C124.903 135.435 124.052 136.191 124.212 136.545C123.817 135.595 129.44 132.912 130.054 132.711C132.132 132.013 134.363 131.912 136.495 132.421C138.627 132.929 140.572 134.026 142.109 135.586C144.447 138.059 146.019 141.154 146.638 144.498C146.689 144.853 146.866 145.177 147.136 145.412C147.407 145.646 147.753 145.776 148.111 145.776H148.322C148.706 145.716 149.052 145.508 149.287 145.198C149.521 144.887 149.625 144.497 149.576 144.111Z" fill="#787878" stroke="#263238" stroke-linecap="round" stroke-linejoin="round"/>
<path d="M149.045 153.957C148.408 153.954 147.793 153.719 147.316 153.297C146.839 152.874 146.532 152.293 146.452 151.661C146.13 149.253 145.649 146.869 145.013 144.523C144.827 143.854 144.914 143.139 145.256 142.534C145.597 141.93 146.166 141.485 146.836 141.299C147.505 141.113 148.222 141.2 148.827 141.541C149.433 141.883 149.877 142.45 150.064 143.119C150.771 145.715 151.302 148.355 151.655 151.022C151.697 151.363 151.672 151.708 151.581 152.038C151.489 152.368 151.334 152.678 151.123 152.948C150.911 153.218 150.649 153.444 150.35 153.613C150.052 153.782 149.723 153.89 149.382 153.931C149.271 153.949 149.158 153.957 149.045 153.957Z" fill="white" stroke="#263238" stroke-linecap="round" stroke-linejoin="round"/>
</svg>
