<svg width="273" height="217" viewBox="0 0 273 217" fill="none" xmlns="http://www.w3.org/2000/svg">
<path d="M258.441 97.3515C254.071 94.9672 252.085 96.9527 250.463 94.9672C248.841 92.9816 254.833 87.814 242.911 82.6464C242.911 82.6464 242.122 71.5223 225.831 71.1234C209.539 70.7245 213.971 82.2564 209.539 85.0308C205.107 87.8052 203.972 83.4441 199.603 86.2274C195.233 89.0106 197.218 94.5683 193.646 95.366C190.074 96.1638 185.305 91.8205 180.935 94.5683C176.565 97.3161 176.565 99.7359 174.571 99.7359C172.577 99.7359 168.615 98.1493 166.23 99.7359C163.846 101.323 161.062 103.281 161.062 103.281H261.623C261.623 103.281 262.82 99.7359 258.441 97.3515Z" fill="#407BFF"/>
<path opacity="0.5" d="M258.441 97.3515C254.071 94.9672 252.085 96.9527 250.463 94.9672C248.841 92.9816 254.833 87.814 242.911 82.6464C242.911 82.6464 242.122 71.5223 225.831 71.1234C209.539 70.7245 213.971 82.2564 209.539 85.0308C205.107 87.8052 203.972 83.4441 199.603 86.2274C195.233 89.0106 197.218 94.5683 193.646 95.366C190.074 96.1638 185.305 91.8205 180.935 94.5683C176.565 97.3161 176.565 99.7359 174.571 99.7359C172.577 99.7359 168.615 98.1493 166.23 99.7359C163.846 101.323 161.062 103.281 161.062 103.281H261.623C261.623 103.281 262.82 99.7359 258.441 97.3515Z" fill="#407BFF"/>
<path d="M106.249 46.5265C103.661 45.1171 102.482 46.296 101.543 45.1171C100.603 43.9382 104.131 40.8802 97.1106 37.8133C97.1106 37.8133 96.6408 31.2186 86.9881 30.9881C77.3353 30.7577 79.897 37.5828 77.3353 39.2315C74.7737 40.8802 74.038 38.2919 71.4409 39.9318C68.8437 41.5716 70.0315 44.8778 67.8953 45.3564C65.7591 45.8351 62.9493 43.2291 60.361 44.8778C57.7728 46.5265 57.7728 47.9447 56.5939 47.9447C55.415 47.9447 53.0484 46.9962 51.6479 47.9447C50.2474 48.8931 48.5898 50.0631 48.5898 50.0631H108.137C108.137 50.0631 108.846 47.9713 106.249 46.5265Z" fill="#407BFF"/>
<path opacity="0.5" d="M106.249 46.5265C103.661 45.1171 102.482 46.296 101.543 45.1171C100.603 43.9382 104.131 40.8802 97.1106 37.8133C97.1106 37.8133 96.6408 31.2186 86.9881 30.9881C77.3353 30.7577 79.897 37.5828 77.3353 39.2315C74.7737 40.8802 74.038 38.2919 71.4409 39.9318C68.8437 41.5716 70.0315 44.8778 67.8953 45.3564C65.7591 45.8351 62.9493 43.2291 60.361 44.8778C57.7728 46.5265 57.7728 47.9447 56.5939 47.9447C55.415 47.9447 53.0484 46.9962 51.6479 47.9447C50.2474 48.8931 48.5898 50.0631 48.5898 50.0631H108.137C108.137 50.0631 108.846 47.9713 106.249 46.5265Z" fill="#407BFF"/>
<g opacity="0.5">
<path opacity="0.5" d="M258.441 97.3515C254.071 94.9672 252.085 96.9527 250.463 94.9672C248.841 92.9816 254.833 87.814 242.911 82.6464C242.911 82.6464 242.122 71.5223 225.831 71.1234C209.539 70.7245 213.971 82.2564 209.539 85.0308C205.107 87.8052 203.972 83.4441 199.603 86.2274C195.233 89.0106 197.218 94.5683 193.646 95.366C190.074 96.1638 185.305 91.8205 180.935 94.5683C176.565 97.3161 176.565 99.7359 174.571 99.7359C172.577 99.7359 168.615 98.1493 166.23 99.7359C163.846 101.323 161.062 103.281 161.062 103.281H261.623C261.623 103.281 262.82 99.7359 258.441 97.3515Z" fill="white"/>
<path opacity="0.5" d="M258.441 97.3515C254.071 94.9672 252.085 96.9527 250.463 94.9672C248.841 92.9816 254.833 87.814 242.911 82.6464C242.911 82.6464 242.122 71.5223 225.831 71.1234C209.539 70.7245 213.971 82.2564 209.539 85.0308C205.107 87.8052 203.972 83.4441 199.603 86.2274C195.233 89.0106 197.218 94.5683 193.646 95.366C190.074 96.1638 185.305 91.8205 180.935 94.5683C176.565 97.3161 176.565 99.7359 174.571 99.7359C172.577 99.7359 168.615 98.1493 166.23 99.7359C163.846 101.323 161.062 103.281 161.062 103.281H261.623C261.623 103.281 262.82 99.7359 258.441 97.3515Z" fill="white"/>
</g>
<g opacity="0.5">
<path opacity="0.5" d="M106.249 46.5265C103.661 45.1171 102.482 46.296 101.543 45.1171C100.603 43.9382 104.131 40.8802 97.1106 37.8133C97.1106 37.8133 96.6408 31.2186 86.9881 30.9881C77.3353 30.7577 79.897 37.5828 77.3353 39.2315C74.7737 40.8802 74.038 38.2919 71.4409 39.9318C68.8437 41.5716 70.0315 44.8778 67.8953 45.3564C65.7591 45.8351 62.9493 43.2291 60.361 44.8778C57.7728 46.5265 57.7728 47.9447 56.5939 47.9447C55.415 47.9447 53.0484 46.9962 51.6479 47.9447C50.2474 48.8931 48.5898 50.0631 48.5898 50.0631H108.137C108.137 50.0631 108.846 47.9713 106.249 46.5265Z" fill="white"/>
<path opacity="0.5" d="M106.249 46.5265C103.661 45.1171 102.482 46.296 101.543 45.1171C100.603 43.9382 104.131 40.8802 97.1106 37.8133C97.1106 37.8133 96.6408 31.2186 86.9881 30.9881C77.3353 30.7577 79.897 37.5828 77.3353 39.2315C74.7737 40.8802 74.038 38.2919 71.4409 39.9318C68.8437 41.5716 70.0315 44.8778 67.8953 45.3564C65.7591 45.8351 62.9493 43.2291 60.361 44.8778C57.7728 46.5265 57.7728 47.9447 56.5939 47.9447C55.415 47.9447 53.0484 46.9962 51.6479 47.9447C50.2474 48.8931 48.5898 50.0631 48.5898 50.0631H108.137C108.137 50.0631 108.846 47.9713 106.249 46.5265Z" fill="white"/>
</g>
<path d="M125.75 72.1067C125.75 72.1067 114.138 77.7175 109.493 84.5161C104.849 91.3147 106.205 103.866 113.358 107.926C120.511 111.985 145.481 126.894 163.093 124.767C180.706 122.64 177.993 104.637 169.094 97.4751C160.195 90.3131 148.193 83.9311 148.193 83.9311C148.193 83.9311 147.617 80.0665 146.837 78.7103C146.057 77.3541 137.166 68.6232 125.75 72.1067Z" fill="#263238" stroke="#263238" stroke-linecap="round" stroke-linejoin="round"/>
<path d="M172.887 101.712C146.525 93.6464 129.161 108.086 123.719 113.617C134.621 119.281 150.683 126.239 163.092 124.741C177.824 122.959 178.329 110.062 172.887 101.712Z" fill="white" stroke="#263238" stroke-linecap="round" stroke-linejoin="round"/>
<path d="M154.965 99.585C154.965 99.585 170.45 111.994 165.025 124.351" stroke="#263238" stroke-linecap="round" stroke-linejoin="round"/>
<path d="M104.138 66.6999L97.9336 95.6404H102.924L115.227 72.8337C115.227 72.8337 112.825 65.521 104.138 66.6999Z" fill="white" stroke="#263238" stroke-linecap="round" stroke-linejoin="round"/>
<path d="M182.121 52.6602C177.042 46.4555 170.332 40.7028 158.038 39.7189C158.038 39.7189 147.561 39.391 133.308 45.4539C122.166 50.1872 110.262 60.5224 104.137 66.7271C109.615 68.1187 112.876 70.3613 115.234 72.8609C117.663 70.5474 119.781 68.5353 121.341 67.2678C126.589 63.0043 134.292 59.4056 134.292 59.4056C134.292 59.4056 125.933 70.8665 124.293 73.8182C122.653 76.7698 123.806 81.5209 132.483 82.8327C141.161 84.1446 143.297 82.5048 146.736 80.537C150.176 78.5692 154.439 76.7699 156.079 76.7699C159.356 77.0021 162.608 76.0594 165.253 74.1107C169.508 71.159 171.316 62.8093 172.787 62.1534C173.798 61.7013 182.741 73.3661 189.708 82.1236L190.311 81.8134C193.343 80.2533 195.709 77.0712 197.331 74.2702C191.694 66.0357 185.409 56.6844 182.121 52.6602Z" fill="#407BFF" stroke="#263238" stroke-linecap="round" stroke-linejoin="round"/>
<path d="M152.754 45.2227C152.754 45.2227 149.28 53.5813 156.238 56.7457" stroke="#263238" stroke-linecap="round" stroke-linejoin="round"/>
<path d="M134.293 59.3782L141.845 57.1445" stroke="#263238" stroke-linecap="round" stroke-linejoin="round"/>
<path d="M134.195 73.9597C134.195 73.9597 138.955 78.1612 150.097 73.4102" stroke="#263238" stroke-linecap="round" stroke-linejoin="round"/>
<path d="M177.673 58.9707C174.925 59.3341 172.789 62.1617 172.789 62.1617C175.96 61.4862 179.184 61.0917 182.424 60.9828" stroke="#263238" stroke-linecap="round" stroke-linejoin="round"/>
<path d="M134.539 60.0699C134.539 60.0699 139.654 60.0699 144.591 59.8838" stroke="#263238" stroke-linecap="round" stroke-linejoin="round"/>
<path d="M137.281 71.7617C137.281 71.7617 137.831 75.0591 144.957 74.6868" stroke="#263238" stroke-linecap="round" stroke-linejoin="round"/>
<path d="M156.239 42.502C156.239 42.502 155.095 48.3964 155.911 51.5077C156.726 54.6189 159.678 58.2265 161.814 54.4593C163.95 50.6922 165.085 46.4819 165.085 44.4698C165.085 42.4577 157.71 38.7348 156.239 42.502Z" fill="white" stroke="#263238" stroke-linecap="round" stroke-linejoin="round"/>
<path d="M172.79 35.1272C172.79 35.1272 177.373 34.1433 181.308 29.0643C185.244 23.9853 180.165 23.3383 178.525 18.4277C176.885 13.5171 182.656 15.1481 174.306 6.62989C165.956 -1.88827 152.35 1.06339 145.942 3.84664C139.533 6.62989 139.737 15.9724 135.136 16.6283C130.536 17.2842 128.577 12.8612 123.011 12.8612C117.444 12.8612 111.541 18.7556 113.837 23.6662C116.132 28.5768 120.555 26.4583 120.883 25.634C121.211 24.8097 118.588 25.8024 118.419 23.3383C118.251 20.8741 124.314 22.1948 126.122 25.4744C127.584 28.1336 124.899 31.9096 124.987 34.7017C125.174 40.3037 132.034 43.8847 136.439 44.6558C142.387 45.6929 149.62 45.3295 155.009 42.3778C161.631 38.7436 158.555 31.2094 163.43 29.2416C168.305 27.2738 170.805 30.2255 170.805 30.2255L172.79 35.1272Z" fill="#263238" stroke="#263238" stroke-linecap="round" stroke-linejoin="round"/>
<path d="M122.715 15.9011C121.87 15.5343 120.941 15.4073 120.03 15.534C119.118 15.6606 118.259 16.0361 117.547 16.619" stroke="white" stroke-linecap="round" stroke-linejoin="round"/>
<path d="M166.433 20.4928C166.433 20.4928 166.433 10.7426 159.59 8.7571C152.747 6.77159 144.929 15.6 140.976 21.1665C137.023 26.733 131.226 25.4034 126.962 19.5355C126.561 18.9699 126.117 18.4364 125.633 17.94" stroke="white" stroke-linecap="round" stroke-linejoin="round"/>
<path d="M127.652 38.7791C131.198 41.0571 133.857 41.713 139.06 40.0821C144.263 38.4511 143.625 29.9773 148.181 25.4213C152.737 20.8653 160.892 22.4873 160.892 22.4873C160.892 22.4873 151.771 17.5945 144.6 22.8064C137.429 28.0184 138.076 36.8202 131.561 38.4511" stroke="white" stroke-linecap="round" stroke-linejoin="round"/>
<path d="M170.996 21.5039C170.996 21.5039 177.201 19.8729 176.864 14.333" stroke="white" stroke-linecap="round" stroke-linejoin="round"/>
<path d="M119.941 84.3125C119.941 84.3125 136.783 86.4398 145.292 92.29" stroke="white" stroke-linecap="round" stroke-linejoin="round"/>
<path d="M167.442 23.6128C166.393 23.312 165.28 23.3191 164.235 23.6335C163.19 23.9478 162.257 24.556 161.548 25.3856C158.764 28.3284 158.889 29.8175 156.566 31.6523C155.874 32.2579 155.001 32.6182 154.082 32.6775C153.164 32.7367 152.252 32.4917 151.487 31.9803C150.503 31.4928 149.36 31.8207 149.032 34.1076C148.704 36.3945 151.815 38.2027 152.312 38.2027C152.805 38.2295 153.296 38.2858 153.783 38.3711C153.783 38.3711 153.783 42.4662 156.566 44.9215C159.349 47.3768 164.925 51.3124 168.692 50.4969C172.459 49.6814 173.931 40.9948 173.931 36.5718C173.793 32.087 172.909 27.6565 171.316 23.4621C170.163 20.8739 167.442 23.6128 167.442 23.6128Z" fill="white" stroke="#263238" stroke-linecap="round" stroke-linejoin="round"/>
<path d="M164.334 33.5675C164.334 34.4539 164.015 35.2162 163.607 35.2162C163.199 35.2162 162.871 34.4805 162.871 33.5675C162.871 32.6546 163.199 31.9277 163.607 31.9277C164.015 31.9277 164.334 32.6634 164.334 33.5675Z" fill="#263238"/>
<path d="M170.173 33.0177C170.173 33.9041 169.845 34.6664 169.447 34.6664C169.048 34.6664 168.711 33.9307 168.711 33.0177C168.711 32.1048 169.039 31.3779 169.447 31.3779C169.854 31.3779 170.173 32.1136 170.173 33.0177Z" fill="#263238"/>
<path d="M160.859 30.2435C160.859 30.2435 161.95 28.6037 164.697 29.3572" stroke="#263238" stroke-linecap="round" stroke-linejoin="round"/>
<path d="M167.797 29.3572C167.797 29.3572 169.623 27.3451 171.271 29.3572" stroke="#263238" stroke-linecap="round" stroke-linejoin="round"/>
<path d="M167.621 33.0176C167.621 33.0176 167.798 36.6784 168.897 36.6784C169.997 36.6784 169.624 38.3182 168.162 38.8677" stroke="#263238" stroke-linecap="round" stroke-linejoin="round"/>
<path d="M166.698 42.5282C166.698 42.5282 163.409 43.9907 162.133 40.6934" stroke="#263238" stroke-linecap="round" stroke-linejoin="round"/>
<path d="M167.469 123.437C167.469 123.437 148.855 107.11 129.567 101.552C110.28 95.9949 88.0845 98.6097 68.8056 93.3889C49.5267 88.1681 38.4292 80.9795 38.4292 80.9795L37.4453 98.2906L166.858 133.25L255.39 108.75L264.209 90.7829C264.209 90.7829 253.431 96.3317 234.152 100.905C214.873 105.479 193.272 105.47 181.173 110.017C169.074 114.565 167.469 123.437 167.469 123.437Z" fill="white" stroke="#263238" stroke-linecap="round" stroke-linejoin="round"/>
<path d="M35.4863 84.8887C35.4863 84.8887 57.0786 97.9629 105.723 102.537C137.766 105.541 167.469 123.438 167.469 123.438C180.484 115.116 195.468 110.382 210.902 109.716C236.385 108.741 265.459 98.6099 265.459 98.6099L259.919 110.018L164.854 128.632L33.5273 94.3287L35.4863 84.8887Z" fill="white" stroke="#263238" stroke-linecap="round" stroke-linejoin="round"/>
<path d="M31.8981 88.8154C50.2756 97.1159 69.9454 102.189 90.045 103.813C124.995 106.428 166.487 123.411 166.487 123.411C166.487 123.411 188.372 111.658 212.579 111.658C230.559 111.504 248.447 109.089 265.824 104.469C265.284 106.275 265.15 108.177 265.432 110.041C265.714 111.904 266.405 113.682 267.455 115.247L166.159 136.831L31.2422 97.6084L31.8981 88.8154Z" fill="white" stroke="#263238" stroke-linecap="round" stroke-linejoin="round"/>
<path d="M32.5532 96.5717L161.912 128.996V133.569L173.019 133.897V128.632L270.37 113.28C270.37 113.28 274.616 112.296 271.026 117.198C267.436 122.1 204.707 176.657 204.707 176.657L135.126 183.845L29.6016 160.684L30.2309 98.3622C30.2329 98.0795 30.2991 97.8011 30.4247 97.5479C30.5503 97.2948 30.7319 97.0735 30.9557 96.9009C31.1795 96.7284 31.4397 96.6091 31.7165 96.552C31.9933 96.4949 32.2794 96.5017 32.5532 96.5717Z" fill="#407BFF"/>
<path opacity="0.3" d="M161.911 133.569V128.995L30.2564 96.0039L29.6094 160.683L135.125 183.88L137.013 183.685L164.863 133.658L161.911 133.569Z" fill="black"/>
<path d="M32.5532 96.5717L161.912 128.996V133.569L173.019 133.897V128.632L270.37 113.28C270.37 113.28 274.616 112.296 271.026 117.198C267.436 122.1 204.707 176.657 204.707 176.657L135.126 183.845L29.6016 160.684L30.2309 98.3622C30.2329 98.0795 30.2991 97.8011 30.4247 97.5479C30.5503 97.2948 30.7319 97.0735 30.9557 96.9009C31.1795 96.7284 31.4397 96.6091 31.7165 96.552C31.9933 96.4949 32.2794 96.5017 32.5532 96.5717Z" stroke="#263238" stroke-linecap="round" stroke-linejoin="round"/>
<path d="M161.913 133.569L132.84 183.881L138.397 184.2L173.02 133.897L161.913 133.569Z" fill="#407BFF" stroke="#263238" stroke-linecap="round" stroke-linejoin="round"/>
<path d="M258.945 115.336C258.945 115.336 267.623 116.958 265.815 122.746L271.027 117.215C271.027 117.215 273.411 114.246 272.321 113.67C271.231 113.094 258.945 115.336 258.945 115.336Z" fill="#263238"/>
<path d="M44.5463 99.8597C44.5463 99.8597 32.2699 103.255 30.3642 112.429L30.2578 98.3617C30.2578 98.3617 30.6301 96.2432 32.5713 96.5889C34.5125 96.9346 44.5463 99.8597 44.5463 99.8597Z" fill="#263238"/>
<path d="M29.7246 156.376L35.8939 162.253L29.6094 160.684L29.7246 156.376Z" fill="#263238"/>
<path d="M200.266 177.073L208.633 172.96L204.228 176.78L200.266 177.073Z" fill="#263238"/>
<path d="M197.334 74.2793L220.876 102.502L214.946 103.441L189.711 82.1681C189.711 82.1681 196.244 77.8869 197.334 74.2793Z" fill="white" stroke="#263238" stroke-linecap="round" stroke-linejoin="round"/>
<path d="M92.9326 93.0525C92.9326 93.0525 91.7537 91.6254 91.4524 92.9018C91.151 94.1782 88.483 98.6101 90.566 98.9203C92.649 99.2306 93.8279 94.1693 93.8279 94.1693L92.9326 93.0525Z" fill="white" stroke="#263238" stroke-linecap="round" stroke-linejoin="round"/>
<path d="M95.7515 92.8845C95.7515 92.8845 94.5637 91.4574 94.2712 92.725C93.9787 93.9925 91.3018 98.4333 93.3848 98.7524C95.4678 99.0715 96.6556 93.9925 96.6556 93.9925L95.7515 92.8845Z" fill="white" stroke="#263238" stroke-linecap="round" stroke-linejoin="round"/>
<path d="M98.5806 92.7774C98.5806 92.7774 97.1713 91.1908 96.8079 92.6001C96.4444 94.0095 93.2623 98.9378 95.7531 99.2923C98.2438 99.6469 99.6266 93.974 99.6266 93.974L98.5806 92.7774Z" fill="white" stroke="#263238" stroke-linecap="round" stroke-linejoin="round"/>
<path d="M101.045 93.3096L105.797 97.8833H100.168L101.045 93.3096Z" fill="white" stroke="#263238" stroke-linecap="round" stroke-linejoin="round"/>
<path d="M101.045 93.3096C101.045 93.3096 99.6361 91.723 99.2727 93.1323C98.9093 94.5417 95.7272 99.47 98.2179 99.8157C100.709 100.161 102.091 94.4974 102.091 94.4974L101.045 93.3096Z" fill="white" stroke="#263238" stroke-linecap="round" stroke-linejoin="round"/>
<path d="M227.267 97.4137C227.267 97.4137 228.215 95.8182 228.711 97.0237C229.208 98.2292 232.532 102.2 230.537 102.838C228.543 103.477 226.566 98.6547 226.566 98.6547L227.267 97.4137Z" fill="white" stroke="#263238" stroke-linecap="round" stroke-linejoin="round"/>
<path d="M224.481 97.6794C224.481 97.6794 225.43 96.0839 225.926 97.2894C226.423 98.4948 229.755 102.466 227.752 103.104C225.749 103.742 223.781 98.9203 223.781 98.9203L224.481 97.6794Z" fill="white" stroke="#263238" stroke-linecap="round" stroke-linejoin="round"/>
<path d="M221.683 98.0251C221.683 98.0251 222.826 96.2523 223.394 97.573C223.961 98.8937 227.826 103.281 225.486 104.017C223.145 104.753 220.832 99.4078 220.832 99.4078L221.683 98.0251Z" fill="white" stroke="#263238" stroke-linecap="round" stroke-linejoin="round"/>
<path d="M219.331 98.9385L215.352 104.204L220.918 103.317L219.331 98.9385Z" fill="white" stroke="#263238" stroke-linecap="round" stroke-linejoin="round"/>
<path d="M219.331 98.9381C219.331 98.9381 220.466 97.1654 221.042 98.4861C221.618 99.8068 225.474 104.186 223.134 104.921C220.794 105.657 218.48 100.321 218.48 100.321L219.331 98.9381Z" fill="white" stroke="#263238" stroke-linecap="round" stroke-linejoin="round"/>
<path d="M57.8502 146.28L63.5231 145.393L57.8502 144.507C57.3507 144.431 56.8885 144.198 56.5312 143.841C56.174 143.483 55.9404 143.021 55.8647 142.522L54.9783 136.84L54.092 142.522C54.0168 143.02 53.7845 143.481 53.429 143.838C53.0735 144.195 52.6132 144.43 52.1153 144.507L46.4336 145.393L52.1153 146.28C52.6116 146.361 53.0697 146.597 53.4245 146.953C53.7794 147.31 54.0129 147.769 54.092 148.265L54.9783 153.947L55.8647 148.265C55.9443 147.767 56.1791 147.307 56.5357 146.951C56.8922 146.594 57.3523 146.359 57.8502 146.28V146.28Z" fill="white"/>
<path d="M15.4724 184.767L21.1541 183.881L15.4724 182.994C14.975 182.914 14.5156 182.678 14.1593 182.322C13.803 181.966 13.5677 181.506 13.4869 181.009L12.6005 175.327L11.7141 181.009C11.6371 181.508 11.4031 181.969 11.0461 182.326C10.6891 182.683 10.2276 182.917 9.72861 182.994L4.04688 183.881L9.72861 184.767C10.2276 184.844 10.6891 185.078 11.0461 185.435C11.4031 185.792 11.6371 186.254 11.7141 186.753L12.6005 192.434L13.4869 186.753C13.5677 186.255 13.803 185.796 14.1593 185.44C14.5156 185.083 14.975 184.848 15.4724 184.767V184.767Z" fill="#407BFF"/>
<path opacity="0.5" d="M15.4724 184.767L21.1541 183.881L15.4724 182.994C14.975 182.914 14.5156 182.678 14.1593 182.322C13.803 181.966 13.5677 181.506 13.4869 181.009L12.6005 175.327L11.7141 181.009C11.6371 181.508 11.4031 181.969 11.0461 182.326C10.6891 182.683 10.2276 182.917 9.72861 182.994L4.04688 183.881L9.72861 184.767C10.2276 184.844 10.6891 185.078 11.0461 185.435C11.4031 185.792 11.6371 186.254 11.7141 186.753L12.6005 192.434L13.4869 186.753C13.5677 186.255 13.803 185.796 14.1593 185.44C14.5156 185.083 14.975 184.848 15.4724 184.767V184.767Z" fill="white"/>
<path d="M156.941 208.459L162.623 207.573L156.941 206.687C156.443 206.61 155.983 206.377 155.626 206.022C155.269 205.667 155.034 205.207 154.956 204.71L154.069 199.028L153.183 204.71C153.104 205.207 152.869 205.667 152.513 206.022C152.156 206.377 151.695 206.61 151.197 206.687L145.516 207.573L151.197 208.459C151.695 208.536 152.156 208.769 152.513 209.124C152.869 209.479 153.104 209.939 153.183 210.436L154.069 216.118L154.956 210.436C155.034 209.939 155.269 209.479 155.626 209.124C155.983 208.769 156.443 208.536 156.941 208.459Z" fill="#407BFF"/>
<path opacity="0.5" d="M156.941 208.459L162.623 207.573L156.941 206.687C156.443 206.61 155.983 206.377 155.626 206.022C155.269 205.667 155.034 205.207 154.956 204.71L154.069 199.028L153.183 204.71C153.104 205.207 152.869 205.667 152.513 206.022C152.156 206.377 151.695 206.61 151.197 206.687L145.516 207.573L151.197 208.459C151.695 208.536 152.156 208.769 152.513 209.124C152.869 209.479 153.104 209.939 153.183 210.436L154.069 216.118L154.956 210.436C155.034 209.939 155.269 209.479 155.626 209.124C155.983 208.769 156.443 208.536 156.941 208.459Z" fill="white"/>
<path d="M8.2054 154.541L11.9637 153.947L8.2054 153.353C7.87566 153.302 7.57069 153.148 7.33479 152.912C7.09888 152.676 6.94432 152.371 6.89354 152.041L6.30853 148.292L5.71466 152.041C5.66388 152.371 5.50932 152.676 5.27341 152.912C5.0375 153.148 4.73254 153.302 4.4028 153.353L0.644531 153.947L4.4028 154.541C4.73254 154.592 5.0375 154.746 5.27341 154.982C5.50932 155.218 5.66388 155.523 5.71466 155.853L6.30853 159.602L6.89354 155.853C6.94432 155.523 7.09888 155.218 7.33479 154.982C7.57069 154.746 7.87566 154.592 8.2054 154.541V154.541Z" fill="#407BFF"/>
<path opacity="0.5" d="M8.2054 154.541L11.9637 153.947L8.2054 153.353C7.87566 153.302 7.57069 153.148 7.33479 152.912C7.09888 152.676 6.94432 152.371 6.89354 152.041L6.30853 148.292L5.71466 152.041C5.66388 152.371 5.50932 152.676 5.27341 152.912C5.0375 153.148 4.73254 153.302 4.4028 153.353L0.644531 153.947L4.4028 154.541C4.73254 154.592 5.0375 154.746 5.27341 154.982C5.50932 155.218 5.66388 155.523 5.71466 155.853L6.30853 159.602L6.89354 155.853C6.94432 155.523 7.09888 155.218 7.33479 154.982C7.57069 154.746 7.87566 154.592 8.2054 154.541V154.541Z" fill="white"/>
<path d="M252.014 162.838L255.772 162.253L252.014 161.659C251.685 161.607 251.381 161.452 251.145 161.216C250.909 160.981 250.754 160.676 250.702 160.347L250.108 156.589L249.523 160.347C249.471 160.676 249.316 160.981 249.08 161.216C248.845 161.452 248.541 161.607 248.211 161.659L244.453 162.253L248.211 162.838C248.541 162.89 248.845 163.045 249.08 163.281C249.316 163.516 249.471 163.821 249.523 164.15L250.108 167.908L250.702 164.15C250.754 163.821 250.909 163.516 251.145 163.281C251.381 163.045 251.685 162.89 252.014 162.838Z" fill="#407BFF"/>
<path opacity="0.5" d="M252.014 162.838L255.772 162.253L252.014 161.659C251.685 161.607 251.381 161.452 251.145 161.216C250.909 160.981 250.754 160.676 250.702 160.347L250.108 156.589L249.523 160.347C249.471 160.676 249.316 160.981 249.08 161.216C248.845 161.452 248.541 161.607 248.211 161.659L244.453 162.253L248.211 162.838C248.541 162.89 248.845 163.045 249.08 163.281C249.316 163.516 249.471 163.821 249.523 164.15L250.108 167.908L250.702 164.15C250.754 163.821 250.909 163.516 251.145 163.281C251.381 163.045 251.685 162.89 252.014 162.838Z" fill="white"/>
<path d="M80.2589 131.601L83.9374 131.025L80.2589 130.449C79.9362 130.399 79.6378 130.247 79.4068 130.016C79.1758 129.785 79.0241 129.487 78.9736 129.164L78.3886 125.477L77.8125 129.164C77.7607 129.486 77.6086 129.784 77.3778 130.015C77.1471 130.245 76.8494 130.397 76.5272 130.449L72.8398 131.025L76.5272 131.601C76.8494 131.653 77.1471 131.805 77.3778 132.036C77.6086 132.267 77.7607 132.565 77.8125 132.887L78.3532 136.61L78.9382 132.922C78.9836 132.588 79.1373 132.278 79.3759 132.039C79.6144 131.801 79.9246 131.647 80.2589 131.601V131.601Z" fill="white"/>
<path d="M202.129 167.996L205.816 167.411L202.129 166.835C201.807 166.783 201.509 166.631 201.278 166.4C201.048 166.17 200.895 165.872 200.844 165.55L200.268 161.862L199.691 165.55C199.64 165.872 199.487 166.17 199.257 166.4C199.026 166.631 198.728 166.783 198.406 166.835L194.719 167.411L198.406 167.996C198.729 168.047 199.027 168.198 199.258 168.429C199.489 168.66 199.641 168.959 199.691 169.281L200.268 172.96L200.844 169.281C200.894 168.959 201.046 168.66 201.277 168.429C201.508 168.198 201.806 168.047 202.129 167.996Z" fill="white"/>
</svg>
