<svg width="590" height="474" viewBox="0 0 590 474" fill="none" xmlns="http://www.w3.org/2000/svg">
<path d="M589.866 416.544H0V416.862H589.866V416.544Z" fill="#EBEBEB"/>
<path d="M530.762 437.015H491.689V437.333H530.762V437.015Z" fill="#EBEBEB"/>
<path d="M390.751 440.475H380.499V440.793H390.751V440.475Z" fill="#EBEBEB"/>
<path d="M490.509 425.208H467.87V425.526H490.509V425.208Z" fill="#EBEBEB"/>
<path d="M112.841 427.346H61.8887V427.664H112.841V427.346Z" fill="#EBEBEB"/>
<path d="M130.821 427.346H123.353V427.664H130.821V427.346Z" fill="#EBEBEB"/>
<path d="M265.617 432.714H155.1V433.032H265.617V432.714Z" fill="#EBEBEB"/>
<path d="M279.597 359.8H51.8021C50.0176 359.797 48.3072 359.03 47.0465 357.668C45.7857 356.306 45.0776 354.46 45.0776 352.536V7.20109C45.0932 5.28762 45.8081 3.45802 47.0672 2.10971C48.3263 0.761405 50.0278 0.00327788 51.8021 0H279.597C281.383 0 283.097 0.765387 284.36 2.12778C285.623 3.49018 286.333 5.33799 286.333 7.26471V352.536C286.333 354.462 285.623 356.31 284.36 357.672C283.097 359.035 281.383 359.8 279.597 359.8ZM51.8021 0.254457C50.0958 0.257827 48.4605 0.991188 47.255 2.29357C46.0496 3.59595 45.3726 5.36093 45.3726 7.20109V352.536C45.3726 354.376 46.0496 356.141 47.255 357.443C48.4605 358.745 50.0958 359.479 51.8021 359.482H279.597C281.304 359.479 282.941 358.746 284.148 357.444C285.355 356.142 286.035 354.377 286.038 352.536V7.20109C286.035 5.35976 285.355 3.59481 284.148 2.29279C282.941 0.990774 281.304 0.25782 279.597 0.254457H51.8021Z" fill="#EBEBEB"/>
<path d="M534.785 359.8H306.978C305.193 359.797 303.481 359.03 302.219 357.669C300.956 356.307 300.245 354.461 300.242 352.536V7.20109C300.261 5.28646 300.978 3.45688 302.239 2.10892C303.5 0.760961 305.203 0.00324213 306.978 0H534.785C536.557 0.00662157 538.256 0.766228 539.512 2.11418C540.769 3.46213 541.482 5.28982 541.498 7.20109V352.536C541.498 354.458 540.791 356.302 539.533 357.663C538.275 359.025 536.567 359.793 534.785 359.8ZM306.978 0.254457C305.271 0.25782 303.634 0.990774 302.427 2.29279C301.22 3.59481 300.54 5.35976 300.537 7.20109V352.536C300.54 354.377 301.22 356.142 302.427 357.444C303.634 358.746 305.271 359.479 306.978 359.482H534.785C536.492 359.479 538.129 358.746 539.336 357.444C540.543 356.142 541.223 354.377 541.226 352.536V7.20109C541.223 5.35976 540.543 3.59481 539.336 2.29279C538.129 0.990774 536.492 0.25782 534.785 0.254457H306.978Z" fill="#EBEBEB"/>
<path d="M440.229 95.4336H423.512V151.554H440.229V95.4336Z" fill="#E6E6E6"/>
<path d="M485.542 151.553H430.071L421.695 85.8657H477.166L485.542 151.553Z" fill="#F0F0F0"/>
<path d="M491.547 151.553H434.259L425.883 85.8657H483.171L491.547 151.553Z" fill="#F5F5F5"/>
<path d="M438.4 146.375L431.346 91.0439H479.03L486.097 146.375H438.4Z" fill="white"/>
<path d="M447.826 129.62L445.172 108.856C445.093 108.308 445.126 107.748 445.268 107.215C445.41 106.682 445.658 106.189 445.995 105.77C446.332 105.351 446.75 105.016 447.219 104.789C447.688 104.562 448.197 104.447 448.711 104.454H466.041C466.909 104.447 467.749 104.784 468.402 105.4C469.054 106.017 469.474 106.871 469.581 107.8L472.223 128.576C472.3 129.123 472.266 129.682 472.123 130.213C471.98 130.745 471.732 131.236 471.395 131.654C471.058 132.071 470.641 132.405 470.173 132.631C469.705 132.858 469.197 132.972 468.684 132.966H451.377C450.508 132.976 449.665 132.64 449.01 132.023C448.355 131.406 447.934 130.55 447.826 129.62Z" fill="#F5F5F5"/>
<path d="M336.165 33.9443H86.3091V200.167H336.165V33.9443Z" fill="#E6E6E6"/>
<path d="M342.582 33.9443H89.3057V200.167H342.582V33.9443Z" fill="#F0F0F0"/>
<path d="M336.165 200.18H86.3091V213.043H336.165V200.18Z" fill="#E6E6E6"/>
<path d="M353.271 200.18H99.9941V213.043H353.271V200.18Z" fill="#F0F0F0"/>
<path d="M333.593 190.486V43.6392L98.2953 43.6392V190.486L333.593 190.486Z" fill="#FAFAFA"/>
<path d="M115.566 190.486L168.312 43.6392H193.205L140.459 190.486H115.566Z" fill="white"/>
<path d="M145.815 190.486L198.561 43.6392H208.258L155.512 190.486H145.815Z" fill="white"/>
<path d="M238.094 190.486L290.84 43.6392H300.537L247.803 190.486H238.094Z" fill="white"/>
<path d="M333.581 190.485V43.6392H332.437V190.485H333.581Z" fill="#E6E6E6"/>
<path d="M525.571 151.554H472.672V416.544H525.571V151.554Z" fill="#E6E6E6"/>
<path d="M520.25 416.544H525.571V400.221H514.67L520.25 416.544Z" fill="#F0F0F0"/>
<path d="M432.879 151.554H379.98V416.544H432.879V151.554Z" fill="#E6E6E6"/>
<path d="M525.571 151.554H428.231V406.531H525.571V151.554Z" fill="#F0F0F0"/>
<path d="M433.552 416.544H428.231V400.221H439.132L433.552 416.544Z" fill="#F0F0F0"/>
<path d="M521.442 156.223H432.36V276.504H521.442V156.223Z" fill="#E6E6E6"/>
<path d="M486.546 165.587H467.257C463.11 165.587 459.007 164.675 455.198 162.908C451.388 161.14 447.953 158.554 445.102 155.307H508.701C505.851 158.556 502.416 161.143 498.606 162.911C494.797 164.678 490.693 165.589 486.546 165.587Z" fill="#F0F0F0"/>
<path d="M521.442 281.377H432.36V401.658H521.442V281.377Z" fill="#E6E6E6"/>
<path d="M486.546 290.741H467.257C463.11 290.741 459.007 289.829 455.198 288.061C451.388 286.294 447.953 283.708 445.102 280.461H508.701C505.851 283.71 502.416 286.297 498.606 288.064C494.797 289.832 490.693 290.743 486.546 290.741Z" fill="#F0F0F0"/>
<path d="M152.775 235.231H240.807L253.572 291.301H165.528L152.775 235.231Z" fill="#E6E6E6"/>
<path d="M165.528 291.301L165.894 294.392H253.926L253.572 291.301H165.528Z" fill="#E6E6E6"/>
<path d="M155.489 235.231H243.52L256.285 291.301H168.242L155.489 235.231Z" fill="#F0F0F0"/>
<path d="M170.106 288.731L158.509 237.789H241.656L253.253 288.731H170.106Z" fill="white"/>
<path d="M191.188 291.301L191.541 294.392H288.48L288.126 291.301H191.188Z" fill="#F0F0F0"/>
<path d="M310.6 294.393H300.053V416.531H310.6V294.393Z" fill="#E6E6E6"/>
<path d="M313.939 294.393H306.613V416.531H313.939V294.393Z" fill="#F0F0F0"/>
<path d="M180.299 308.375H316.216V294.392H180.299V308.375Z" fill="#F0F0F0"/>
<path d="M175.568 308.375H165.021V416.531H175.568V308.375Z" fill="#E6E6E6"/>
<path d="M178.895 308.375H171.568V416.531H178.895V308.375Z" fill="#F0F0F0"/>
<path d="M108.807 308.375H98.2598V416.531H108.807V308.375Z" fill="#E6E6E6"/>
<path d="M112.145 308.375H104.819V416.531H112.145V308.375Z" fill="#F0F0F0"/>
<path d="M243.851 308.375H233.304V416.531H243.851V308.375Z" fill="#E6E6E6"/>
<path d="M247.178 308.375H239.852V416.531H247.178V308.375Z" fill="#F0F0F0"/>
<path d="M180.287 294.393H98.2598V308.375H180.287V294.393Z" fill="#E6E6E6"/>
<path d="M344.883 416.544H342.323L335.044 377.561L333.758 370.729L325.689 328.248H295.016L278.417 416.544H275.822L292.763 326.619C292.816 326.321 292.962 326.052 293.177 325.855C293.391 325.659 293.661 325.547 293.942 325.538H326.786C327.071 325.534 327.347 325.642 327.564 325.84C327.78 326.039 327.923 326.316 327.966 326.619L335.044 363.922L336.224 370.742L344.883 416.544Z" fill="#F0F0F0"/>
<path d="M394.137 416.544H391.565L374.931 328.248H344.257L336.224 370.742L335.044 377.561L327.694 416.544H325.134L333.758 370.742L335.032 363.935L342.11 326.632C342.166 326.335 342.312 326.067 342.526 325.87C342.74 325.674 343.009 325.561 343.29 325.55H376.028C376.309 325.559 376.579 325.671 376.794 325.868C377.008 326.064 377.154 326.334 377.207 326.632L394.137 416.544Z" fill="#F0F0F0"/>
<path d="M318.528 326.887H374.895C385.655 326.887 391.624 318.998 394.668 305.996L396.154 298.566C396.656 296.318 396.678 293.977 396.219 291.72C395.76 289.462 394.831 287.346 393.503 285.531C392.175 283.717 390.482 282.251 388.553 281.245C386.623 280.239 384.507 279.719 382.363 279.723H346.971C339.657 279.723 337.722 281.606 332.661 293.489C327.6 305.372 318.528 326.887 318.528 326.887Z" fill="#F0F0F0"/>
<path d="M349.26 326.886H289.188C288.44 326.886 287.723 326.566 287.194 325.996C286.665 325.425 286.368 324.652 286.368 323.845V323.566C286.368 322.473 286.568 321.391 286.956 320.381C287.343 319.372 287.912 318.455 288.628 317.682C289.344 316.909 290.195 316.296 291.131 315.878C292.067 315.46 293.07 315.245 294.084 315.245H349.26V326.899V326.886Z" fill="#F0F0F0"/>
<path d="M294.933 474C421.262 474 523.672 467.552 523.672 459.598C523.672 451.644 421.262 445.196 294.933 445.196C168.604 445.196 66.1948 451.644 66.1948 459.598C66.1948 467.552 168.604 474 294.933 474Z" fill="#F5F5F5"/>
<path d="M239.521 418.897L231.971 424.139L218.286 406.976L225.836 401.734L239.521 418.897Z" fill="#FF8B7B"/>
<path opacity="0.2" d="M225.848 401.734L218.286 406.976L225.352 415.831L232.903 410.577L225.848 401.734Z" fill="black"/>
<path d="M181.821 446.887L173.138 447.803L164.113 425.539L172.796 424.623L181.821 446.887Z" fill="#FF8B7B"/>
<path opacity="0.2" d="M164.125 425.551L168.773 437.027H177.821L172.796 424.635L164.125 425.551Z" fill="black"/>
<path d="M115.885 146.312C111.52 146.732 111.402 138.742 103.734 142.495C93.9892 147.279 97.2807 154.696 89.6714 154.391C82.0622 154.086 76.9657 160.485 78.6645 165.256C80.3633 170.027 82.9941 174.544 77.6146 176.465C72.235 178.386 68.5778 180.078 69.3564 184.887C70.1351 189.697 73.9456 191.63 67.5278 194.697C61.1101 197.763 61.759 211.02 68.0469 211.033C74.3349 211.045 68.3065 217.649 73.9456 224.366C79.5847 231.084 88.1614 232 91.736 228.692C95.3105 225.384 99.298 222.649 106.023 227.738C112.747 232.827 124.131 234.099 123.612 226.033C123.093 217.967 116.534 212.674 122.716 208.475C128.898 204.277 136.873 202.203 134.371 194.035C132.779 188.946 127.966 184.518 131.847 180.714C138.158 174.531 138.194 160.536 130.455 156.986C125.96 154.938 130.29 144.912 115.885 146.312Z" fill="#263238"/>
<path d="M107.485 209.188C107.273 213.005 106.825 216.402 106.306 219.977C105.787 223.552 105.032 227.038 104.17 230.537C103.331 234.074 102.262 237.543 100.973 240.919C100.336 242.623 99.6047 244.316 98.8261 246.008C98.4368 246.847 98.0121 247.674 97.5756 248.489C97.375 248.909 97.1273 249.316 96.9032 249.761L96.561 250.359C96.3287 250.757 96.0684 251.136 95.7824 251.491C95.128 252.288 94.3237 252.926 93.4229 253.361C92.6183 253.754 91.7557 253.991 90.8747 254.061C89.5791 254.142 88.2812 253.951 87.0524 253.501C85.2224 252.823 83.4785 251.9 81.8616 250.753C79.0141 248.744 76.3197 246.494 73.804 244.023C68.954 239.265 64.4315 234.133 60.2725 228.667L63.6229 225.193C65.9824 227.432 68.3418 229.71 70.8075 231.873C73.2731 234.036 75.6798 236.211 78.1926 238.234C80.585 240.219 83.1084 242.014 85.7429 243.603C86.8567 244.284 88.0459 244.81 89.2821 245.168C89.5795 245.267 89.8932 245.298 90.2023 245.257H89.9663C89.8104 245.339 89.6672 245.446 89.5416 245.575L89.4826 245.639C89.4826 245.639 89.4826 245.728 89.4826 245.639L89.7422 245.117C89.9073 244.774 90.0961 244.443 90.2495 244.087C90.5798 243.383 90.8983 242.67 91.205 241.949C91.7949 240.499 92.3848 239.023 92.8567 237.483C93.8476 234.43 94.6735 231.275 95.4049 228.069C96.1363 224.862 96.6908 221.593 97.1863 218.298C97.6818 215.002 98.0593 211.631 98.366 208.501L107.485 209.188Z" fill="#FF8B7B"/>
<path d="M114.34 210.384C113.868 213.463 111.497 219.29 109.621 223.615C108.229 226.745 107.096 229.099 107.096 229.099L105.445 228.31L91.7715 221.745C92.8096 213.793 94.4967 205.205 102.625 201.3C107.698 198.882 115.177 204.837 114.34 210.384Z" fill="#407BFF"/>
<path opacity="0.6" d="M114.34 210.384C113.868 213.463 111.497 219.29 109.621 223.615C108.229 226.745 107.096 229.099 107.096 229.099L105.445 228.31L91.7715 221.745C92.8096 213.793 94.4967 205.205 102.625 201.3C107.698 198.882 115.177 204.837 114.34 210.384Z" fill="black"/>
<path opacity="0.3" d="M109.585 223.616C108.193 226.745 107.061 229.099 107.061 229.099L105.409 228.31C105.633 225.168 106.211 220.219 107.769 217.992C108.741 219.704 109.361 221.622 109.585 223.616Z" fill="black"/>
<path d="M64.1424 228.107L65.2278 219.544L56.3208 222.649C56.3208 222.649 57.7365 227.827 60.91 229.952L64.1424 228.107Z" fill="#FF8B7B"/>
<path d="M61.1928 212.229L54.9756 215.905L56.3205 222.699L65.2275 219.544L61.1928 212.229Z" fill="#FF8B7B"/>
<path d="M229.187 421.569L237.386 415.208C237.526 415.097 237.699 415.045 237.873 415.061C238.047 415.077 238.209 415.161 238.329 415.297L243.91 421.569C244.045 421.732 244.147 421.923 244.21 422.132C244.272 422.34 244.292 422.56 244.27 422.777C244.248 422.995 244.183 423.205 244.08 423.393C243.978 423.582 243.839 423.745 243.674 423.872C240.783 426.035 239.285 426.913 235.675 429.699C233.457 431.416 228.785 435.564 225.718 437.931C222.651 440.297 220.327 437.167 221.4 435.882C226.237 430.131 227.523 426.213 228.29 422.981C228.429 422.413 228.745 421.914 229.187 421.569Z" fill="#263238"/>
<path d="M171.993 444.915H182.611C182.802 444.919 182.987 444.989 183.138 445.115C183.289 445.241 183.398 445.417 183.449 445.615L185.808 454.699C185.866 454.914 185.875 455.14 185.837 455.36C185.798 455.579 185.712 455.786 185.586 455.963C185.46 456.14 185.296 456.282 185.11 456.379C184.923 456.476 184.718 456.523 184.51 456.519C180.759 456.519 178.978 456.519 174.294 456.519H159.972C156.079 456.519 155.253 452.269 156.869 451.887C164.089 450.17 168.254 447.791 170.483 445.526C170.897 445.123 171.436 444.905 171.993 444.915Z" fill="#263238"/>
<path d="M155.784 244.862L121.017 256.72C96.9505 205.345 100.383 202.623 100.383 202.623C100.383 202.623 105.94 199.2 111.721 196.35C112.594 195.918 113.479 195.498 114.352 195.078C119.487 192.877 124.762 191.074 130.136 189.684C130.927 189.455 131.717 189.251 132.496 189.047C136.775 188.004 141.109 187.235 145.473 186.745C145.992 193.857 146.511 199.875 147.077 205.104C147.809 211.923 148.599 217.381 149.437 222.101C150.985 229.859 153.107 237.47 155.784 244.862Z" fill="#407BFF"/>
<path opacity="0.6" d="M155.784 244.862L121.017 256.72C96.9505 205.345 100.383 202.623 100.383 202.623C100.383 202.623 105.94 199.2 111.721 196.35C112.594 195.918 113.479 195.498 114.352 195.078C119.487 192.877 124.762 191.074 130.136 189.684C130.927 189.455 131.717 189.251 132.496 189.047C136.775 188.004 141.109 187.235 145.473 186.745C145.992 193.857 146.511 199.875 147.077 205.104C147.809 211.923 148.599 217.381 149.437 222.101C150.985 229.859 153.107 237.47 155.784 244.862Z" fill="black"/>
<path opacity="0.3" d="M149.532 222.127C146.193 217.038 142.996 205.193 143.822 200.752L147.125 205.129C147.856 211.948 148.647 217.407 149.532 222.127Z" fill="black"/>
<path d="M122.256 212.216C122.256 212.216 131.021 210.168 133.841 214.277C137.71 210.168 136.342 194.111 134.478 188.386C133 188.657 131.55 189.083 130.148 189.659L123.955 199.989L122.256 212.216Z" fill="white"/>
<path d="M122.256 212.216C122.256 212.216 116.357 213.641 115.732 218.844C107.474 212.216 108.052 202.508 109.916 196.783C111.331 196.044 112.819 195.481 114.352 195.104L120.545 202.457L122.256 212.216Z" fill="white"/>
<path d="M124.273 178.869C125.453 183.551 127.246 188.182 130.171 189.709C130.171 189.709 132.897 198.132 122.279 212.216C111.166 203.679 114.375 195.104 114.375 195.104C119.613 191.707 118.138 187.228 115.909 183.31L118.988 177.979C119.294 177.465 119.733 177.059 120.249 176.809C120.766 176.559 121.339 176.476 121.899 176.57C122.458 176.664 122.981 176.932 123.402 177.34C123.823 177.748 124.126 178.279 124.273 178.869Z" fill="#FF8B7B"/>
<path opacity="0.2" d="M124.273 178.87C124.132 178.27 123.83 177.728 123.406 177.311C122.981 176.895 122.453 176.622 121.886 176.527C121.319 176.432 120.738 176.519 120.217 176.777C119.695 177.035 119.255 177.453 118.952 177.979L117.961 179.684C118.044 180.816 118.091 181.745 118.079 182.228C117.985 185.536 122.291 185.384 125.795 183.793C125.17 182.197 124.661 180.551 124.273 178.87Z" fill="black"/>
<path d="M102.932 166.083C105.999 175.103 107.108 178.997 112.724 182.33C121.159 187.355 130.762 181.325 130.266 171.49C129.818 162.648 124.887 149.365 115.531 148.386C113.469 148.16 111.388 148.507 109.485 149.393C107.582 150.279 105.921 151.675 104.659 153.448C103.396 155.221 102.575 157.312 102.273 159.523C101.971 161.735 102.198 163.993 102.932 166.083Z" fill="#FF8B7B"/>
<path d="M124.627 152.521C121.748 149.531 118.728 146.058 112.948 146.732C106.553 147.483 104.029 151.656 104.029 151.656L98.5312 164.62C98.5312 164.62 101.941 181.312 107.568 173.526C110.812 169.022 110.895 162.215 109.715 157.126C111.926 156.79 114.105 156.245 116.227 155.498C118.823 156.541 121.737 156.541 123.896 154.404C124.367 153.933 124.71 153.564 124.957 153.271L125.158 153.03C125.795 152.152 125.264 152.241 124.627 152.521ZM117.195 155.218C119.21 154.515 121.258 153.925 123.329 153.449C122.559 154.328 121.577 154.959 120.494 155.271C119.411 155.583 118.269 155.565 117.195 155.218Z" fill="#263238"/>
<path d="M103.356 175.256C104.242 176.857 105.68 178.015 107.356 178.475C109.574 179.073 110.624 176.923 109.951 174.658C109.35 172.661 107.474 169.938 105.232 170.32C104.748 170.415 104.293 170.641 103.911 170.976C103.528 171.31 103.229 171.743 103.043 172.235C102.856 172.726 102.787 173.261 102.842 173.789C102.896 174.317 103.073 174.821 103.356 175.256Z" fill="#FF8B7B"/>
<path d="M121.017 256.733C121.017 256.733 119.837 333.566 129.145 361.327C138.111 387.943 164.856 433.694 164.856 433.694L180.358 433.274C180.358 433.274 155.725 375.322 151.702 352.421C145.001 314.418 146.476 248.094 146.476 248.094L121.017 256.733Z" fill="#407BFF"/>
<path opacity="0.3" d="M134.938 263.362L139.102 250.639L146.476 248.094C146.476 248.094 145.803 278.285 147.42 309.596C140.73 295.703 134.938 270.257 134.938 263.362Z" fill="black"/>
<path d="M162.673 434.559L181.82 434.038L180.711 427.689L159.807 428.758L162.673 434.559Z" fill="#263238"/>
<path d="M128.591 254.252C128.591 254.252 152.775 313.909 168.407 347.866C181.03 375.297 220.315 412.091 220.315 412.091L231.086 404.038C231.086 404.038 201.522 360.449 192.804 341.849C164.903 282.331 171.781 257.802 155.736 244.863L128.591 254.252Z" fill="#407BFF"/>
<path d="M220.952 415.933L233.599 406.226L230.732 400.271L216.835 411.607L220.952 415.933Z" fill="#263238"/>
<path d="M155.725 242.483L158.273 245.308C158.474 245.524 158.273 245.893 157.86 246.033L121.395 258.463C121.088 258.578 120.781 258.463 120.699 258.298L119.401 255.041C119.307 254.824 119.519 254.532 119.861 254.417L155.076 242.394C155.182 242.347 155.298 242.33 155.411 242.346C155.525 242.362 155.633 242.409 155.725 242.483Z" fill="#263238"/>
<path d="M152.185 248.349L153.129 248.031C153.318 248.031 153.436 247.802 153.377 247.687L151.666 243.476C151.616 243.407 151.545 243.359 151.466 243.338C151.387 243.317 151.304 243.325 151.23 243.361L150.286 243.692C150.097 243.756 149.979 243.908 150.038 244.036L151.761 248.234C151.796 248.361 151.985 248.412 152.185 248.349Z" fill="#407BFF"/>
<path d="M124.096 257.929L125.04 257.611C125.229 257.547 125.335 257.394 125.288 257.267L123.565 253.056C123.565 252.929 123.317 252.89 123.129 252.954L122.185 253.272C122.008 253.336 121.89 253.488 121.937 253.616L123.66 257.827C123.713 257.892 123.784 257.937 123.862 257.955C123.941 257.973 124.023 257.964 124.096 257.929Z" fill="#407BFF"/>
<path d="M138.135 253.183L139.079 252.865C139.268 252.801 139.386 252.649 139.327 252.521L137.604 248.31C137.604 248.196 137.368 248.145 137.179 248.208L136.236 248.526C136.047 248.526 135.929 248.743 135.988 248.87L137.699 253.081C137.758 253.183 137.946 253.183 138.135 253.183Z" fill="#407BFF"/>
<path d="M117.608 164.124C117.82 164.875 118.351 165.396 118.787 165.218C119.224 165.04 119.436 164.34 119.224 163.602C119.012 162.864 118.492 162.33 118.044 162.508C117.596 162.686 117.407 163.348 117.608 164.124Z" fill="#263238"/>
<path d="M125.452 161.579C125.665 162.33 126.196 162.851 126.632 162.673C127.069 162.495 127.281 161.808 127.081 161.057C126.88 160.307 126.337 159.785 125.901 159.963C125.464 160.141 125.252 160.828 125.452 161.579Z" fill="#263238"/>
<path d="M125.712 160.065L127.234 159.009C127.234 159.009 126.774 160.689 125.712 160.065Z" fill="#263238"/>
<path d="M123.495 163.526C124.589 165.031 125.867 166.371 127.293 167.508C127.009 167.892 126.65 168.204 126.243 168.423C125.836 168.643 125.389 168.765 124.934 168.78L123.495 163.526Z" fill="#FF5652"/>
<path d="M122.598 172.903C122.631 172.874 122.655 172.836 122.667 172.793C122.68 172.75 122.68 172.704 122.669 172.661C122.652 172.603 122.617 172.555 122.569 172.524C122.521 172.493 122.464 172.483 122.409 172.495C121.552 172.797 120.641 172.875 119.751 172.722C118.861 172.57 118.017 172.191 117.289 171.618C117.268 171.597 117.242 171.582 117.215 171.573C117.188 171.563 117.16 171.559 117.131 171.562C117.103 171.564 117.075 171.572 117.049 171.586C117.024 171.6 117.001 171.62 116.983 171.643C116.964 171.666 116.95 171.693 116.941 171.723C116.932 171.752 116.929 171.783 116.931 171.814C116.933 171.844 116.941 171.874 116.954 171.902C116.967 171.929 116.984 171.954 117.006 171.974C117.789 172.597 118.698 173.01 119.658 173.178C120.618 173.347 121.602 173.265 122.527 172.941L122.598 172.903Z" fill="#263238"/>
<path d="M114.647 162.05C114.701 161.995 114.742 161.924 114.764 161.847C114.94 161.304 115.23 160.812 115.614 160.412C115.997 160.012 116.462 159.715 116.971 159.544C117.03 159.537 117.087 159.517 117.139 159.485C117.19 159.453 117.235 159.409 117.27 159.357C117.305 159.305 117.33 159.246 117.342 159.183C117.354 159.12 117.354 159.055 117.342 158.992C117.329 158.93 117.305 158.87 117.269 158.818C117.234 158.766 117.189 158.723 117.138 158.691C117.086 158.659 117.029 158.639 116.969 158.633C116.91 158.626 116.85 158.633 116.794 158.653C116.138 158.856 115.538 159.228 115.046 159.738C114.555 160.248 114.187 160.881 113.974 161.58C113.953 161.636 113.943 161.697 113.944 161.758C113.946 161.819 113.958 161.879 113.981 161.935C114.004 161.99 114.038 162.041 114.079 162.082C114.12 162.124 114.169 162.156 114.222 162.178C114.297 162.194 114.375 162.191 114.448 162.169C114.522 162.147 114.59 162.106 114.647 162.05Z" fill="#263238"/>
<path d="M127.848 156.783C127.844 156.753 127.844 156.723 127.848 156.694C127.862 156.575 127.835 156.454 127.772 156.355C127.709 156.256 127.614 156.187 127.506 156.159C126.845 156.007 126.16 156.028 125.507 156.218C124.855 156.408 124.254 156.763 123.754 157.253C123.676 157.341 123.633 157.459 123.635 157.58C123.638 157.702 123.684 157.818 123.766 157.902C123.847 157.987 123.956 158.033 124.069 158.03C124.182 158.028 124.289 157.977 124.368 157.889C124.767 157.508 125.245 157.234 125.762 157.09C126.279 156.946 126.82 156.937 127.34 157.062C127.442 157.089 127.549 157.075 127.642 157.024C127.735 156.973 127.808 156.887 127.848 156.783Z" fill="#263238"/>
<path d="M150.805 195.752C152.209 196.885 153.389 197.941 154.616 199.086C155.843 200.231 156.975 201.376 158.155 202.572C160.455 204.964 162.673 207.457 164.773 210.078C166.896 212.714 168.866 215.488 170.672 218.386C171.144 219.099 171.557 219.875 171.993 220.613C172.43 221.351 172.866 222.101 173.256 222.89C173.645 223.679 174.058 224.379 174.435 225.257L175.061 226.669L175.568 228.094C176.655 231.707 177.166 235.493 177.078 239.29C177.006 242.819 176.655 246.334 176.028 249.799C175.414 253.196 174.612 256.516 173.668 259.773C172.717 263.036 171.606 266.243 170.342 269.379L166.071 267.674C166.802 264.621 167.498 261.415 168.018 258.247C168.594 255.109 169.015 251.941 169.28 248.756C169.563 245.67 169.63 242.565 169.48 239.468C169.396 238 169.23 236.538 168.985 235.091C168.726 233.756 168.367 232.445 167.911 231.173L167.546 230.295L167.145 229.493C166.826 228.908 166.389 228.221 165.965 227.572C165.54 226.923 165.186 226.3 164.785 225.651C164.384 225.002 163.971 224.379 163.523 223.768C161.8 221.223 159.854 218.908 157.919 216.554C155.984 214.2 153.861 211.987 151.702 209.824C150.64 208.73 149.543 207.661 148.446 206.618C147.349 205.574 146.169 204.531 145.154 203.641L150.805 195.752Z" fill="#FF8B7B"/>
<path d="M167.428 264.634L160.963 269.723L169.221 274.43C169.221 274.43 171.687 269.723 170.896 265.792L167.428 264.634Z" fill="#FF8B7B"/>
<path d="M158.922 277.98L165.682 280.232L169.28 274.456L160.963 269.749L158.922 277.98Z" fill="#FF8B7B"/>
<path d="M145.52 186.77C150.039 186.554 158.922 198.526 158.922 198.526L149.697 212.598C149.697 212.598 139.339 203.692 138.536 197.496C137.864 192.216 139.763 187.025 145.52 186.77Z" fill="#407BFF"/>
<path opacity="0.6" d="M145.52 186.77C150.039 186.554 158.922 198.526 158.922 198.526L149.697 212.598C149.697 212.598 139.339 203.692 138.536 197.496C137.864 192.216 139.763 187.025 145.52 186.77Z" fill="black"/>
<path d="M226.084 425.552H225.943C225.736 425.524 225.539 425.437 225.374 425.301C225.208 425.165 225.078 424.983 224.999 424.775C224.937 424.655 224.904 424.519 224.904 424.381C224.904 424.243 224.937 424.107 224.999 423.987C225.577 422.918 228.821 422.714 229.187 422.714C229.228 422.714 229.268 422.725 229.304 422.748C229.339 422.77 229.368 422.803 229.387 422.842C229.411 422.879 229.423 422.924 229.423 422.969C229.423 423.014 229.411 423.058 229.387 423.096C228.597 424.038 227.193 425.552 226.084 425.552ZM228.68 423.223C227.382 423.325 225.659 423.656 225.364 424.216C225.333 424.266 225.315 424.326 225.315 424.387C225.315 424.449 225.333 424.509 225.364 424.559C225.414 424.698 225.497 424.821 225.605 424.915C225.713 425.009 225.841 425.07 225.978 425.094C226.603 425.17 227.594 424.47 228.68 423.223Z" fill="#407BFF"/>
<path d="M228.963 423.198C227.877 423.198 225.742 422.549 225.341 421.607C225.277 421.44 225.265 421.255 225.308 421.081C225.351 420.906 225.445 420.752 225.577 420.64C225.699 420.522 225.843 420.432 226 420.378C226.156 420.323 226.322 420.304 226.485 420.322C227.771 420.475 229.293 422.727 229.352 422.867C229.372 422.901 229.382 422.941 229.382 422.981C229.382 423.022 229.372 423.061 229.352 423.096C229.336 423.129 229.312 423.159 229.283 423.181C229.255 423.203 229.222 423.217 229.187 423.223L228.963 423.198ZM226.344 420.78C226.168 420.779 225.998 420.852 225.872 420.984C225.671 421.175 225.695 421.327 225.73 421.429C225.99 422.04 227.665 422.701 228.762 422.701C228.219 421.976 227.205 420.831 226.403 420.742L226.344 420.78Z" fill="#407BFF"/>
<path d="M167.262 446.811C166.536 446.868 165.811 446.681 165.186 446.277C165.024 446.148 164.891 445.982 164.797 445.79C164.703 445.599 164.651 445.387 164.643 445.17C164.634 445.049 164.654 444.928 164.701 444.819C164.749 444.709 164.823 444.615 164.915 444.546C165.882 443.847 169.504 445.615 170.224 445.984C170.264 446.003 170.297 446.036 170.318 446.077C170.34 446.119 170.348 446.166 170.342 446.213C170.338 446.262 170.32 446.307 170.29 446.344C170.26 446.381 170.22 446.406 170.176 446.417C169.22 446.653 168.244 446.785 167.262 446.811ZM165.575 444.826C165.428 444.818 165.281 444.853 165.151 444.928C165.12 444.953 165.096 444.986 165.082 445.024C165.067 445.062 165.063 445.104 165.068 445.144C165.073 445.294 165.109 445.441 165.175 445.573C165.24 445.706 165.333 445.82 165.446 445.908C166.071 446.417 167.546 446.493 169.445 446.111C168.225 445.467 166.92 445.034 165.575 444.826Z" fill="#407BFF"/>
<path d="M170.129 446.417H170.058C168.879 445.883 166.425 443.783 166.519 442.702C166.519 442.473 166.696 442.168 167.239 442.104C169.362 441.824 170.259 445.921 170.294 446.15C170.302 446.191 170.3 446.234 170.287 446.275C170.275 446.315 170.253 446.351 170.224 446.379C170.196 446.401 170.163 446.414 170.129 446.417ZM167.522 442.537H167.38C167.156 442.537 167.038 442.638 167.015 442.753C166.944 443.376 168.619 445.043 169.846 445.768C169.528 444.763 168.761 442.537 167.522 442.537Z" fill="#407BFF"/>
<path d="M117.867 162.584L119.389 161.528C119.389 161.528 118.929 163.208 117.867 162.584Z" fill="#263238"/>
<path d="M340.506 69.5555H169.056C167.224 69.542 165.409 69.9333 163.723 70.7053C162.037 71.4772 160.515 72.6135 159.252 74.0439C157.988 75.4744 157.01 77.1687 156.377 79.0226C155.744 80.8764 155.47 82.8504 155.571 84.8228L171.651 444.33C171.88 448.426 173.538 452.276 176.291 455.108C179.043 457.94 182.688 459.544 186.492 459.598H357.943C359.774 459.611 361.588 459.22 363.274 458.448C364.96 457.676 366.481 456.539 367.743 455.109C369.005 453.678 369.983 451.984 370.614 450.13C371.246 448.276 371.518 446.302 371.415 444.33L355.347 84.8228C355.118 80.7273 353.461 76.8769 350.708 74.045C347.955 71.213 344.31 69.6091 340.506 69.5555Z" fill="black"/>
<path d="M346.841 69.5555H175.343C173.512 69.5419 171.698 69.9333 170.012 70.7054C168.327 71.4774 166.806 72.6139 165.543 74.0445C164.281 75.4752 163.304 77.1697 162.672 79.0235C162.04 80.8773 161.768 82.851 161.871 84.8229L177.939 444.33C178.168 448.426 179.825 452.276 182.578 455.108C185.331 457.94 188.976 459.544 192.78 459.598H364.23C366.062 459.611 367.876 459.22 369.562 458.448C371.247 457.676 372.768 456.539 374.031 455.109C375.293 453.678 376.27 451.984 376.902 450.13C377.534 448.276 377.806 446.302 377.703 444.33L361.635 84.8229C361.407 80.736 359.756 76.8928 357.013 74.0621C354.27 71.2313 350.637 69.6218 346.841 69.5555Z" fill="#263238"/>
<path d="M192.297 449.419C191.034 449.385 189.828 448.845 188.914 447.904C188 446.963 187.444 445.689 187.354 444.33L171.309 84.8225C171.281 84.1663 171.375 83.5107 171.588 82.8952C171.801 82.2797 172.127 81.7171 172.548 81.2415C172.968 80.7658 173.473 80.3869 174.033 80.1277C174.592 79.8685 175.195 79.7344 175.804 79.7334H347.255C348.519 79.7621 349.728 80.3004 350.643 81.2424C351.558 82.1843 352.112 83.4615 352.198 84.8225L368.266 444.33C368.294 444.985 368.2 445.64 367.988 446.254C367.775 446.869 367.45 447.431 367.031 447.907C366.612 448.382 366.109 448.761 365.55 449.021C364.992 449.281 364.391 449.417 363.783 449.419H192.297Z" fill="#407BFF"/>
<path opacity="0.1" d="M192.214 446.875C191.583 446.852 190.983 446.581 190.526 446.111C190.069 445.642 189.788 445.008 189.736 444.33L173.668 84.8229C173.657 84.4962 173.707 84.1704 173.814 83.8647C173.922 83.5589 174.084 83.2793 174.293 83.0423C174.502 82.8053 174.752 82.6157 175.03 82.4845C175.308 82.3533 175.607 82.2832 175.91 82.2783H347.361C347.992 82.2982 348.594 82.5691 349.051 83.0388C349.509 83.5085 349.789 84.1439 349.838 84.8229L365.906 444.33C365.917 444.657 365.867 444.983 365.76 445.289C365.653 445.594 365.49 445.874 365.281 446.111C365.072 446.348 364.822 446.538 364.544 446.669C364.267 446.8 363.968 446.87 363.664 446.875H192.214Z" fill="black"/>
<g opacity="0.3">
<path opacity="0.3" d="M243.957 426.213H209.993C209.06 426.202 208.167 425.81 207.492 425.115C206.818 424.421 206.413 423.477 206.359 422.473L203.882 366.861C203.851 366.37 203.914 365.877 204.069 365.413C204.223 364.949 204.464 364.525 204.778 364.166C205.091 363.808 205.47 363.523 205.89 363.33C206.311 363.137 206.763 363.04 207.22 363.045H241.244C242.174 363.053 243.066 363.443 243.739 364.135C244.412 364.828 244.815 365.771 244.866 366.772L247.308 422.396C247.337 422.889 247.272 423.382 247.116 423.846C246.96 424.31 246.718 424.734 246.403 425.092C246.089 425.45 245.71 425.735 245.289 425.928C244.868 426.12 244.414 426.218 243.957 426.213ZM207.173 364.342C206.879 364.341 206.587 364.403 206.316 364.525C206.044 364.648 205.798 364.828 205.592 365.055C205.392 365.289 205.236 365.563 205.135 365.862C205.034 366.162 204.989 366.48 205.002 366.798L207.492 422.396C207.525 423.077 207.796 423.719 208.252 424.192C208.708 424.664 209.313 424.932 209.945 424.941H243.957C244.253 424.943 244.546 424.88 244.818 424.755C245.09 424.63 245.336 424.446 245.539 424.215C245.743 423.983 245.9 423.709 246.001 423.41C246.103 423.11 246.146 422.791 246.128 422.473L243.639 366.861C243.609 366.182 243.339 365.54 242.885 365.067C242.432 364.594 241.828 364.326 241.197 364.317L207.173 364.342Z" fill="#FAFAFA"/>
<path opacity="0.3" d="M240.748 377.256H208.813C208.657 377.256 208.507 377.189 208.396 377.07C208.285 376.951 208.223 376.789 208.223 376.62C208.223 376.451 208.285 376.29 208.396 376.17C208.507 376.051 208.657 375.984 208.813 375.984H240.784C240.94 375.984 241.09 376.051 241.201 376.17C241.311 376.29 241.374 376.451 241.374 376.62C241.374 376.789 241.311 376.951 241.201 377.07C241.09 377.189 240.94 377.256 240.784 377.256H240.748Z" fill="#FAFAFA"/>
<path opacity="0.3" d="M241.078 384.444H209.096C208.94 384.441 208.792 384.373 208.682 384.254C208.572 384.136 208.509 383.976 208.506 383.808C208.506 383.639 208.568 383.477 208.679 383.358C208.789 383.239 208.939 383.172 209.096 383.172H241.078C241.235 383.172 241.385 383.239 241.495 383.358C241.606 383.477 241.668 383.639 241.668 383.808C241.665 383.976 241.602 384.136 241.492 384.254C241.382 384.373 241.234 384.441 241.078 384.444Z" fill="#FAFAFA"/>
<path opacity="0.3" d="M241.397 391.633H209.415C209.259 391.629 209.111 391.561 209.001 391.443C208.891 391.324 208.828 391.164 208.825 390.996C208.825 390.828 208.887 390.666 208.997 390.547C209.108 390.427 209.258 390.36 209.415 390.36H241.397C241.554 390.36 241.704 390.427 241.814 390.547C241.925 390.666 241.987 390.828 241.987 390.996C241.987 391.165 241.925 391.327 241.814 391.446C241.704 391.566 241.554 391.633 241.397 391.633Z" fill="#FAFAFA"/>
<path opacity="0.3" d="M241.715 398.821H209.745C209.588 398.821 209.438 398.754 209.328 398.635C209.217 398.515 209.155 398.354 209.155 398.185C209.155 398.016 209.217 397.854 209.328 397.735C209.438 397.616 209.588 397.549 209.745 397.549H241.715C241.872 397.549 242.022 397.616 242.133 397.735C242.243 397.854 242.305 398.016 242.305 398.185C242.305 398.354 242.243 398.515 242.133 398.635C242.022 398.754 241.872 398.821 241.715 398.821Z" fill="#FAFAFA"/>
<path opacity="0.3" d="M242.034 406.009H210.063C209.907 406.009 209.757 405.942 209.646 405.823C209.535 405.703 209.473 405.542 209.473 405.373C209.473 405.204 209.535 405.042 209.646 404.923C209.757 404.804 209.907 404.737 210.063 404.737H242.034C242.19 404.737 242.34 404.804 242.451 404.923C242.561 405.042 242.624 405.204 242.624 405.373C242.624 405.542 242.561 405.703 242.451 405.823C242.34 405.942 242.19 406.009 242.034 406.009Z" fill="#FAFAFA"/>
<path opacity="0.3" d="M235.805 413.198H210.382C210.225 413.198 210.075 413.131 209.965 413.011C209.854 412.892 209.792 412.73 209.792 412.561C209.792 412.393 209.854 412.231 209.965 412.112C210.075 411.992 210.225 411.925 210.382 411.925H235.805C235.962 411.925 236.112 411.992 236.222 412.112C236.333 412.231 236.395 412.393 236.395 412.561C236.392 412.729 236.329 412.889 236.219 413.008C236.109 413.126 235.961 413.194 235.805 413.198Z" fill="#FAFAFA"/>
</g>
<g opacity="0.3">
<path opacity="0.3" d="M265.369 222.178L242.046 226.198C241.146 223.805 239.956 221.55 238.507 219.493C237.111 217.913 235.46 216.62 233.634 215.676L234.507 235.397C247.477 239.078 256.203 242.963 260.686 247.051C263.544 249.619 265.863 252.813 267.49 256.422C269.117 260.03 270.015 263.969 270.124 267.98C270.436 272.673 269.636 277.376 267.799 281.644C266.053 285.626 263.539 289.161 260.426 292.013C257.526 294.692 254.173 296.74 250.552 298.044C246.301 299.422 241.895 300.167 237.457 300.257L237.61 303.731C237.646 304.374 237.558 305.018 237.353 305.623C237.148 306.227 236.83 306.78 236.418 307.247C236.007 307.714 235.511 308.084 234.961 308.335C234.411 308.586 233.819 308.712 233.221 308.705C231.981 308.692 230.791 308.17 229.893 307.247C228.996 306.323 228.456 305.067 228.385 303.731L228.231 300.257C223.053 299.899 217.941 298.812 213.024 297.026C209.258 295.558 205.775 293.354 202.749 290.525C199.987 287.982 197.649 284.948 195.836 281.555C194.017 277.906 192.694 273.994 191.907 269.939L217.283 266.746C218.243 271.233 219.423 274.477 220.822 276.479C222.581 278.804 224.841 280.63 227.405 281.797L226.332 257.725C220.047 256.038 213.894 253.826 207.928 251.109C204.068 249.034 200.751 245.95 198.278 242.14C195.387 237.735 193.788 232.497 193.689 227.102C193.414 223.379 193.895 219.637 195.097 216.134C196.299 212.632 198.194 209.454 200.649 206.821C205.651 201.385 213.319 198.373 223.654 197.788L223.571 196.02C223.536 195.377 223.623 194.733 223.828 194.128C224.033 193.523 224.351 192.97 224.763 192.504C225.174 192.037 225.671 191.667 226.221 191.416C226.771 191.165 227.363 191.039 227.96 191.045C229.201 191.059 230.39 191.58 231.288 192.504C232.186 193.427 232.725 194.684 232.797 196.02L232.879 197.788C242.317 198.424 249.635 200.833 254.834 205.015C260.063 209.267 263.782 215.325 265.369 222.178ZM224.432 215.371C222.329 215.953 220.43 217.187 218.97 218.921C217.977 220.358 217.496 222.133 217.614 223.921C217.676 225.839 218.323 227.681 219.454 229.163C221.029 230.945 223.023 232.233 225.223 232.89L224.432 215.371ZM236.666 282.446C240.205 281.597 242.762 280.172 244.335 278.171C245.09 277.27 245.672 276.218 246.049 275.074C246.425 273.93 246.589 272.716 246.529 271.504C246.409 269.295 245.574 267.201 244.169 265.588C242.683 263.794 239.852 262.115 235.699 260.575L236.666 282.446Z" fill="#FAFAFA"/>
</g>
<path opacity="0.2" d="M327.022 116.49H210.229L221.613 371.085C222.169 381.515 226.376 391.329 233.384 398.542C240.392 405.755 249.678 409.829 259.364 409.941H376.158L364.785 155.345C364.235 144.911 360.028 135.092 353.016 127.878C346.005 120.663 336.713 116.592 327.022 116.49Z" fill="black"/>
<path d="M355.63 116.49H210.264C219.951 116.599 229.239 120.672 236.248 127.885C243.256 135.099 247.462 144.914 248.015 155.345L257.3 362.599C257.855 373.029 262.062 382.843 269.07 390.056C276.078 397.269 285.364 401.343 295.051 401.455H368.348C373.015 401.507 377.641 400.523 381.94 398.565C386.24 396.607 390.119 393.716 393.338 390.071C396.557 386.427 399.046 382.107 400.651 377.381C402.256 372.655 402.942 367.624 402.666 362.599L393.394 155.345C392.843 144.911 388.636 135.092 381.625 127.878C374.613 120.663 365.321 116.592 355.63 116.49Z" fill="#FAFAFA"/>
<path d="M329.358 362.599C329.635 367.621 328.951 372.65 327.349 377.374C325.747 382.098 323.261 386.417 320.046 390.061C316.83 393.705 312.954 396.597 308.658 398.557C304.363 400.517 299.739 401.504 295.075 401.455H440.43C445.094 401.503 449.718 400.517 454.015 398.557C458.311 396.597 462.188 393.706 465.404 390.062C468.62 386.418 471.107 382.099 472.711 377.375C474.314 372.651 475 367.621 474.724 362.599H329.358Z" fill="#E6E6E6"/>
<path d="M376.099 245.13H273.368C272.648 245.121 271.957 244.819 271.436 244.282C270.915 243.746 270.602 243.017 270.56 242.242C270.541 241.869 270.592 241.495 270.712 241.145C270.832 240.794 271.016 240.474 271.255 240.203C271.494 239.933 271.781 239.718 272.1 239.572C272.419 239.425 272.762 239.351 273.108 239.354H375.839C376.568 239.349 377.27 239.646 377.801 240.183C378.332 240.721 378.652 241.457 378.694 242.242C378.714 242.619 378.661 242.996 378.539 243.351C378.416 243.705 378.227 244.028 377.983 244.299C377.74 244.57 377.446 244.784 377.122 244.927C376.798 245.07 376.449 245.139 376.099 245.13Z" fill="#407BFF"/>
<path d="M376.901 263.158H274.17C273.45 263.15 272.76 262.847 272.238 262.311C271.717 261.775 271.404 261.045 271.362 260.27C271.343 259.897 271.395 259.524 271.514 259.173C271.634 258.823 271.819 258.502 272.057 258.232C272.296 257.961 272.584 257.746 272.902 257.6C273.221 257.454 273.564 257.38 273.911 257.382H376.653C377.372 257.393 378.059 257.698 378.578 258.233C379.096 258.769 379.408 259.497 379.449 260.27C379.469 260.643 379.417 261.016 379.298 261.367C379.178 261.717 378.993 262.038 378.754 262.308C378.516 262.579 378.228 262.794 377.909 262.94C377.591 263.086 377.248 263.16 376.901 263.158Z" fill="#407BFF"/>
<path d="M377.715 281.174H274.972C274.252 281.165 273.562 280.863 273.041 280.326C272.52 279.79 272.206 279.061 272.165 278.286C272.145 277.913 272.197 277.539 272.316 277.189C272.436 276.838 272.621 276.518 272.86 276.247C273.098 275.977 273.386 275.762 273.705 275.616C274.023 275.469 274.366 275.395 274.713 275.398H377.515C378.235 275.406 378.925 275.709 379.446 276.245C379.968 276.781 380.281 277.51 380.323 278.286C380.342 278.664 380.289 279.043 380.166 279.398C380.043 279.753 379.853 280.076 379.607 280.348C379.362 280.619 379.068 280.833 378.742 280.975C378.416 281.117 378.067 281.185 377.715 281.174Z" fill="#407BFF"/>
<path d="M378.517 299.227H275.786C275.067 299.216 274.378 298.912 273.857 298.377C273.337 297.841 273.023 297.114 272.978 296.339C272.959 295.966 273.01 295.593 273.13 295.243C273.249 294.892 273.434 294.572 273.673 294.301C273.912 294.03 274.199 293.815 274.518 293.669C274.837 293.523 275.18 293.449 275.526 293.451H378.257C378.978 293.46 379.668 293.762 380.189 294.298C380.71 294.835 381.023 295.564 381.065 296.339C381.085 296.712 381.033 297.085 380.913 297.436C380.794 297.787 380.609 298.107 380.37 298.378C380.131 298.648 379.844 298.863 379.525 299.009C379.206 299.156 378.863 299.23 378.517 299.227Z" fill="#407BFF"/>
<path d="M338.477 317.255H276.589C275.868 317.247 275.178 316.944 274.657 316.408C274.136 315.872 273.823 315.143 273.781 314.367C273.761 313.994 273.813 313.621 273.933 313.27C274.052 312.92 274.237 312.599 274.476 312.329C274.715 312.058 275.002 311.843 275.321 311.697C275.64 311.551 275.983 311.477 276.329 311.479H338.218C338.938 311.487 339.628 311.79 340.15 312.326C340.671 312.862 340.984 313.592 341.026 314.367C341.045 314.74 340.993 315.113 340.874 315.464C340.754 315.814 340.569 316.135 340.331 316.405C340.092 316.676 339.804 316.891 339.486 317.037C339.167 317.183 338.824 317.257 338.477 317.255Z" fill="#407BFF"/>
<path d="M345.615 207.76C357.771 194.33 357.032 172.29 343.964 158.532C330.895 144.774 310.446 144.508 298.29 157.937C286.133 171.367 286.872 193.408 299.941 207.166C313.009 220.924 333.458 221.19 345.615 207.76Z" fill="#407BFF"/>
<path d="M348.587 182.826C348.81 187.554 347.913 192.266 345.98 196.516C343.885 201.074 340.64 204.902 336.619 207.562C332.598 210.222 327.964 211.606 323.247 211.555C318.367 211.515 313.581 210.108 309.357 207.471C305.134 204.835 301.619 201.06 299.156 196.516C296.859 192.36 295.542 187.659 295.322 182.826C295.118 179.114 295.625 175.395 296.81 171.902C297.995 168.409 299.833 165.216 302.211 162.522C304.589 159.828 307.455 157.69 310.631 156.241C313.807 154.791 317.226 154.062 320.675 154.098C327.833 154.194 334.692 157.211 339.871 162.541C345.05 167.871 348.164 175.12 348.587 182.826Z" fill="white"/>
<path opacity="0.4" d="M345.98 196.516C343.885 201.073 340.64 204.902 336.619 207.562C332.599 210.222 327.964 211.605 323.247 211.554C318.367 211.514 313.581 210.107 309.358 207.471C305.134 204.835 301.619 201.059 299.157 196.516C305.946 191.492 313.998 188.828 322.232 188.882C330.666 188.899 338.914 191.551 345.98 196.516Z" fill="#407BFF"/>
<path opacity="0.4" d="M330.199 182.136C334.668 177.199 334.399 169.098 329.597 164.042C324.794 158.987 317.278 158.891 312.809 163.828C308.339 168.766 308.609 176.867 313.411 181.923C318.214 186.978 325.73 187.074 330.199 182.136Z" fill="#407BFF"/>
<path d="M420.881 450.056H412.222L411.349 428.401H420.02L420.881 450.056Z" fill="#B55B52"/>
<path opacity="0.2" d="M411.361 428.414L411.798 439.572H420.469L420.02 428.414H411.361Z" fill="black"/>
<path d="M494.65 424.686L486.416 427.587L476.046 408.465L484.292 405.564L494.65 424.686Z" fill="#B55B52"/>
<path opacity="0.2" d="M484.292 405.564L476.046 408.465L481.402 418.325L489.636 415.424L484.292 405.564Z" fill="black"/>
<path d="M450.186 137.304C451.259 138.716 452.168 139.976 453.1 141.363C454.032 142.75 454.917 144.073 455.801 145.447C457.547 148.208 459.223 151.032 460.792 153.946C464.057 159.857 466.719 166.132 468.731 172.661L468.932 173.297L469.026 173.628L469.156 174.149L469.392 175.193L469.522 176.147C469.661 177.29 469.705 178.444 469.651 179.595C469.542 181.536 469.281 183.464 468.873 185.358C468.126 188.752 467.136 192.079 465.912 195.307C463.579 201.497 460.753 207.456 457.465 213.119L451.566 210.078C453.336 204.112 455.105 198.005 456.403 192.063C457.079 189.199 457.591 186.293 457.937 183.361C458.082 182.095 458.126 180.818 458.066 179.544C458.049 179.09 457.993 178.639 457.901 178.195L457.842 177.966C457.82 177.925 457.801 177.883 457.783 177.839L457.689 177.597L457.5 177.101L456.71 175.104L455.825 173.119C455.235 171.847 454.586 170.472 453.937 169.149C452.592 166.528 451.141 163.92 449.631 161.325C448.121 158.729 446.517 156.236 444.912 153.691C443.308 151.147 441.55 148.602 439.958 146.299L450.186 137.304Z" fill="#B55B52"/>
<path d="M452.109 208.501L448.723 216.58H458.409C458.409 216.58 459.954 210.447 456.439 207.966L452.109 208.501Z" fill="#B55B52"/>
<path d="M449.856 225.664L458.845 223.793L458.409 216.58H448.723L449.856 225.664Z" fill="#B55B52"/>
<path d="M407.268 96.2988C407.268 97.0622 406.902 97.6729 406.442 97.6729C405.982 97.6729 405.616 97.0622 405.616 96.2988C405.616 95.5355 405.993 94.9375 406.442 94.9375C406.89 94.9375 407.268 95.5482 407.268 96.2988Z" fill="#263238"/>
<path d="M407.008 97.6729C406.176 99.9749 405.052 102.141 403.669 104.111C404.146 104.479 404.692 104.732 405.268 104.85C405.845 104.969 406.438 104.951 407.008 104.798V97.6729Z" fill="#A02724"/>
<path d="M409.745 92.1256C409.659 92.1268 409.575 92.0952 409.509 92.0366C409.098 91.7031 408.62 91.4777 408.114 91.3783C407.609 91.279 407.088 91.3083 406.595 91.464C406.496 91.493 406.391 91.4815 406.3 91.4317C406.208 91.3818 406.137 91.2972 406.101 91.1943C406.064 91.0913 406.064 90.9773 406.101 90.8744C406.138 90.7714 406.208 90.6869 406.3 90.6371C406.921 90.4242 407.581 90.3755 408.224 90.4951C408.866 90.6146 409.473 90.8989 409.992 91.3241C410.079 91.3951 410.138 91.4994 410.155 91.6155C410.173 91.7315 410.148 91.8504 410.087 91.9475C410.046 92.0031 409.994 92.048 409.935 92.0788C409.875 92.1097 409.81 92.1257 409.745 92.1256Z" fill="#263238"/>
<path d="M429.836 104.988C428.585 111.833 427.346 124.365 431.782 128.92C431.782 128.92 430.048 135.854 418.274 135.854C405.297 135.854 412.081 128.92 412.081 128.92C419.159 127.1 418.97 121.452 417.732 116.133L429.836 104.988Z" fill="#B55B52"/>
<path d="M433.481 131.299C434.413 129.111 435.439 126.591 433.316 125.803C430.956 124.937 418.262 124.06 413.862 125.688C413.283 125.861 412.742 126.156 412.27 126.557C411.798 126.957 411.405 127.455 411.113 128.021C410.821 128.587 410.636 129.209 410.569 129.853C410.503 130.497 410.555 131.148 410.724 131.77L433.481 131.299Z" fill="#263238"/>
<path d="M484.634 429.814C483.997 430.475 483.277 431.01 482.735 430.921C482.563 430.884 482.407 430.79 482.287 430.654C482.166 430.517 482.088 430.344 482.062 430.157C482.026 430.013 482.02 429.861 482.045 429.714C482.069 429.567 482.124 429.427 482.204 429.305C482.912 428.122 485.743 427.613 485.896 427.6C485.934 427.594 485.973 427.599 486.008 427.615C486.043 427.631 486.074 427.656 486.097 427.689C486.119 427.725 486.131 427.767 486.131 427.81C486.131 427.853 486.119 427.895 486.097 427.931C485.672 428.612 485.181 429.243 484.634 429.814ZM482.711 429.33C482.65 429.392 482.594 429.46 482.546 429.534C482.499 429.607 482.467 429.691 482.452 429.779C482.438 429.866 482.442 429.957 482.463 430.043C482.558 430.437 482.735 430.475 482.794 430.475C483.395 430.577 484.681 429.203 485.472 428.134C484.481 428.309 483.538 428.717 482.711 429.33Z" fill="#407BFF"/>
<path d="M486.05 427.969L485.955 428.032C484.976 428.312 482.416 428.134 481.874 427.243C481.793 427.101 481.758 426.934 481.775 426.768C481.792 426.602 481.86 426.447 481.968 426.327C482.069 426.199 482.194 426.093 482.333 426.016C482.473 425.94 482.626 425.894 482.782 425.882C484.08 425.78 485.955 427.574 486.038 427.651C486.066 427.676 486.087 427.711 486.098 427.749C486.108 427.788 486.108 427.829 486.097 427.867C486.094 427.906 486.077 427.943 486.05 427.969ZM482.357 426.544L482.286 426.62C482.121 426.836 482.192 426.951 482.216 427.002C482.534 427.523 484.327 427.816 485.436 427.676C484.703 426.962 483.793 426.493 482.817 426.327C482.653 426.341 482.498 426.418 482.381 426.544H482.357Z" fill="#407BFF"/>
<path d="M408.73 450.526C407.621 450.526 406.548 450.361 406.194 449.827C406.098 449.687 406.046 449.517 406.046 449.343C406.046 449.169 406.098 449 406.194 448.86C406.264 448.73 406.357 448.617 406.469 448.527C406.58 448.437 406.707 448.373 406.843 448.338C408.282 447.918 411.314 449.776 411.444 449.865C411.481 449.886 411.51 449.92 411.527 449.962C411.545 450.003 411.548 450.05 411.538 450.094C411.532 450.137 411.514 450.177 411.487 450.208C411.459 450.24 411.424 450.262 411.385 450.272C410.508 450.437 409.62 450.522 408.73 450.526ZM407.362 448.72C407.229 448.7 407.094 448.7 406.961 448.72C406.878 448.737 406.799 448.774 406.73 448.826C406.661 448.879 406.603 448.947 406.56 449.025C406.418 449.305 406.465 449.445 406.56 449.521C406.961 450.119 409.155 450.132 410.759 449.89C409.708 449.265 408.554 448.868 407.362 448.72Z" fill="#407BFF"/>
<path d="M411.349 450.272H411.267C410.229 449.763 408.152 447.727 408.306 446.684C408.306 446.429 408.506 446.124 409.072 446.06C409.283 446.035 409.496 446.056 409.699 446.121C409.901 446.187 410.09 446.296 410.252 446.442C411.349 447.422 411.585 449.941 411.597 450.043C411.596 450.082 411.587 450.121 411.571 450.156C411.555 450.191 411.531 450.222 411.503 450.246C411.48 450.261 411.455 450.271 411.428 450.276C411.402 450.28 411.375 450.279 411.349 450.272ZM409.238 446.455H409.12C408.742 446.455 408.719 446.646 408.719 446.697C408.624 447.333 410.028 448.923 411.078 449.61C410.976 448.541 410.563 447.535 409.898 446.735C409.71 446.573 409.478 446.484 409.238 446.48V446.455Z" fill="#407BFF"/>
<path d="M485.696 426.557L492.774 419.292C492.897 419.161 493.059 419.08 493.231 419.064C493.403 419.048 493.576 419.097 493.718 419.203L500.277 423.936C500.436 424.051 500.568 424.204 500.664 424.383C500.76 424.561 500.817 424.761 500.83 424.967C500.844 425.173 500.814 425.38 500.743 425.571C500.671 425.763 500.561 425.934 500.419 426.073C497.93 428.618 496.597 429.648 493.506 432.829C491.594 434.801 485.908 441.48 483.277 444.203C480.647 446.926 477.815 444.457 478.665 443.096C482.487 436.976 484.87 431.111 485.082 428.02C485.12 427.469 485.338 426.951 485.696 426.557Z" fill="#263238"/>
<path d="M412.27 448.974H421.707C421.879 448.973 422.045 449.036 422.178 449.152C422.311 449.268 422.404 449.43 422.439 449.61L424.15 457.918C424.193 458.118 424.193 458.325 424.15 458.525C424.108 458.725 424.024 458.912 423.904 459.071C423.785 459.231 423.633 459.359 423.461 459.445C423.289 459.532 423.101 459.576 422.911 459.572C419.49 459.572 414.558 459.305 410.264 459.305C405.25 459.305 400.921 459.598 395.034 459.598C391.495 459.598 390.492 455.717 391.978 455.361C398.75 453.771 404.295 453.592 410.146 449.699C410.777 449.249 411.513 448.998 412.27 448.974Z" fill="#263238"/>
<path d="M399.929 150.129C396.485 155.6 392.934 160.714 389.111 165.765C385.274 170.878 381.174 175.754 376.83 180.371L375.155 182.127L374.73 182.559L374.424 182.864L373.975 183.208C373.42 183.691 372.823 184.117 372.194 184.48C370.203 185.613 368.011 186.277 365.764 186.427C362.336 186.646 358.896 186.337 355.548 185.511C349.481 184.068 343.598 181.838 338.029 178.869L340.2 172.254C345.724 173.445 351.31 174.269 356.928 174.722C359.397 174.932 361.881 174.821 364.325 174.391C365.027 174.278 365.697 173.995 366.283 173.564C366.342 173.564 366.283 173.488 366.283 173.488L366.378 173.386L366.72 172.966L368.124 171.312C371.805 166.783 375.379 161.948 378.848 157.012C382.316 152.075 385.796 147.012 389.111 142.075L399.929 150.129Z" fill="#B55B52"/>
<path d="M447.307 131.045C455.424 133.055 464.744 156.936 464.744 156.936L448.428 168.997C444.375 162.717 440.782 156.107 437.681 149.226C432.844 138.297 439.002 128.984 447.307 131.045Z" fill="#407BFF"/>
<path opacity="0.3" d="M441.48 146.312L449.195 168.462L448.428 169.035C448.428 169.035 445.09 163.946 441.48 157.165V146.312Z" fill="black"/>
<path d="M398.75 131.515C398.75 131.515 389.524 142.749 398.243 212.305H444.594C444.913 204.671 440.442 167.19 447.308 131.032C442.18 129.968 436.994 129.263 431.782 128.92C425.221 128.512 418.643 128.512 412.081 128.92C407.581 129.409 403.124 130.277 398.75 131.515Z" fill="#407BFF"/>
<path opacity="0.3" d="M403.893 151.63C402.687 159.523 399.524 166.917 394.738 173.03C394.55 168.551 394.479 164.531 394.491 160.93L403.893 151.63Z" fill="black"/>
<path d="M407.893 139.098C409.072 147.94 392.863 170.549 392.863 170.549L376.618 158.488C376.618 158.488 381.124 146.032 388.71 137.864C397.381 128.5 406.654 129.467 407.893 139.098Z" fill="#407BFF"/>
<path d="M341.32 173.03L334.962 165.943L328.178 175.371C328.178 175.371 333.345 180.753 339.492 179.188L341.32 173.03Z" fill="#B55B52"/>
<path d="M326.232 161.999L323.318 171.897L328.178 175.332L334.962 165.905L326.232 161.999Z" fill="#B55B52"/>
<path d="M430.603 94.7083C430.072 103.958 430.201 109.416 425.884 114.161C419.36 121.312 408.766 117.075 406.725 107.8C404.873 99.4794 406.052 85.7388 414.452 82.0619C416.302 81.242 418.316 80.9461 420.302 81.2023C422.288 81.4586 424.18 82.2584 425.799 83.5258C427.417 84.7932 428.708 86.486 429.549 88.4433C430.39 90.4006 430.753 92.5573 430.603 94.7083Z" fill="#B55B52"/>
<path d="M438.07 75.3824C440.713 78.0032 439.592 80.9295 438.212 81.4766C442.494 82.4308 443.119 86.1077 440.866 93.8686C438.719 101.299 433.516 111.261 427.016 111.871C417.248 112.787 414.393 101.808 414.322 90.9169C408.801 91.2858 411.184 86.0059 404.401 87.2273C398.502 88.2833 400.72 83.3214 395.706 81.1585C389.89 78.6139 391.058 69.0082 396.485 71.7691C396.485 71.7691 393.972 73.5503 396.898 75.2297C399.823 76.9091 399.54 73.0286 405.333 72.5579C411.125 72.0872 411.798 77.4307 418.569 74.2119C427.063 70.166 432.643 69.9752 438.07 75.3824Z" fill="#263238"/>
<path d="M434.814 81.4255C435.2 80.7592 435.774 80.2447 436.452 79.9582C437.13 79.6718 437.875 79.6286 438.578 79.8351C441.232 80.4458 441.444 81.7054 443.108 81.54C444.771 81.3746 444.169 83.283 444.169 83.283C444.169 83.283 443.721 81.8453 441.716 82.6469C439.71 83.4484 438.401 81.4891 437.539 82.3669C436.678 83.2448 434.814 81.4255 434.814 81.4255Z" fill="#263238"/>
<path d="M418.947 97.2275C418.57 99.4957 417.503 101.564 415.915 103.105C413.815 105.116 411.998 103.5 411.927 100.752C411.927 98.2708 412.906 94.2249 415.325 93.258C417.743 92.291 419.383 94.4794 418.947 97.2275Z" fill="#B55B52"/>
<path d="M414.676 212.305C414.676 212.305 424.515 283.718 429.918 310.436C435.817 339.698 476.931 417.561 476.931 417.561L492.031 412.269C492.031 412.269 459.294 342.115 455.919 313.095C452.25 281.606 444.594 212.254 444.594 212.254L414.676 212.305Z" fill="#263238"/>
<path d="M472.707 412.472C472.648 412.472 476.164 418.172 476.164 418.172L493.128 412.218L491.135 406.747L472.707 412.472Z" fill="#407BFF"/>
<path opacity="0.3" d="M420.893 237.751C432.266 240.155 431.063 285.894 429.694 309.418C426.414 292.789 421.613 260.792 418.333 238.081C419.127 237.66 420.03 237.543 420.893 237.751Z" fill="black"/>
<path d="M398.242 212.305C398.242 212.305 397.063 282.191 397.983 310.69C398.962 340.335 408.6 437.409 408.6 437.409H423.288C423.288 437.409 423.819 342.065 424.468 312.955C425.176 281.148 428.727 212.305 428.727 212.305H398.242Z" fill="#263238"/>
<path d="M405.745 431.099C405.675 431.099 406.571 437.676 406.571 437.676H424.432L424.916 431.811L405.745 431.099Z" fill="#407BFF"/>
</svg>
