<svg width="203" height="65" viewBox="0 0 203 65" fill="none" xmlns="http://www.w3.org/2000/svg">
<circle cx="32.5" cy="32.5" r="32.5" fill="#DCEEDB"/>
<path d="M100.117 38.7031C100.117 39.4844 99.93 40.1191 99.5557 40.6074C99.1813 41.0794 98.6523 41.4619 97.9688 41.7549C97.3991 41.999 96.6829 42.1943 95.8203 42.3408C94.9577 42.471 94.0625 42.5687 93.1348 42.6338C92.207 42.6826 91.2956 42.7152 90.4004 42.7314C89.5052 42.7477 88.7565 42.7559 88.1543 42.7559C87.1289 42.7559 86.1117 42.7396 85.1025 42.707C84.1097 42.6745 83.1006 42.6257 82.0752 42.5605C82.124 40.9004 82.0752 39.2565 81.9287 37.6289C83.1494 37.6615 84.362 37.694 85.5664 37.7266C86.7871 37.7428 88.0078 37.7673 89.2285 37.7998C89.7005 37.8161 90.1725 37.8324 90.6445 37.8486C91.1328 37.8649 91.6211 37.873 92.1094 37.873C92.1908 37.873 92.3128 37.873 92.4756 37.873C92.6383 37.873 92.8092 37.8649 92.9883 37.8486C93.1673 37.8324 93.3301 37.8079 93.4766 37.7754C93.6393 37.7428 93.7614 37.694 93.8428 37.6289C93.9079 37.5638 93.9486 37.4743 93.9648 37.3604C93.9811 37.2301 93.9893 37.1162 93.9893 37.0186C93.9893 36.8395 93.9648 36.6279 93.916 36.3838C93.8672 36.1234 93.7939 35.9118 93.6963 35.749C93.68 35.7327 93.623 35.7165 93.5254 35.7002C93.444 35.6839 93.3464 35.6758 93.2324 35.6758C93.1185 35.6595 93.0127 35.6514 92.915 35.6514C92.8174 35.6351 92.7604 35.627 92.7441 35.627C91.7025 35.5456 90.6608 35.4886 89.6191 35.4561C88.5938 35.4235 87.5602 35.3665 86.5186 35.2852C86.0465 35.2363 85.5583 35.1875 85.0537 35.1387C84.5654 35.0898 84.1097 35.0003 83.6865 34.8701C83.2796 34.7562 82.9297 34.5039 82.6367 34.1133C82.36 33.7064 82.1322 33.2507 81.9531 32.7461C81.7904 32.2253 81.6683 31.7044 81.5869 31.1836C81.5218 30.6628 81.4893 30.2233 81.4893 29.8652C81.4893 29.2793 81.5462 28.7259 81.6602 28.2051C81.7741 27.668 81.9531 27.1715 82.1973 26.7158C82.4577 26.2601 82.7832 25.8613 83.1738 25.5195C83.5645 25.1615 84.0446 24.8685 84.6143 24.6406C85.5908 24.2663 86.6325 24.0059 87.7393 23.8594C88.8623 23.7129 89.9365 23.6396 90.9619 23.6396C92.1663 23.6396 93.3545 23.7129 94.5264 23.8594C95.6982 24.0059 96.8701 24.193 98.042 24.4209C98.0257 24.8929 98.0094 25.3649 97.9932 25.8369C97.9932 26.2926 97.9932 26.7565 97.9932 27.2285C97.9932 27.7005 98.0176 28.1807 98.0664 28.6689C98.1152 29.141 98.1641 29.613 98.2129 30.085C96.6667 30.1175 95.1204 30.1501 93.5742 30.1826C92.0443 30.1989 90.498 30.2396 88.9355 30.3047C88.7402 30.3047 88.4717 30.3128 88.1299 30.3291C87.8044 30.3454 87.487 30.3698 87.1777 30.4023C86.8685 30.4186 86.5999 30.4349 86.3721 30.4512C86.1442 30.4674 86.0303 30.4756 86.0303 30.4756C85.9489 30.6546 85.9001 30.8418 85.8838 31.0371C85.8675 31.2161 85.8594 31.4033 85.8594 31.5986C85.8594 31.6963 85.8594 31.8184 85.8594 31.9648C85.8757 32.1113 85.9163 32.2253 85.9814 32.3066C85.9977 32.3229 86.1361 32.3473 86.3965 32.3799C86.6569 32.4124 86.9417 32.445 87.251 32.4775C87.5765 32.5101 87.8776 32.5426 88.1543 32.5752C88.4473 32.6077 88.6263 32.624 88.6914 32.624C89.2285 32.6729 89.8551 32.7298 90.5713 32.7949C91.3037 32.86 92.0443 32.9333 92.793 33.0146C93.5579 33.096 94.2904 33.2018 94.9902 33.332C95.6901 33.446 96.3005 33.5843 96.8213 33.7471C97.2933 33.9098 97.7246 34.1702 98.1152 34.5283C98.5221 34.8701 98.8721 35.277 99.165 35.749C99.458 36.2048 99.6859 36.693 99.8486 37.2139C100.028 37.7184 100.117 38.2148 100.117 38.7031ZM112.604 25.0801C112.523 26.0729 112.491 27.0658 112.507 28.0586C112.523 29.0352 112.515 30.0117 112.482 30.9883L109.772 30.8906C109.756 31.4603 109.74 32.0218 109.724 32.5752C109.724 33.1286 109.724 33.6901 109.724 34.2598C109.724 34.9434 109.724 35.6188 109.724 36.2861C109.74 36.9372 109.756 37.6045 109.772 38.2881L112.263 38.3369C112.23 38.8089 112.214 39.2891 112.214 39.7773C112.214 40.2656 112.214 40.7539 112.214 41.2422C112.214 41.6491 112.222 42.056 112.238 42.4629C112.271 42.8698 112.328 43.2686 112.409 43.6592L103.645 43.8057C103.645 43.0081 103.636 42.2269 103.62 41.4619C103.604 40.6807 103.571 39.8913 103.522 39.0938L105.109 39.0693C105.028 37.5394 104.93 36.0257 104.816 34.5283C104.719 33.0309 104.613 31.5254 104.499 30.0117L102.18 29.7188C102.147 29.0352 102.115 28.3597 102.082 27.6924C102.066 27.0088 102.041 26.3252 102.009 25.6416C103.783 25.5765 105.541 25.5033 107.282 25.4219C109.04 25.3242 110.814 25.2103 112.604 25.0801ZM137.079 43.415C136.77 43.3988 136.469 43.3743 136.176 43.3418C135.932 43.3092 135.688 43.2848 135.443 43.2686C135.215 43.2523 135.045 43.2441 134.931 43.2441C134.296 43.2441 133.661 43.2523 133.026 43.2686C132.392 43.3011 131.765 43.3499 131.146 43.415C131.163 42.7314 131.171 42.0641 131.171 41.4131C131.187 40.7458 131.195 40.0703 131.195 39.3867C131.195 38.166 131.171 36.9535 131.122 35.749C131.09 34.5446 131.057 33.3402 131.024 32.1357L125.897 43.7324C125.149 41.6979 124.343 39.7041 123.48 37.751C122.634 35.7816 121.747 33.8203 120.819 31.8672L121.21 43.9277C121.031 43.9277 120.844 43.9196 120.648 43.9033C120.469 43.9033 120.282 43.9033 120.087 43.9033C119.468 43.9033 118.858 43.9277 118.256 43.9766C117.67 44.0254 117.076 44.0742 116.474 44.123C116.555 42.6094 116.636 41.1038 116.718 39.6064C116.799 38.109 116.84 36.6035 116.84 35.0898C116.84 33.3158 116.824 31.5498 116.791 29.792C116.775 28.0342 116.758 26.2682 116.742 24.4941C117.914 24.4941 119.053 24.4616 120.16 24.3965C121.283 24.3314 122.431 24.2419 123.603 24.1279C123.993 25.43 124.392 26.724 124.799 28.0098C125.222 29.2793 125.67 30.5488 126.142 31.8184C126.646 30.6139 127.216 29.4339 127.851 28.2783C128.502 27.1227 129.161 25.9753 129.828 24.8359C130.935 24.8034 132.025 24.7708 133.1 24.7383C134.19 24.7057 135.289 24.6813 136.396 24.665C136.444 26.1299 136.501 27.5785 136.566 29.0107C136.648 30.443 136.721 31.8916 136.786 33.3564C136.835 34.512 136.876 35.6676 136.908 36.8232C136.957 37.9788 136.998 39.1263 137.03 40.2656L137.079 42.3164V43.415Z" fill="black"/>
<path d="M159.063 30.7441C159.063 31.1022 159.039 31.5335 158.99 32.0381C158.958 32.5426 158.893 33.0553 158.795 33.5762C158.714 34.097 158.591 34.5853 158.429 35.041C158.266 35.4967 158.062 35.8548 157.818 36.1152C157.721 36.2292 157.403 36.3431 156.866 36.457C156.345 36.5547 155.711 36.6605 154.962 36.7744C154.229 36.8721 153.44 36.9697 152.594 37.0674C151.747 37.165 150.942 37.2546 150.177 37.3359C149.428 37.401 148.777 37.458 148.224 37.5068C147.67 37.5557 147.32 37.5801 147.174 37.5801L146.979 42.6582C146.474 42.6908 145.978 42.6989 145.489 42.6826C145.001 42.6501 144.505 42.6338 144 42.6338C143.674 42.6338 143.349 42.6419 143.023 42.6582C142.698 42.6745 142.372 42.6989 142.047 42.7314C142.047 41.2015 142.047 39.6878 142.047 38.1904C142.047 36.693 142.014 35.1794 141.949 33.6494C141.9 32.266 141.852 30.8906 141.803 29.5234C141.77 28.1562 141.738 26.7809 141.705 25.3975C143.382 25.2835 145.066 25.1452 146.759 24.9824C148.468 24.8034 150.169 24.7139 151.861 24.7139C152.154 24.7139 152.618 24.7464 153.253 24.8115C153.888 24.8604 154.555 24.9499 155.255 25.0801C155.955 25.194 156.598 25.3405 157.184 25.5195C157.786 25.6986 158.185 25.902 158.38 26.1299C158.51 26.2764 158.616 26.5612 158.697 26.9844C158.795 27.4076 158.868 27.8633 158.917 28.3516C158.966 28.8236 158.998 29.2874 159.015 29.7432C159.047 30.1989 159.063 30.5326 159.063 30.7441ZM152.228 30.5732C152.228 30.4268 152.219 30.2396 152.203 30.0117C152.187 29.7839 152.154 29.5641 152.105 29.3525C152.073 29.1247 152.016 28.9212 151.935 28.7422C151.853 28.5469 151.747 28.4085 151.617 28.3271C151.536 28.2783 151.406 28.2376 151.227 28.2051C151.048 28.1725 150.86 28.1481 150.665 28.1318C150.47 28.1156 150.283 28.1074 150.104 28.1074C149.924 28.0911 149.794 28.083 149.713 28.083C149.111 28.083 148.508 28.1156 147.906 28.1807C147.304 28.2458 146.694 28.3271 146.075 28.4248C146.124 28.9131 146.148 29.3932 146.148 29.8652C146.165 30.3372 146.173 30.8092 146.173 31.2812C146.173 32.0462 146.197 32.8193 146.246 33.6006C146.458 33.6006 146.824 33.5924 147.345 33.5762C147.866 33.5436 148.411 33.5029 148.98 33.4541C149.55 33.389 150.087 33.3076 150.592 33.21C151.096 33.096 151.438 32.9495 151.617 32.7705C151.91 32.4938 152.081 32.1602 152.13 31.7695C152.195 31.3626 152.228 30.9639 152.228 30.5732ZM178.094 42.9268L174.383 43.4883C174.122 42.6582 173.862 41.8363 173.602 41.0225C173.341 40.1924 173.089 39.3623 172.845 38.5322L166.839 38.752L166.082 41.999H162.322C162.55 39.2321 162.786 36.4814 163.03 33.7471C163.274 31.0127 163.51 28.2702 163.738 25.5195C164.91 25.3242 166.074 25.1615 167.229 25.0312C168.401 24.901 169.581 24.8359 170.77 24.8359C172.218 24.8359 173.667 24.8604 175.115 24.9092C175.376 26.6019 175.628 28.2946 175.872 29.9873C176.132 31.6637 176.401 33.3483 176.678 35.041C176.873 36.3757 177.085 37.694 177.312 38.9961C177.557 40.2982 177.817 41.6084 178.094 42.9268ZM171.99 35.2119C171.974 35.0654 171.933 34.7969 171.868 34.4062C171.803 33.9993 171.73 33.5762 171.648 33.1367C171.567 32.681 171.469 32.2741 171.355 31.916C171.258 31.5417 171.16 31.3219 171.062 31.2568C171.03 31.2406 170.949 31.2243 170.818 31.208C170.704 31.1917 170.574 31.1755 170.428 31.1592C170.298 31.1429 170.167 31.1348 170.037 31.1348C169.907 31.1348 169.817 31.1348 169.769 31.1348C169.687 31.1348 169.573 31.1348 169.427 31.1348C169.297 31.1348 169.15 31.1429 168.987 31.1592C168.841 31.1592 168.694 31.1755 168.548 31.208C168.418 31.2406 168.328 31.2812 168.279 31.3301C168.247 31.3464 168.206 31.4521 168.157 31.6475C168.108 31.8428 168.043 32.0869 167.962 32.3799C167.897 32.6566 167.824 32.9577 167.742 33.2832C167.677 33.6087 167.612 33.918 167.547 34.2109C167.482 34.5039 167.425 34.7562 167.376 34.9678C167.343 35.1794 167.319 35.3014 167.303 35.334L171.99 35.2119ZM200.127 35.1387C200.127 36.571 200.119 37.987 200.103 39.3867C200.103 40.7702 200.094 42.1781 200.078 43.6104C199.069 43.5615 198.068 43.5371 197.075 43.5371C196.587 43.5371 196.09 43.5615 195.586 43.6104C195.098 43.6592 194.609 43.7243 194.121 43.8057C193.503 42.4548 192.884 41.1201 192.266 39.8018C191.647 38.4671 191.029 37.1243 190.41 35.7734C189.954 34.7806 189.523 33.7878 189.116 32.7949C188.709 31.8021 188.302 30.8011 187.896 29.792C187.749 31.9893 187.594 34.1784 187.432 36.3594C187.285 38.5241 187.163 40.7051 187.065 42.9023L181.792 42.7559C181.711 39.6309 181.637 36.5221 181.572 33.4297C181.507 30.3372 181.393 27.2285 181.23 24.1035L190.776 24.0547C191.102 24.8685 191.403 25.6904 191.68 26.5205C191.973 27.3343 192.249 28.1644 192.51 29.0107C192.884 30.2965 193.307 31.5742 193.779 32.8438C194.251 34.097 194.723 35.3584 195.195 36.6279C195.179 34.5934 195.138 32.5671 195.073 30.5488C195.024 28.5306 194.984 26.4961 194.951 24.4453L199.883 25.0312C199.948 26.724 200.005 28.4085 200.054 30.085C200.103 31.7614 200.127 33.446 200.127 35.1387Z" fill="#40B2BE"/>
</svg>
