<svg width="463" height="386" viewBox="0 0 463 386" fill="none" xmlns="http://www.w3.org/2000/svg">
<path d="M462.999 315.593L102.753 315.088L102.753 315.329L462.999 315.834L462.999 315.593Z" fill="#EBEBEB"/>
<path d="M147.984 321.398H125.639V321.639H147.984V321.398Z" fill="#EBEBEB"/>
<path d="M423.255 326.56H368.625V326.8H423.255V326.56Z" fill="#EBEBEB"/>
<path d="M76.8125 326.56H22.1826V326.8H76.8125V326.56Z" fill="#EBEBEB"/>
<path d="M417.992 272.31H231.843C230.385 272.304 228.988 271.724 227.957 270.694C226.926 269.664 226.344 268.268 226.339 266.811V5.45004C226.354 4.00098 226.94 2.61629 227.971 1.5961C229.001 0.575922 230.393 0.00245376 231.843 0H417.992C419.44 0.00501144 420.828 0.579909 421.855 1.60009C422.881 2.62026 423.464 4.00352 423.477 5.45004V266.811C423.478 267.532 423.337 268.246 423.062 268.912C422.787 269.579 422.384 270.185 421.874 270.695C421.365 271.206 420.76 271.611 420.094 271.888C419.428 272.165 418.713 272.308 417.992 272.31V272.31ZM231.843 0.192582C230.449 0.197656 229.113 0.753195 228.127 1.73806C227.141 2.72293 226.585 4.05724 226.58 5.45004V266.811C226.585 268.204 227.141 269.538 228.127 270.523C229.113 271.508 230.449 272.064 231.843 272.069H417.992C419.386 272.064 420.722 271.508 421.708 270.523C422.694 269.538 423.25 268.204 423.255 266.811V5.45004C423.25 4.05724 422.694 2.72293 421.708 1.73806C420.722 0.753195 419.386 0.197656 417.992 0.192582H231.843Z" fill="#EBEBEB"/>
<path d="M127.316 338.259C127.316 338.259 146.24 327.667 147.502 312.559C148.765 297.451 133.881 294.408 127.316 289.122C120.751 283.835 120.51 279.04 120.25 270.22C119.99 261.4 117.223 252.069 107.39 243.258C97.5575 234.448 96.5357 231.164 97.7503 219.321C98.965 207.477 90.9349 192.61 80.8418 195.132C70.7487 197.655 69.9968 213.524 72.0115 223.606C73.8526 233.411 71.9948 243.55 66.7963 252.069C61.9763 259.637 59.9808 272.993 66.7963 281.563C73.6118 290.133 78.1522 297.691 74.865 306.762C71.5777 315.833 61.4943 319.357 73.1009 338.259H127.316Z" fill="#E6E6E6"/>
<path d="M294.059 338.085H326.604C326.604 338.085 329.631 311.374 329.13 289.699C328.628 268.024 327.366 233.754 313.706 234.756C300.046 235.757 284.477 270.797 294.059 338.085Z" fill="#F5F5F5"/>
<path d="M311.334 338.085C311.334 338.085 343.001 267.524 368.49 281.38C393.978 295.236 341.141 338.442 341.141 338.442L311.334 338.085Z" fill="#F0F0F0"/>
<path d="M307.527 338.442C307.527 338.442 309.609 315.477 300.962 291.992C292.315 268.506 281.595 254.438 269.487 258.974C257.379 263.509 258.42 294.014 274.673 338.086L307.527 338.442Z" fill="#E6E6E6"/>
<path d="M326.604 338.086C326.604 338.086 340.389 316.517 347.995 296.132C355.601 275.747 357.336 260.504 350.415 256.749C343.493 252.994 310.987 288.159 307.526 338.442L326.604 338.086Z" fill="#E6E6E6"/>
<path d="M284.535 338.086C284.535 338.086 266.72 269.238 236.287 279.58C205.853 289.922 260.387 338.442 260.387 338.442H286.068" fill="#F0F0F0"/>
<path d="M341.333 319.3C341.333 319.3 345.035 296.671 374.003 268.545C402.972 240.418 411.705 219.562 406.538 191.214C406.538 191.214 432.971 228.286 415.87 273.86C398.769 319.434 372.23 334.706 350.453 340.705C328.676 346.704 341.333 319.3 341.333 319.3Z" fill="#EBEBEB" stroke="#EBEBEB" stroke-miterlimit="10"/>
<path d="M341.7 341.032C347.571 325.741 356.517 316.747 366.552 307.629C370.225 304.287 374.052 300.888 377.927 297.239C380.569 294.726 383.239 292.049 385.89 289.122C388.803 285.924 391.545 282.575 394.103 279.088V279.088C396.993 275.14 399.645 271.025 402.047 266.763C402.548 265.887 403.011 265.001 403.531 264.076C404.158 262.892 404.765 261.717 405.324 260.552C420.228 229.739 412.255 203.567 407.946 193.418C407.311 191.871 406.584 190.363 405.768 188.902" stroke="#E0E0E0" stroke-width="2" stroke-miterlimit="10"/>
<path d="M395.983 243.027C401.078 247.572 404.392 253.775 405.334 260.533" stroke="#E0E0E0" stroke-width="2" stroke-miterlimit="10"/>
<path d="M394.113 279.079C393.844 272.435 387.963 262.758 384.531 257.645" stroke="#E0E0E0" stroke-width="2" stroke-miterlimit="10"/>
<path d="M368.336 274.312C371.026 278.559 376.626 288.236 377.928 297.239" stroke="#E0E0E0" stroke-width="2" stroke-miterlimit="10"/>
<path d="M366.601 307.629C366.601 307.629 383.287 305.039 396.716 309.44" stroke="#E0E0E0" stroke-width="2" stroke-miterlimit="10"/>
<path d="M411.533 284.355C400.197 283.065 386.296 288.958 385.9 289.112" stroke="#E0E0E0" stroke-width="2" stroke-miterlimit="10"/>
<path d="M420.103 258.732C410.906 260.292 402.365 266.522 402.057 266.744" stroke="#E0E0E0" stroke-width="2" stroke-miterlimit="10"/>
<path opacity="0.12" d="M206.21 119.92C203.636 119.217 203.588 115.914 203.588 115.914L206.056 116.405C205.92 117.577 205.973 118.764 206.21 119.92Z" fill="black"/>
<path d="M341.787 29.8977V168.71C341.787 170.768 340.968 172.743 339.511 174.198C338.054 175.653 336.078 176.471 334.017 176.471H124.01C121.958 176.458 119.995 175.635 118.55 174.18C117.105 172.726 116.295 170.759 116.298 168.71V29.8977C116.295 27.8486 117.105 25.8818 118.55 24.4274C119.995 22.973 121.958 22.1494 124.01 22.1367H334.017C335.038 22.1367 336.048 22.3375 336.991 22.7275C337.933 23.1175 338.79 23.6892 339.511 24.4099C340.233 25.1305 340.805 25.9861 341.196 26.9277C341.586 27.8693 341.787 28.8785 341.787 29.8977Z" fill="#407BFF"/>
<path opacity="0.7" d="M341.787 29.8977V168.71C341.787 170.768 340.968 172.743 339.511 174.198C338.054 175.653 336.078 176.471 334.017 176.471H124.01C121.958 176.458 119.995 175.635 118.55 174.18C117.105 172.726 116.295 170.759 116.298 168.71V29.8977C116.295 27.8486 117.105 25.8818 118.55 24.4274C119.995 22.973 121.958 22.1494 124.01 22.1367H334.017C335.038 22.1367 336.048 22.3375 336.991 22.7275C337.933 23.1175 338.79 23.6892 339.511 24.4099C340.233 25.1305 340.805 25.9861 341.196 26.9277C341.586 27.8693 341.787 28.8785 341.787 29.8977Z" fill="white" stroke="white" stroke-miterlimit="10"/>
<path d="M328.716 33.7972C329.871 33.7972 330.808 32.8617 330.808 31.7077C330.808 30.5537 329.871 29.6182 328.716 29.6182C327.561 29.6182 326.624 30.5537 326.624 31.7077C326.624 32.8617 327.561 33.7972 328.716 33.7972Z" fill="#407BFF"/>
<path d="M318.719 31.7077C318.721 32.1232 318.599 32.53 318.369 32.8765C318.139 33.223 317.812 33.4935 317.428 33.6539C317.044 33.8142 316.621 33.8572 316.213 33.7773C315.805 33.6974 315.429 33.4982 315.135 33.205C314.84 32.9118 314.639 32.5378 314.557 32.1304C314.475 31.7229 314.516 31.3004 314.675 30.9162C314.833 30.5321 315.103 30.2037 315.449 29.9726C315.794 29.7415 316.201 29.6182 316.617 29.6182C317.172 29.6207 317.704 29.8413 318.097 30.2324C318.49 30.6234 318.714 31.1534 318.719 31.7077V31.7077Z" fill="#407BFF"/>
<path d="M306.621 31.7077C306.623 32.1232 306.501 32.53 306.272 32.8765C306.042 33.223 305.714 33.4935 305.33 33.6539C304.947 33.8142 304.524 33.8572 304.115 33.7773C303.707 33.6974 303.332 33.4982 303.037 33.205C302.742 32.9118 302.541 32.5378 302.459 32.1304C302.377 31.7229 302.418 31.3004 302.577 30.9162C302.736 30.5321 303.005 30.2037 303.351 29.9726C303.697 29.7415 304.103 29.6182 304.519 29.6182C305.074 29.6207 305.606 29.8413 305.999 30.2324C306.393 30.6234 306.616 31.1534 306.621 31.7077V31.7077Z" fill="#407BFF"/>
<path d="M325.265 58.0725V196.885C325.252 198.932 324.429 200.892 322.975 202.335C321.521 203.778 319.555 204.588 317.505 204.588H107.488C105.438 204.588 103.471 203.778 102.017 202.335C100.563 200.892 99.7403 198.932 99.7275 196.885V58.0725C99.7275 56.0159 100.545 54.0433 102 52.5881C103.455 51.1329 105.429 50.3141 107.488 50.3115H317.505C319.564 50.3141 321.538 51.1329 322.993 52.5881C324.448 54.0433 325.265 56.0159 325.265 58.0725V58.0725Z" fill="#407BFF"/>
<path opacity="0.8" d="M325.265 58.0725V196.885C325.252 198.932 324.429 200.892 322.975 202.335C321.521 203.778 319.555 204.588 317.505 204.588H107.488C105.438 204.588 103.471 203.778 102.017 202.335C100.563 200.892 99.7403 198.932 99.7275 196.885V58.0725C99.7275 56.0159 100.545 54.0433 102 52.5881C103.455 51.1329 105.429 50.3141 107.488 50.3115H317.505C319.564 50.3141 321.538 51.1329 322.993 52.5881C324.448 54.0433 325.265 56.0159 325.265 58.0725V58.0725Z" fill="white"/>
<path d="M325.274 66.6035H274.963V193.591H325.274V66.6035Z" fill="#407BFF"/>
<path opacity="0.2" d="M325.274 66.6035H274.963V193.591H325.274V66.6035Z" fill="black"/>
<path d="M325.274 104.744H274.963V106.362H325.274V104.744Z" fill="#FAFAFA"/>
<path d="M325.274 144.599H274.963V146.216H325.274V144.599Z" fill="#FAFAFA"/>
<path d="M325.274 183.866H274.963V185.484H325.274V183.866Z" fill="#FAFAFA"/>
<path d="M296.903 115.856V134.826L311.248 125.341L296.903 115.856Z" fill="#FAFAFA"/>
<path d="M296.903 155.547V174.526L311.248 165.041L296.903 155.547Z" fill="#FAFAFA"/>
<path d="M296.903 75.4629V94.4418L311.248 84.9475L296.903 75.4629Z" fill="#FAFAFA"/>
<path d="M173.492 144.599C173.492 144.599 160.632 163.751 156.622 167.554C156.622 167.554 135.067 169.48 126.198 163.423L123.952 168.922C123.952 168.922 144.428 180.476 158.299 177.655C172.171 174.834 182.399 148.084 182.399 148.084L173.492 144.599Z" fill="#B55B52"/>
<path d="M235.988 133.207C235.988 133.207 248.279 136.568 255.943 137.213C255.943 137.213 261.727 123.8 262.691 111.619L267.048 111.86C267.048 111.86 271.059 135.586 260.541 145.196C253.273 151.849 229.019 139.524 229.019 139.524L235.988 133.207Z" fill="#B55B52"/>
<path d="M201.4 80.8837C201.4 80.8837 184.742 79.2756 183.016 96.2324C182.063 106.756 183.767 117.35 187.971 127.045C187.971 127.045 198.045 147.526 210.259 144.676C222.473 141.826 232.826 135.22 230.667 124.166C228.507 113.112 224.487 113.574 224.632 98.1678C224.777 82.7613 210.307 73.816 201.4 80.8837Z" fill="#263238"/>
<path d="M219.581 105.168C217.836 113.67 213.951 117.06 206.085 116.405C205.95 117.577 206.002 118.764 206.239 119.92C206.435 121.305 207.077 122.589 208.069 123.578C209.06 124.566 210.347 125.205 211.734 125.399C218.482 126.564 214.79 135.24 214.79 135.24L208.042 138.552L199.164 133.439L192.416 126.246H194.777C194.777 126.246 199.347 119.342 194.777 107.72C193.778 107.135 192.936 106.317 192.323 105.336C191.71 104.355 191.345 103.24 191.259 102.087C191.066 98.2351 195.047 98.004 196.551 99.4483C196.551 99.4483 203.405 96.4633 202.383 84.9277C202.383 84.9277 209.131 89.9926 217.807 88.5194C217.798 88.5868 221.316 96.6559 219.581 105.168Z" fill="#B55B52"/>
<path d="M213.383 98.0908L213.47 104.042C213.948 104.226 214.461 104.306 214.973 104.276C215.485 104.246 215.985 104.107 216.439 103.868L213.383 98.0908Z" fill="#A02724"/>
<path d="M204.253 91.3988C204.196 91.4117 204.137 91.4117 204.08 91.3988C204.043 91.3762 204.011 91.3465 203.986 91.3114C203.96 91.2764 203.942 91.2367 203.932 91.1946C203.923 91.1525 203.921 91.1089 203.928 91.0663C203.935 91.0237 203.951 90.9829 203.974 90.9463C204.422 90.2629 205.093 89.7548 205.872 89.5075C206.652 89.2602 207.493 89.2888 208.254 89.5886C208.295 89.6015 208.333 89.6227 208.366 89.6509C208.399 89.679 208.425 89.7135 208.444 89.7522C208.463 89.7909 208.474 89.8331 208.476 89.8762C208.478 89.9192 208.471 89.9622 208.456 90.0026C208.428 90.0841 208.368 90.151 208.291 90.1889C208.213 90.2268 208.124 90.2325 208.042 90.2048C207.422 89.9511 206.734 89.9199 206.094 90.1166C205.454 90.3132 204.902 90.7256 204.533 91.2833C204.499 91.3236 204.456 91.3551 204.407 91.3752C204.359 91.3953 204.306 91.4034 204.253 91.3988Z" fill="#263238"/>
<path d="M219.176 93.2376C219.09 93.238 219.008 93.2072 218.944 93.1509C217.98 92.2747 216.303 92.9198 216.284 92.9294C216.202 92.958 216.112 92.9539 216.033 92.918C215.954 92.8822 215.892 92.8173 215.859 92.7369C215.844 92.6964 215.837 92.6533 215.838 92.6101C215.839 92.5668 215.849 92.5243 215.867 92.4849C215.885 92.4455 215.911 92.41 215.943 92.3805C215.974 92.3511 216.012 92.3282 216.052 92.3132C216.129 92.3132 218.163 91.514 219.397 92.6695C219.458 92.7308 219.493 92.8139 219.493 92.9006C219.493 92.9872 219.458 93.0703 219.397 93.1317C219.339 93.1928 219.26 93.2305 219.176 93.2376V93.2376Z" fill="#263238"/>
<path d="M210.847 106.882C209.725 106.929 208.61 106.68 207.615 106.159C206.619 105.638 205.779 104.865 205.179 103.917C205.162 103.861 205.165 103.802 205.187 103.748C205.209 103.695 205.25 103.65 205.301 103.623C205.352 103.596 205.411 103.587 205.468 103.599C205.525 103.61 205.576 103.641 205.612 103.685C206.173 104.555 206.953 105.263 207.873 105.738C208.793 106.213 209.822 106.438 210.857 106.391C210.921 106.391 210.982 106.417 211.027 106.462C211.072 106.507 211.098 106.568 211.098 106.632C211.098 106.698 211.071 106.762 211.024 106.809C210.977 106.856 210.913 106.882 210.847 106.882V106.882Z" fill="#263238"/>
<path d="M209.122 97.0705C209.122 97.783 208.765 98.3608 208.283 98.38C207.801 98.3993 207.396 97.8312 207.377 97.1186C207.357 96.4061 207.724 95.8283 208.206 95.8091C208.688 95.7898 209.102 96.3579 209.122 97.0705Z" fill="#263238"/>
<path d="M217.692 97.1466C217.692 97.8496 217.335 98.4369 216.853 98.4562C216.371 98.4755 215.966 97.9073 215.937 97.1948C215.908 96.4822 216.294 95.9045 216.776 95.8852C217.258 95.866 217.672 96.4341 217.692 97.1466Z" fill="#263238"/>
<path d="M208.071 95.8378L210.26 95.2119C210.26 95.2119 209.864 96.3867 208.071 95.8378Z" fill="#263238"/>
<path d="M216.775 95.8854L218.385 95.6543C218.319 95.8019 218.216 95.9303 218.086 96.0277C217.956 96.125 217.804 96.1881 217.644 96.2111C217.483 96.2342 217.32 96.2164 217.168 96.1595C217.016 96.1025 216.881 96.0083 216.775 95.8854V95.8854Z" fill="#263238"/>
<path d="M240.152 132.822L232.604 149.423L228.594 147.969C228.594 147.969 228.999 178.108 225.702 193.591H186.467L184.212 152.456L182.158 156.75L167.698 148.643C167.698 148.643 171.699 132.273 177.946 129.385C180.924 128.008 187.277 126.948 193.813 126.265C199.768 125.591 205.761 125.308 211.753 125.417C211.753 125.417 212.37 125.417 213.459 125.417C222.814 125.767 231.957 128.303 240.152 132.822V132.822Z" fill="#407BFF"/>
<path d="M262.691 111.62C261.203 109.506 260.214 107.083 259.799 104.533C259.392 101.787 259.646 98.9848 260.541 96.3575L268.33 96.0879L269.294 102.896C269.676 106.055 268.883 109.245 267.067 111.86L262.691 111.62Z" fill="#B55B52"/>
<path d="M126.198 163.424L122.14 156.192L117.204 154.479L113.695 161.026L116.828 165.321C116.828 165.321 120.964 168.826 123.952 168.922L126.198 163.424Z" fill="#B55B52"/>
<path d="M213.411 125.418C213.343 135.798 206.846 147.17 206.846 147.17C201.062 141.595 195.278 129.636 193.765 126.246C199.72 125.572 205.713 125.289 211.705 125.399C211.705 125.399 212.36 125.38 213.411 125.418Z" fill="#B55B52"/>
<path opacity="0.12" d="M182.148 156.751L184.173 145.61L184.211 152.466L182.148 156.751Z" fill="black"/>
<path opacity="0.12" d="M232.624 149.423L226.146 144.599L228.613 147.969L232.624 149.423Z" fill="black"/>
<path d="M189.947 328.678L199.221 338.702L177.705 359.144L170.031 353.694L189.947 328.678Z" fill="#B55B52"/>
<path d="M179.585 358.663C180.105 361.783 180.867 365.259 185.301 371.364C186.265 372.721 183.701 375.263 180.799 372.577C177.898 369.89 173.733 365.673 171.632 363.737C168.209 360.569 166.812 359.52 164.026 357.055C163.983 357.025 163.944 356.989 163.91 356.949C163.777 356.811 163.673 356.648 163.604 356.469C163.534 356.29 163.501 356.1 163.505 355.908C163.51 355.717 163.552 355.528 163.63 355.353C163.707 355.178 163.819 355.02 163.958 354.888L170.06 349.948C170.201 349.839 170.377 349.785 170.555 349.798C170.733 349.81 170.9 349.888 171.024 350.016L178.804 357.199C179.213 357.592 179.487 358.104 179.585 358.663Z" fill="#263238"/>
<path d="M178.418 358.479C178.394 358.442 178.381 358.398 178.381 358.354C178.381 358.31 178.394 358.266 178.418 358.229C178.447 358.209 178.48 358.196 178.516 358.191C178.551 358.186 178.586 358.189 178.62 358.2C179.064 358.344 183.026 359.567 183.44 360.78C183.481 360.893 183.493 361.013 183.475 361.131C183.456 361.249 183.408 361.36 183.334 361.455C183.228 361.61 183.083 361.735 182.914 361.817C182.745 361.9 182.558 361.938 182.37 361.926C181.593 361.765 180.887 361.36 180.355 360.771C179.642 360.066 178.994 359.299 178.418 358.479V358.479ZM179.16 358.768C180.481 360.443 181.676 361.445 182.409 361.445C182.533 361.453 182.658 361.428 182.77 361.372C182.882 361.316 182.977 361.232 183.045 361.127C183.068 361.088 183.08 361.043 183.08 360.997C183.08 360.952 183.068 360.907 183.045 360.867C182.984 360.734 182.895 360.616 182.785 360.521C181.677 359.748 180.453 359.157 179.16 358.768V358.768Z" fill="#407BFF"/>
<path d="M178.361 358.392C178.351 358.357 178.351 358.319 178.361 358.283C178.372 358.248 178.391 358.215 178.419 358.19C178.486 358.123 180.231 356.524 181.715 356.65C182.159 356.684 182.571 356.892 182.863 357.227C183.277 357.699 183.21 358.036 183.084 358.19C182.535 359.047 179.653 358.941 178.505 358.527L178.428 358.479C178.401 358.454 178.378 358.425 178.361 358.392V358.392ZM181.706 357.083C180.7 357.179 179.753 357.598 179.007 358.277C180.279 358.575 182.381 358.489 182.708 357.978C182.708 357.978 182.814 357.815 182.545 357.507L182.448 357.41C182.244 357.221 181.983 357.106 181.706 357.083Z" fill="#407BFF"/>
<path d="M185.735 346.983L198.373 346.8L196.619 378.528L187.528 378.21L185.735 346.983Z" fill="#B55B52"/>
<path d="M198.759 376.187C201.333 378.209 202.615 380.337 209.825 381.907C211.435 382.263 211.483 386.028 207.676 385.999C203.868 385.97 199.809 385.633 197.072 385.633C192.589 385.633 190.883 385.835 187.335 385.835C187.125 385.832 186.918 385.787 186.725 385.703C186.532 385.619 186.358 385.498 186.212 385.347C186.066 385.196 185.952 385.017 185.875 384.822C185.798 384.627 185.76 384.418 185.764 384.208L186.381 376.178C186.391 376.006 186.468 375.844 186.596 375.729C186.725 375.614 186.893 375.553 187.065 375.561L197.274 375.629C197.816 375.653 198.335 375.849 198.759 376.187Z" fill="#263238"/>
<path d="M192.84 182.21C191.741 201.901 217.653 260.764 220.545 281.389C211.618 302.101 188.261 328.504 188.261 328.504L199.327 340.56C199.327 340.56 238.08 306.059 240.095 282.015C241.772 261.457 227.216 184.184 227.216 184.184L192.84 182.21Z" fill="#407BFF"/>
<path d="M192.84 182.21C191.741 201.901 217.653 260.764 220.545 281.389C211.618 302.101 188.261 328.504 188.261 328.504L199.327 340.56C199.327 340.56 238.08 306.059 240.095 282.015C241.772 261.457 227.216 184.184 227.216 184.184L192.84 182.21Z" fill="#263238"/>
<path d="M188.55 325.692L203.029 339.423L199.125 341.869L185.88 329.968L188.55 325.692Z" fill="#407BFF"/>
<path opacity="0.3" d="M201.179 219.59C207.252 238.328 215.041 258.732 218.685 272.665C219.35 257.509 218.839 230.509 208.226 215.854C203.271 208.95 201.314 212.388 201.179 219.59Z" fill="black"/>
<path d="M186.236 182.441C178.707 203.153 184.568 249.912 184.973 283.421C182.717 308.678 185.735 346.973 185.735 346.973L199.327 347.531C199.327 347.531 203.424 302.333 206.22 274.129C208.591 250.384 217.055 183.616 217.055 183.616L186.236 182.441Z" fill="#407BFF"/>
<path d="M185.812 181.719C178.283 202.421 184.568 249.912 184.973 283.421C182.718 308.678 185.735 346.973 185.735 346.973L199.327 347.531C199.327 347.531 203.424 302.332 206.22 274.129C208.591 250.384 217.055 183.616 217.055 183.616L185.812 181.719Z" fill="#263238"/>
<path d="M183.759 343.642L201.381 344.133L200.291 349.024L184.713 349.467L183.759 343.642Z" fill="#407BFF"/>
<path d="M202.161 376.823C201.352 377.603 199.269 377.228 198.035 376.948C197.993 376.935 197.955 376.911 197.925 376.879C197.895 376.847 197.873 376.808 197.862 376.765C197.855 376.725 197.859 376.684 197.874 376.647C197.89 376.609 197.915 376.577 197.949 376.554C198.238 376.351 200.841 374.628 201.969 375.08C202.093 375.133 202.201 375.218 202.283 375.327C202.364 375.435 202.415 375.562 202.431 375.697C202.473 375.861 202.478 376.033 202.444 376.2C202.411 376.367 202.341 376.524 202.238 376.659C202.232 376.721 202.205 376.779 202.161 376.823ZM198.633 376.592C200.233 376.919 201.419 376.871 201.853 376.477C201.945 376.375 202.007 376.251 202.034 376.117C202.062 375.983 202.052 375.845 202.007 375.716C202.007 375.655 201.989 375.596 201.954 375.546C201.92 375.496 201.871 375.458 201.814 375.437C201.246 375.186 199.703 375.947 198.633 376.621V376.592Z" fill="#407BFF"/>
<path d="M198.19 376.871C198.156 376.886 198.12 376.893 198.084 376.893C198.047 376.893 198.011 376.886 197.978 376.871C197.946 376.851 197.918 376.824 197.896 376.793C197.875 376.761 197.86 376.726 197.853 376.688C197.853 376.573 197.698 373.963 198.614 373.097C198.73 372.982 198.872 372.897 199.028 372.848C199.184 372.799 199.35 372.789 199.511 372.817C199.686 372.824 199.854 372.886 199.991 372.995C200.129 373.105 200.227 373.255 200.272 373.424C200.274 373.878 200.186 374.329 200.012 374.748C199.838 375.168 199.583 375.549 199.26 375.87C198.959 376.259 198.598 376.597 198.19 376.871V376.871ZM198.267 376.274C199.096 375.591 200.022 374.127 199.858 373.501C199.839 373.418 199.79 373.346 199.721 373.298C199.651 373.25 199.566 373.229 199.482 373.241C199.381 373.222 199.276 373.228 199.179 373.26C199.081 373.292 198.993 373.349 198.923 373.424L198.836 373.52C198.394 374.368 198.197 375.321 198.267 376.274V376.274Z" fill="#407BFF"/>
<path d="M194.844 123.993H191.519V143.559H194.844V123.993Z" fill="#FAFAFA"/>
<path d="M187.055 123.993H183.729V143.559H187.055V123.993Z" fill="#FAFAFA"/>
<path d="M204.131 138.266C206.155 129.739 200.875 121.188 192.339 119.166C183.802 117.144 175.241 122.418 173.217 130.944C171.193 139.471 176.472 148.023 185.009 150.045C193.545 152.066 202.106 146.793 204.131 138.266Z" stroke="#FAFAFA" stroke-width="0.996895" stroke-miterlimit="10"/>
<path d="M325.264 58.0725V66.6039H99.6885V58.0725C99.6885 56.0159 100.506 54.0433 101.961 52.5881C103.416 51.1329 105.39 50.3141 107.449 50.3115H317.504C319.563 50.3141 321.537 51.1329 322.992 52.5881C324.447 54.0433 325.264 56.0159 325.264 58.0725V58.0725Z" fill="#407BFF"/>
<path d="M325.265 193.592V196.885C325.252 198.932 324.429 200.892 322.975 202.335C321.521 203.778 319.555 204.588 317.505 204.588H107.488C105.438 204.588 103.471 203.778 102.017 202.335C100.563 200.892 99.7403 198.932 99.7275 196.885V193.592H325.265Z" fill="#407BFF"/>
<path d="M144.263 62.6849H111.314C110.367 62.6849 109.459 62.3099 108.788 61.642C108.118 60.9741 107.74 60.068 107.737 59.1222C107.737 58.1747 108.114 57.2661 108.785 56.5961C109.456 55.9262 110.365 55.5498 111.314 55.5498H144.263C144.733 55.5498 145.198 55.6422 145.632 55.8217C146.066 56.0013 146.46 56.2644 146.792 56.5961C147.124 56.9279 147.388 57.3217 147.567 57.7551C147.747 58.1885 147.84 58.6531 147.84 59.1222C147.837 60.068 147.459 60.9741 146.789 61.642C146.118 62.3099 145.21 62.6849 144.263 62.6849Z" stroke="white" stroke-width="0.5" stroke-miterlimit="10"/>
<path d="M162.155 62.6849H157.335C156.389 62.6849 155.482 62.3096 154.813 61.6414C154.144 60.9733 153.769 60.0671 153.769 59.1222V59.1222C153.769 58.1764 154.144 57.2692 154.813 56.5995C155.481 55.9299 156.388 55.5524 157.335 55.5498H162.155C163.104 55.5498 164.014 55.9262 164.684 56.5961C165.355 57.2661 165.732 58.1747 165.732 59.1222V59.1222C165.729 60.068 165.351 60.9741 164.681 61.642C164.01 62.3099 163.102 62.6849 162.155 62.6849Z" stroke="white" stroke-width="0.5" stroke-miterlimit="10"/>
<path d="M255.731 70.9854H119.479C111.472 70.9854 104.98 77.4692 104.98 85.4674V175.441C104.98 183.44 111.472 189.923 119.479 189.923H255.731C263.738 189.923 270.229 183.44 270.229 175.441V85.4674C270.229 77.4692 263.738 70.9854 255.731 70.9854Z" stroke="white" stroke-width="0.5" stroke-miterlimit="10"/>
<path d="M155.745 81.249H97.5096C93.1173 81.249 89.5566 84.8057 89.5566 89.193V109.915C89.5566 114.302 93.1173 117.859 97.5096 117.859H155.745C160.137 117.859 163.698 114.302 163.698 109.915V89.193C163.698 84.8057 160.137 81.249 155.745 81.249Z" fill="#407BFF"/>
<path d="M166.532 87.499V111.572C166.539 112.393 166.382 113.208 166.073 113.97C165.763 114.731 165.305 115.424 164.727 116.008C164.148 116.592 163.459 117.057 162.701 117.374C161.942 117.692 161.128 117.857 160.305 117.859H137.969C131.221 120.19 135.443 129.52 135.588 129.857C134.303 129.418 133.101 128.767 132.031 127.931C127.211 124.08 127.886 117.869 127.886 117.869H98.6089C96.9496 117.869 95.3583 117.211 94.185 116.039C93.0117 114.867 92.3525 113.277 92.3525 111.62V87.5471C92.3525 85.8897 93.0117 84.3002 94.185 83.1282C95.3583 81.9563 96.9496 81.2979 98.6089 81.2979H160.305C161.952 81.3029 163.53 81.9572 164.696 83.1185C165.862 84.2798 166.522 85.8541 166.532 87.499V87.499Z" fill="#407BFF"/>
<path opacity="0.2" d="M163.688 87.4989V111.572C163.695 112.397 163.537 113.216 163.224 113.981C162.911 114.745 162.449 115.44 161.866 116.025C161.282 116.61 160.588 117.073 159.823 117.388C159.059 117.703 158.239 117.863 157.413 117.859H135.125C130.189 119.554 131.115 124.985 132.03 127.922C127.21 124.07 127.885 117.859 127.885 117.859H95.8034C94.9822 117.859 94.1691 117.698 93.4106 117.383C92.6521 117.069 91.963 116.609 91.3829 116.028C90.8027 115.448 90.3427 114.759 90.0294 114.001C89.716 113.243 89.5554 112.43 89.5566 111.61V87.5374C89.5554 86.7172 89.716 85.9048 90.0294 85.1467C90.3427 84.3885 90.8027 83.6995 91.3829 83.1191C91.963 82.5387 92.6521 82.0782 93.4106 81.764C94.1691 81.4499 94.9822 81.2882 95.8034 81.2882H157.413C158.233 81.2844 159.046 81.442 159.805 81.752C160.565 82.0621 161.255 82.5185 161.838 83.0952C162.421 83.672 162.884 84.3577 163.202 85.1133C163.519 85.8689 163.684 86.6795 163.688 87.4989V87.4989Z" fill="white"/>
<path d="M157.914 87.0654H94.9453V90.3971H157.914V87.0654Z" fill="#407BFF"/>
<path d="M157.914 93.1797H94.9453V96.5113H157.914V93.1797Z" fill="#407BFF"/>
<path d="M157.914 99.3037H94.9453V102.635H157.914V99.3037Z" fill="#407BFF"/>
<path opacity="0.1" d="M157.914 87.0654H94.9453V90.3971H157.914V87.0654Z" fill="black"/>
<path opacity="0.1" d="M157.914 93.1797H94.9453V96.5113H157.914V93.1797Z" fill="black"/>
<path opacity="0.1" d="M157.914 99.3037H94.9453V102.635H157.914V99.3037Z" fill="black"/>
</svg>
