<svg width="22" height="25" viewBox="0 0 22 25" fill="none" xmlns="http://www.w3.org/2000/svg">
<g clip-path="url(#clip0)">
<path d="M9.35491 3.26624L10.4451 2.18225C10.9067 1.72327 11.6531 1.72327 12.1098 2.18225L21.6562 11.6696C22.1179 12.1285 22.1179 12.8707 21.6562 13.3248L12.1098 22.817C11.6482 23.276 10.9018 23.276 10.4451 22.817L9.35491 21.733C8.88839 21.2692 8.89821 20.5123 9.37455 20.0582L15.292 14.4528H1.17857C0.525446 14.4528 0 13.9303 0 13.2809V11.7184C0 11.069 0.525446 10.5465 1.17857 10.5465H15.292L9.37455 4.94104C8.8933 4.48694 8.88348 3.7301 9.35491 3.26624Z" fill="#3B6DA8"/>
</g>
<defs>
<clipPath id="clip0">
<rect width="22" height="25" fill="white"/>
</clipPath>
</defs>
</svg>
