<svg width="22" height="25" viewBox="0 0 22 25" fill="none" xmlns="http://www.w3.org/2000/svg">
<g clip-path="url(#clip0)">
<path d="M12.6451 21.7338L11.5549 22.8177C11.0933 23.2767 10.3469 23.2767 9.89018 22.8177L0.34375 13.3304C-0.117857 12.8715 -0.117857 12.1293 0.34375 11.6752L9.89018 2.18298C10.3518 1.724 11.0982 1.724 11.5549 2.18298L12.6451 3.26697C13.1116 3.73083 13.1018 4.48767 12.6254 4.94177L6.70804 10.5472L20.8214 10.5472C21.4746 10.5472 22 11.0697 22 11.7191V13.2816C22 13.931 21.4746 14.4535 20.8214 14.4535L6.70804 14.4535L12.6254 20.059C13.1067 20.5131 13.1165 21.2699 12.6451 21.7338Z" fill="#9EB7D5"/>
</g>
<defs>
<clipPath id="clip0">
<rect width="22" height="25" fill="white" transform="translate(22 25) rotate(-180)"/>
</clipPath>
</defs>
</svg>
