<svg width="24" height="18" viewBox="0 0 24 18" fill="none" xmlns="http://www.w3.org/2000/svg">
<path d="M18.9487 8L23.4402 4.03809L18.9487 0V3.11197C16.3169 3.3397 14.4516 3.90621 13.0686 4.73188C12.0315 5.35106 11.316 6.08845 10.7687 6.83954C10.2873 6.10983 9.67123 5.38323 8.78438 4.77178C7.15028 3.64512 4.76048 3 0.982422 3V5C4.50314 5 6.32418 5.60488 7.40958 6.35322C8.39481 7.03251 8.90774 7.90538 9.49649 9.00393C9.41556 9.16356 9.34114 9.31592 9.26984 9.46188C8.86154 10.2977 8.55583 10.9236 7.71976 11.5C6.63436 12.2483 4.50314 13 0.982422 13V15C4.76048 15 7.15028 14.3549 8.78438 13.2282C9.67123 12.6168 10.2873 11.8902 10.7687 11.1605C11.316 11.9115 12.0315 12.6489 13.0686 13.2681C14.4516 14.0938 16.3169 14.6603 18.9487 14.888V18L23.4402 14.0381L18.9487 10V12.8776C16.6992 12.6614 15.2791 12.18 14.3191 11.6069C13.1766 10.9247 12.5661 10.0475 11.9846 9C12.5661 7.9525 13.1766 7.07526 14.3191 6.39312C15.2791 5.81999 16.6992 5.33863 18.9487 5.12239V8Z" fill="#00C65E"/>
</svg>
