<svg width="15" height="9" viewBox="0 0 15 9" fill="none" xmlns="http://www.w3.org/2000/svg">
<path d="M2.67958 7.80066C2.67958 8.33369 2.16106 8.76579 1.52143 8.76579C0.881803 8.76579 0.363281 8.33369 0.363281 7.80066C0.363281 7.26764 0.881803 6.83554 1.52143 6.83554C2.16106 6.83554 2.67958 7.26764 2.67958 7.80066Z" fill="#AAAEB5"/>
<path d="M2.67958 1.36649C2.67958 1.89952 2.16106 2.33162 1.52143 2.33162C0.881803 2.33162 0.363281 1.89952 0.363281 1.36649C0.363281 0.833468 0.881803 0.401367 1.52143 0.401367C2.16106 0.401367 2.67958 0.833468 2.67958 1.36649Z" fill="#AAAEB5"/>
<path fill-rule="evenodd" clip-rule="evenodd" d="M14.2611 8.44408H5.76798V7.15725H14.2611V8.44408Z" fill="#AAAEB5"/>
<path fill-rule="evenodd" clip-rule="evenodd" d="M14.2611 2.00991H5.76798V0.723076H14.2611V2.00991Z" fill="#AAAEB5"/>
</svg>
