<svg width="21" height="18" viewBox="0 0 21 18" fill="none" xmlns="http://www.w3.org/2000/svg">
<path d="M5.23158 4.05025C8.29857 1.31892 13.2695 1.31658 16.3397 4.04325L13.0354 7L20.8956 6.96667L20.8584 0L17.924 2.62568C13.9764 -0.878676 7.58633 -0.875225 3.64357 2.63604C1.67048 4.39319 0.683605 6.69822 0.683594 8.99996L2.92937 8.99997C2.92938 7.20697 3.69656 5.41728 5.23158 4.05025Z" fill="#AAAEB5"/>
<path d="M16.3476 13.9497C17.8826 12.5827 18.6498 10.793 18.6498 8.99997L20.8956 8.99996C20.8956 11.3017 19.9087 13.6068 17.9356 15.364C13.9929 18.8752 7.60279 18.8787 3.65522 15.3743L0.720837 18L0.683594 11.0333L8.54382 11L5.23945 13.9567C8.30969 16.6834 13.2806 16.6811 16.3476 13.9497Z" fill="#AAAEB5"/>
</svg>
