<svg width="28" height="35" viewBox="0 0 28 35" fill="none" xmlns="http://www.w3.org/2000/svg">
<path d="M14 35C6.412 35 0 31.4387 0 27.223V7.777C0 3.56125 6.412 0 14 0C21.588 0 28 3.56125 28 7.777V27.223C28 31.4387 21.5898 35 14 35ZM3.5 22.575V27.2283C3.6225 28.196 7.54075 31.1168 14 31.1168C20.4592 31.1168 24.3792 28.1873 24.5 27.2178V22.575C21.314 24.4219 17.6819 25.3584 14 25.2823C10.3181 25.3585 6.68601 24.422 3.5 22.575ZM3.5 12.8468V17.5C3.6225 18.4678 7.54075 21.3885 14 21.3885C20.4592 21.3885 24.3792 18.459 24.5 17.4895V12.8468C21.3142 14.6944 17.6821 15.6315 14 15.5557C10.3179 15.6315 6.6858 14.6944 3.5 12.8468ZM14 3.8885C7.539 3.8885 3.62075 6.818 3.5 7.78925C3.6225 8.75 7.54425 11.6655 14 11.6655C20.4557 11.6655 24.3792 8.736 24.5 7.7665C24.3775 6.80225 20.4557 3.8885 14 3.8885Z" fill="white"/>
</svg>
