<svg width="20" height="20" viewBox="0 0 20 20" fill="none" xmlns="http://www.w3.org/2000/svg">
<path d="M13.0469 2.26367C12.8312 2.26367 12.6562 2.43973 12.6562 2.65547C12.6562 2.87121 12.8312 3.04613 13.0469 3.04613C13.2626 3.04613 13.4375 2.87125 13.4375 2.65551V2.65312C13.4375 2.43738 13.2626 2.26367 13.0469 2.26367Z" fill="#1A94AF"/>
<path d="M11.5446 1.62391C10.5655 1.45832 9.28172 1.36719 7.92969 1.36719C7.71398 1.36719 7.53906 1.54207 7.53906 1.75781C7.53906 1.97355 7.71398 2.14844 7.92969 2.14844C9.23937 2.14844 10.4769 2.2357 11.4143 2.39418C11.4363 2.39793 11.4582 2.39972 11.4799 2.39972C11.667 2.39972 11.8323 2.2648 11.8646 2.07418C11.9005 1.86144 11.7573 1.65988 11.5446 1.62391Z" fill="#1A94AF"/>
<path d="M17.4219 15C17.2062 15 17.0312 15.1749 17.0312 15.3906C17.0312 15.8289 16.8606 16.2409 16.5507 16.5507C15.911 17.1904 14.8702 17.1904 14.2305 16.5507C13.9207 16.2409 13.75 15.8289 13.75 15.3906C13.75 14.9524 13.9206 14.5404 14.2305 14.2305C14.5643 13.8967 15.0263 13.7227 15.4978 13.7535C15.7121 13.7672 15.899 13.6043 15.9129 13.389C15.9269 13.1738 15.7638 12.9879 15.5485 12.9739C14.853 12.9285 14.1708 13.1853 13.6781 13.6781C13.2207 14.1355 12.9688 14.7437 12.9688 15.3906C12.9688 16.0376 13.2207 16.6457 13.6781 17.1032C14.1502 17.5753 14.7704 17.8114 15.3906 17.8114C16.0108 17.8114 16.631 17.5753 17.1032 17.1032C17.5606 16.6458 17.8125 16.0376 17.8125 15.3906C17.8125 15.1749 17.6376 15 17.4219 15Z" fill="#1A94AF"/>
<path d="M17.1044 13.6791L17.0981 13.6729L16.8201 13.9473L17.0963 13.671C16.9437 13.5185 16.6965 13.5185 16.5438 13.671C16.3913 13.8236 16.3913 14.0709 16.5438 14.2235C16.5441 14.2238 16.5493 14.2289 16.5496 14.2292C16.626 14.3062 16.7264 14.3448 16.827 14.3448C16.9264 14.3448 17.0259 14.307 17.102 14.2315C17.2552 14.0796 17.2562 13.8323 17.1044 13.6791Z" fill="#1A94AF"/>
<path d="M19.7037 14.3679L19.1367 14.2266L18.8624 13.5649L19.1633 13.0644C19.2557 12.9106 19.2316 12.7137 19.1047 12.5869L18.1943 11.6764C18.0674 11.5496 17.8705 11.5254 17.7168 11.6179L17.2163 11.9188L16.5545 11.6445L16.4132 11.0774C16.3699 10.9033 16.2136 10.7812 16.0342 10.7812H15.8593V2.65585C15.8593 1.85195 14.9996 1.16875 13.373 0.679999C11.9136 0.241484 9.98045 0 7.92967 0C5.87889 0 3.94581 0.241484 2.48636 0.679999C0.859764 1.16871 0 1.85195 0 2.65585V17.3441C0 18.148 0.859764 18.8312 2.48632 19.32C3.94581 19.7585 5.87889 20 7.92967 20C8.79611 20 9.6467 19.9568 10.4579 19.8716C10.6724 19.8491 10.8281 19.6569 10.8056 19.4424C10.7831 19.2278 10.5903 19.0721 10.3763 19.0947C9.59217 19.177 8.76893 19.2187 7.92967 19.2187C5.95296 19.2187 4.09964 18.9889 2.71117 18.5718C1.28672 18.1438 0.781248 17.6429 0.781248 17.3441V13.6639C1.19301 13.9513 1.76382 14.2068 2.48632 14.4239C3.94581 14.8624 5.87889 15.1039 7.92967 15.1039C8.52838 15.1039 9.12486 15.083 9.70248 15.0419C9.91768 15.0266 10.0797 14.8397 10.0644 14.6245C10.0491 14.4093 9.86115 14.2471 9.64701 14.2626C9.08779 14.3024 8.50998 14.3226 7.92967 14.3226C5.95296 14.3226 4.09964 14.0929 2.71117 13.6757C1.28672 13.2477 0.781248 12.7469 0.781248 12.448V8.76776C1.19304 9.05514 1.76386 9.31069 2.48636 9.52775C3.94573 9.96627 5.87889 10.2078 7.92967 10.2078C9.98045 10.2078 11.9136 9.96627 13.373 9.52775C14.0955 9.31065 14.6663 9.0551 15.0781 8.76776V10.7812H14.7469C14.5675 10.7812 14.4112 10.9033 14.3679 11.0774L14.2266 11.6445L13.5649 11.9188L13.0644 11.6179C12.9107 11.5254 12.7137 11.5496 12.5869 11.6764L11.6764 12.5869C11.5496 12.7137 11.5254 12.9106 11.6179 13.0644L11.9187 13.5649L11.6445 14.2266L11.0774 14.3679C10.9033 14.4112 10.7812 14.5676 10.7812 14.7469V16.0342C10.7812 16.2136 10.9033 16.3699 11.0774 16.4132L11.6445 16.5545L11.9187 17.2163L11.6178 17.7168C11.5254 17.8706 11.5496 18.0675 11.6764 18.1943L12.5869 19.1047C12.7138 19.2316 12.9107 19.2557 13.0644 19.1633L13.5649 18.8624L14.2266 19.1367L14.3679 19.7038C14.4112 19.8779 14.5675 20 14.7469 20H16.0342C16.2136 20 16.3699 19.8779 16.4132 19.7038L16.5545 19.1367L17.2163 18.8624L17.7168 19.1633C17.8705 19.2557 18.0674 19.2316 18.1943 19.1047L19.1047 18.1943C19.2315 18.0675 19.2557 17.8706 19.1633 17.7168L18.8624 17.2163L19.1367 16.5545L19.7038 16.4132C19.8778 16.3699 20 16.2136 20 16.0342V14.7469C20 14.5676 19.8778 14.4112 19.7037 14.3679ZM2.71117 1.4282C4.09964 1.01101 5.95296 0.781249 7.92967 0.781249C9.90639 0.781249 11.7597 1.01101 13.1482 1.4282C14.5727 1.85621 15.0781 2.35703 15.0781 2.65585C15.0781 2.95468 14.5727 3.4555 13.1482 3.88347C11.7597 4.30066 9.90643 4.53042 7.92967 4.53042C5.95292 4.53042 4.09964 4.30066 2.71117 3.88347C1.28672 3.45546 0.781248 2.95468 0.781248 2.65585C0.781248 2.35703 1.28672 1.85621 2.71117 1.4282ZM13.1482 8.77955C11.7597 9.19674 9.90643 9.42651 7.92967 9.42651C5.95292 9.42651 4.09964 9.19674 2.71117 8.77955C1.28672 8.35159 0.781248 7.85077 0.781248 7.55194V3.87167C1.19304 4.15905 1.76386 4.4146 2.48636 4.63167C3.94573 5.07019 5.87889 5.31167 7.92967 5.31167C9.98045 5.31167 11.9136 5.07019 13.373 4.63167C14.0955 4.41456 14.6663 4.15902 15.0781 3.87167V7.55194C15.0781 7.85077 14.5727 8.35159 13.1482 8.77955ZM19.2187 15.729L18.7568 15.8441C18.6366 15.874 18.5378 15.9591 18.4904 16.0736L18.0653 17.0991C18.0179 17.2136 18.0275 17.3438 18.0914 17.4499L18.3365 17.8577L17.8577 18.3364L17.45 18.0913C17.3439 18.0275 17.2136 18.0179 17.0992 18.0653L16.0736 18.4903C15.9592 18.5377 15.874 18.6366 15.8441 18.7567L15.729 19.2187H15.0522L14.9372 18.7567C14.9072 18.6366 14.8221 18.5377 14.7077 18.4903L13.682 18.0653C13.5675 18.0178 13.4374 18.0275 13.3313 18.0913L12.9235 18.3364L12.4448 17.8577L12.6899 17.4499C12.7537 17.3438 12.7634 17.2136 12.716 17.0991L12.2909 16.0736C12.2435 15.9591 12.1447 15.874 12.0245 15.8441L11.5625 15.729V15.0522L12.0244 14.9371C12.1445 14.9071 12.2434 14.822 12.2908 14.7076L12.7159 13.682C12.7633 13.5676 12.7536 13.4374 12.6898 13.3312L12.4447 12.9235L12.9235 12.4447L13.3312 12.6898C13.4373 12.7536 13.5675 12.7634 13.682 12.7159L14.7076 12.2909C14.822 12.2435 14.9072 12.1446 14.9371 12.0244L15.0522 11.5625H15.729L15.8441 12.0244C15.874 12.1446 15.9591 12.2435 16.0736 12.2909L17.0992 12.7159C17.2136 12.7633 17.3438 12.7536 17.45 12.6898L17.8577 12.4447L18.3364 12.9235L18.0914 13.3312C18.0275 13.4374 18.0179 13.5676 18.0653 13.682L18.4903 14.7076C18.5377 14.822 18.6366 14.9071 18.7568 14.9371L19.2187 15.0522V15.729Z" fill="#1A94AF"/>
</svg>
