<svg width="20" height="17" viewBox="0 0 20 17" fill="none" xmlns="http://www.w3.org/2000/svg">
<path d="M14.9439 7.74881C14.8427 7.55863 14.6202 7.4375 14.3752 7.4375H11.8752V0.53125C11.8752 0.238 11.5952 0 11.2502 0H8.7502C8.4052 0 8.1252 0.238 8.1252 0.53125V7.4375H5.6252C5.3802 7.4375 5.1577 7.55969 5.05645 7.74881C4.95395 7.939 4.99395 8.16106 5.1552 8.31831L9.5302 12.5683C9.64895 12.6841 9.8202 12.75 10.0002 12.75C10.1802 12.75 10.3514 12.6831 10.4702 12.5683L14.8452 8.31831C15.0077 8.16212 15.0452 7.939 14.9439 7.74881Z" fill="white"/>
<path d="M16.8749 11.6875V14.875H3.12494V11.6875H0.624939V15.9375C0.624939 16.5251 1.18494 17 1.87494 17H18.1249C18.8162 17 19.3749 16.5251 19.3749 15.9375V11.6875H16.8749Z" fill="white"/>
</svg>
