<svg width="18" height="12" viewBox="0 0 18 12" fill="none" xmlns="http://www.w3.org/2000/svg">
<path d="M17.7939 5.6338C17.6339 5.40371 13.8221 0 8.95377 0C4.08541 0 0.273443 5.40371 0.113637 5.63358C-0.0378791 5.85186 -0.0378791 6.14792 0.113637 6.3662C0.273443 6.59629 4.08541 12 8.95377 12C13.8221 12 17.6339 6.59625 17.7939 6.36638C17.9456 6.14814 17.9456 5.85186 17.7939 5.6338ZM8.95377 10.7586C5.36771 10.7586 2.2618 7.17207 1.34238 5.99958C2.26061 4.82605 5.36001 1.24137 8.95377 1.24137C12.5397 1.24137 15.6454 4.8273 16.5652 6.00042C15.6469 7.17391 12.5475 10.7586 8.95377 10.7586Z" fill="#5F5858"/>
<path d="M8.95358 2.27527C7.00044 2.27527 5.41138 3.94596 5.41138 5.99943C5.41138 8.05289 7.00044 9.72359 8.95358 9.72359C10.9067 9.72359 12.4958 8.05289 12.4958 5.99943C12.4958 3.94596 10.9067 2.27527 8.95358 2.27527ZM8.95358 8.48218C7.65142 8.48218 6.59213 7.36844 6.59213 5.99943C6.59213 4.63042 7.65145 3.51668 8.95358 3.51668C10.2557 3.51668 11.315 4.63042 11.315 5.99943C11.315 7.36844 10.2557 8.48218 8.95358 8.48218Z" fill="#5F5858"/>
</svg>
