<svg width="15" height="15" viewBox="0 0 15 15" fill="none" xmlns="http://www.w3.org/2000/svg">
<g clip-path="url(#clip0)">
<path d="M12.9305 0H4.45086C4.00364 0 3.63983 0.363809 3.63983 0.811025V1.18986H3.26012C2.8129 1.18986 2.44909 1.55367 2.44909 2.00089V2.3797H2.06961C1.62227 2.3797 1.25838 2.74345 1.25838 3.19055V14.1892C1.25838 14.6363 1.62227 15.0001 2.06961 15.0001H10.5488C10.9961 15.0001 11.3601 14.6363 11.3601 14.1892V13.8102H11.7398C12.187 13.8102 12.5508 13.4464 12.5508 12.9992V12.6204H12.9305C13.3777 12.6204 13.7415 12.2565 13.7415 11.8093V0.811025C13.7415 0.363809 13.3777 0 12.9305 0V0ZM10.5488 14.4141H2.06961C1.94539 14.4141 1.84431 14.3132 1.84431 14.1891V3.19049C1.84431 3.06647 1.94539 2.96558 2.06961 2.96558H8.62382V4.82127C8.62382 4.98305 8.75501 5.11424 8.91679 5.11424H10.7741V14.1891C10.7741 14.3132 10.673 14.4141 10.5488 14.4141ZM10.3594 4.5283H9.20975V3.37951L10.3594 4.5283ZM11.9648 12.9991C11.9648 13.1234 11.8641 13.2242 11.7397 13.2242H11.36V4.82273C11.36 4.82265 11.3599 4.81726 11.3598 4.80879C11.3585 4.73742 11.3292 4.66931 11.2788 4.61874C11.2787 4.61871 11.2787 4.61871 11.2787 4.61871C11.2772 4.61713 9.12386 2.46536 9.12386 2.46536C9.12356 2.46507 9.12034 2.46205 9.11527 2.45728C9.06154 2.407 8.99044 2.37914 8.91685 2.37964H8.91679H3.03503V2.00083C3.03503 1.87652 3.13581 1.77574 3.26012 1.77574H11.7397C11.8641 1.77574 11.9648 1.87652 11.9648 2.00083V12.9991ZM13.1555 11.8093C13.1555 11.9334 13.0546 12.0344 12.9305 12.0344H12.5507V2.00086C12.5507 1.55364 12.1869 1.18983 11.7397 1.18983H4.22577V0.811025C4.22577 0.686924 4.32676 0.585938 4.45086 0.585938H12.9305C13.0546 0.585938 13.1555 0.686895 13.1555 0.811025V11.8093Z" fill="#E28E19"/>
</g>
<defs>
<clipPath id="clip0">
<rect width="15" height="15" fill="white"/>
</clipPath>
</defs>
</svg>
