<svg width="23" height="23" viewBox="0 0 23 23" fill="none" xmlns="http://www.w3.org/2000/svg">
<path d="M18.7157 6.873H10.4176L8.76706 4.91124C8.71153 4.84449 8.62833 4.80706 8.54157 4.80977H1.84676C0.824618 4.81721 0 5.64792 0 6.67006V18.736C0.0012402 19.7617 0.832397 20.5928 1.85804 20.5941H18.7157C19.7413 20.5928 20.5725 19.7617 20.5737 18.736V8.73104C20.5725 7.7054 19.7413 6.87424 18.7157 6.873Z" fill="#1A94AF"/>
<path d="M21.1532 4.46926H12.8529L11.2023 2.50749C11.1468 2.44075 11.0636 2.40332 10.9768 2.40602H4.28428C3.35684 2.40754 2.57258 3.0927 2.44653 4.01151H8.55055C8.87063 4.01072 9.17454 4.15199 9.38035 4.3971L10.7897 6.07249H18.7156C20.1816 6.07497 21.3694 7.2628 21.3719 8.72877V18.1723C22.3014 18.0563 22.9992 17.2667 23 16.33V6.32504C22.9975 5.30464 22.1735 4.4767 21.1532 4.46926Z" fill="#1A94AF"/>
</svg>
