<svg width="22" height="19" viewBox="0 0 22 19" fill="none" xmlns="http://www.w3.org/2000/svg">
<path d="M2.30828 19C1.06797 19 0.0625 18.1046 0.0625 17C0.0625 15.8954 1.06797 15 2.30828 15C3.54859 15 4.55406 15.8954 4.55406 17C4.55406 18.1046 3.54859 19 2.30828 19Z" fill="#AAAEB5"/>
<path fill-rule="evenodd" clip-rule="evenodd" d="M11.2914 18C11.2914 13.0294 6.76678 9 1.18539 9V7C8.00709 7 13.5372 11.9249 13.5372 18H11.2914Z" fill="#AAAEB5"/>
<path fill-rule="evenodd" clip-rule="evenodd" d="M19.1516 18C19.1516 9.16344 11.1078 2 1.18536 2V0C12.3481 0 21.3974 8.05887 21.3974 18H19.1516Z" fill="#AAAEB5"/>
</svg>
