<svg width="20" height="16" viewBox="0 0 20 16" fill="none" xmlns="http://www.w3.org/2000/svg">
<path d="M13.8179 1.70718C17.7645 5.2219 17.7645 10.9204 13.8179 14.4351L15.4059 15.8493C20.2295 11.5536 20.2295 4.58874 15.4059 0.292969L13.8179 1.70718Z" fill="#AAAEB5"/>
<path d="M1.32992 12.0001C0.709766 12.0001 0.207031 11.5524 0.207031 11.0001V5.00012C0.207031 4.44784 0.709766 4.00012 1.32992 4.00012H2.2979C2.60752 4.00012 2.90339 3.88627 3.11559 3.68549L6.12668 0.836334C6.82361 0.176887 8.06726 0.616113 8.06726 1.5217V14.4785C8.06726 15.3841 6.82361 15.8234 6.12668 15.1639L3.11559 12.3148C2.90339 12.114 2.60752 12.0001 2.2979 12.0001H1.32992Z" fill="#AAAEB5"/>
<path d="M10.4492 11.7782C12.6418 9.82563 12.6418 6.6598 10.4492 4.70718L12.0372 3.29297C15.1068 6.02664 15.1068 10.4588 12.0372 13.1925L10.4492 11.7782Z" fill="#AAAEB5"/>
</svg>
