<svg width="78" height="78" viewBox="0 0 78 78" fill="none" xmlns="http://www.w3.org/2000/svg">
<path d="M38.5 15C23.3122 15 11 27.3122 11 42.5C11 57.6878 23.3122 70 38.5 70C53.6878 70 66 57.6878 66 42.5C65.9839 27.319 53.6811 15.0162 38.5 15ZM50.0813 43.3762C49.891 43.7581 49.5815 44.0677 49.1995 44.2581V44.2679L33.4852 52.1251C32.5147 52.6099 31.335 52.2164 30.85 51.246C30.7121 50.9701 30.6411 50.6655 30.6428 50.3572V34.6429C30.6423 33.558 31.5213 32.6783 32.6062 32.6777C32.9113 32.6776 33.2123 32.7485 33.4852 32.8848L49.1995 40.742C50.1704 41.2259 50.5653 42.4053 50.0813 43.3762Z" fill="#FC6F6F" fill-opacity="0.6"/>
</svg>
