<svg width="23" height="23" viewBox="0 0 23 23" fill="none" xmlns="http://www.w3.org/2000/svg">
<g opacity="0.8" clip-path="url(#clip0)">
<path d="M20.3899 5.30932L18.6692 3.58876V1.02233C18.6692 0.458607 18.2106 0 17.6469 0H3.52105C2.96438 0 2.51147 0.452902 2.51147 1.00957V17.9465C2.51147 18.5032 2.96438 18.9561 3.52105 18.9561H4.0921V19.5187C4.0921 20.0754 4.545 20.5283 5.10171 20.5283H7.29179C7.47786 20.5283 7.6287 20.3775 7.6287 20.1913C7.6287 20.0052 7.47786 19.8544 7.29179 19.8544H5.10171C4.91655 19.8544 4.76592 19.7038 4.76592 19.5187V5.97277C4.76592 5.78666 4.61508 5.63585 4.42901 5.63585C4.24294 5.63585 4.0921 5.78666 4.0921 5.97277V18.2823H3.52105C3.33593 18.2823 3.1853 18.1316 3.1853 17.9465V1.00957C3.1853 0.824451 3.33593 0.673828 3.52105 0.673828H17.6469C17.8391 0.673828 17.9955 0.830156 17.9955 1.02233V2.91498L16.7513 1.67087C16.6881 1.60771 16.6024 1.57222 16.513 1.57222H5.10171C4.545 1.57222 4.0921 2.02512 4.0921 2.58179V4.40441C4.0921 4.59052 4.24294 4.74132 4.42901 4.74132C4.61508 4.74132 4.76592 4.59052 4.76592 4.40441V2.58175C4.76592 2.39663 4.91655 2.246 5.10171 2.246H16.1761V5.54695C16.1761 5.73302 16.3269 5.88382 16.5129 5.88387L19.8147 5.88441V19.5186C19.8147 19.7038 19.6641 19.8544 19.479 19.8544H17.3151C17.1291 19.8544 16.9782 20.0052 16.9782 20.1913C16.9782 20.3774 17.1291 20.5282 17.3151 20.5282H19.479C20.0357 20.5282 20.4886 20.0753 20.4886 19.5186V5.54758C20.4886 5.45823 20.4531 5.37257 20.3899 5.30932ZM16.8499 5.21008V2.72245L19.3381 5.21053L16.8499 5.21008Z" fill="#657E84"/>
<path d="M16.3288 7.88086H8.2688C8.08273 7.88086 7.93188 8.03166 7.93188 8.21777C7.93188 8.40389 8.08273 8.55469 8.2688 8.55469H16.3288C16.5148 8.55469 16.6657 8.40389 16.6657 8.21777C16.6657 8.03166 16.5148 7.88086 16.3288 7.88086Z" fill="#657E84"/>
<path d="M16.3288 9.86914H8.2688C8.08273 9.86914 7.93188 10.0199 7.93188 10.2061C7.93188 10.3922 8.08273 10.543 8.2688 10.543H16.3288C16.5148 10.543 16.6657 10.3922 16.6657 10.2061C16.6657 10.0199 16.5148 9.86914 16.3288 9.86914Z" fill="#657E84"/>
<path d="M16.3287 11.8945H14.7363C14.5503 11.8945 14.3994 12.0453 14.3994 12.2314C14.3994 12.4176 14.5503 12.5684 14.7363 12.5684H16.3287C16.5147 12.5684 16.6656 12.4176 16.6656 12.2314C16.6656 12.0453 16.5147 11.8945 16.3287 11.8945Z" fill="#657E84"/>
<path d="M13.1508 12.5684C13.3369 12.5684 13.4877 12.4176 13.4877 12.2314C13.4877 12.0453 13.3369 11.8945 13.1508 11.8945H8.2688C8.08273 11.8945 7.93188 12.0453 7.93188 12.2314C7.93188 12.4176 8.08273 12.5684 8.2688 12.5684H13.1508Z" fill="#657E84"/>
<path d="M13.5338 18.4449L12.6356 17.5468V20.8039C12.6356 20.99 12.4848 21.1408 12.2987 21.1408C12.1127 21.1408 11.9618 20.99 11.9618 20.8039V17.5468L11.0636 18.4449C10.9321 18.5764 10.7187 18.5765 10.5872 18.4448C10.4556 18.3133 10.4556 18.0999 10.5872 17.9684L12.0605 16.4951C12.1263 16.4294 12.2125 16.3965 12.2987 16.3965C12.3849 16.3965 12.4712 16.4294 12.537 16.4951L14.0103 17.9684C14.1418 18.1 14.1418 18.3133 14.0103 18.4448C13.8787 18.5764 13.6654 18.5764 13.5338 18.4449Z" fill="#657E84"/>
<path d="M12.2987 14.5371C9.96545 14.5371 8.06714 16.4353 8.06714 18.7685C8.06714 21.1017 9.96545 22.9999 12.2987 22.9999C14.632 22.9999 16.5303 21.1017 16.5303 18.7685C16.5303 16.4353 14.632 14.5371 12.2987 14.5371ZM12.2987 22.3261C10.337 22.3261 8.74097 20.7302 8.74097 18.7686C8.74097 16.8069 10.337 15.211 12.2987 15.211C14.2605 15.211 15.8565 16.8069 15.8565 18.7686C15.8565 20.7302 14.2605 22.3261 12.2987 22.3261Z" fill="#657E84"/>
</g>
<defs>
<clipPath id="clip0">
<rect width="23" height="23" fill="white"/>
</clipPath>
</defs>
</svg>
