<svg width="18" height="19" viewBox="0 0 18 19" fill="none" xmlns="http://www.w3.org/2000/svg">
<g clip-path="url(#clip0_1774:1775)">
<path d="M17.8423 5.52517L12.9673 0.18148C12.8083 0.0073873 12.5646 -0.0472615 12.3524 0.0429017C12.1394 0.133935 11.9999 0.35166 11.9999 0.593883V3.16687H11.8124C7.78048 3.16687 4.5 6.6296 4.5 10.8855V12.073C4.5 12.3484 4.68374 12.578 4.93794 12.6407C4.97927 12.6517 5.02047 12.6565 5.06167 12.6565C5.27398 12.6565 5.47722 12.525 5.57541 12.3184C6.62995 10.0915 8.75015 8.70842 11.1089 8.70842H11.9999V11.2813C11.9999 11.5236 12.1394 11.7414 12.3524 11.8315C12.5632 11.9226 12.8083 11.8672 12.9673 11.6929L17.8423 6.34925C18.0523 6.11891 18.0523 5.75638 17.8423 5.52517Z" fill="black"/>
<path d="M15.7498 19.0001H2.24997C1.00949 19.0001 0 17.9346 0 16.6251V5.54197C0 4.23257 1.00949 3.16699 2.24997 3.16699H4.49995C4.91468 3.16699 5.24989 3.52083 5.24989 3.9586C5.24989 4.39637 4.91468 4.75021 4.49995 4.75021H2.24997C1.83593 4.75021 1.49989 5.10492 1.49989 5.54197V16.6251C1.49989 17.0621 1.83593 17.4168 2.24997 17.4168H15.7498C16.1637 17.4168 16.4998 17.0621 16.4998 16.6251V10.2919C16.4998 9.85414 16.835 9.50016 17.2497 9.50016C17.6646 9.50016 17.9998 9.85414 17.9998 10.2919V16.6251C17.9998 17.9346 16.9903 19.0001 15.7498 19.0001Z" fill="black"/>
</g>
<defs>
<clipPath id="clip0_1774:1775">
<rect width="18" height="19" fill="white"/>
</clipPath>
</defs>
</svg>
