<svg width="14" height="14" viewBox="0 0 14 14" fill="none" xmlns="http://www.w3.org/2000/svg">
<path d="M12.4929 0H7.17974C7.07101 0 6.96665 0.0432585 6.88975 0.120163L0.440596 6.5691C-0.146865 7.15678 -0.146865 8.11285 0.440596 8.70031L5.29954 13.5591C5.58324 13.8428 5.96167 13.9991 6.36499 13.9992H6.36509C6.76852 13.9992 7.14695 13.8428 7.43075 13.559L13.8797 7.10999C13.9566 7.03309 13.9999 6.92874 13.9999 6.82L14 1.50689C13.9999 0.676008 13.3237 0 12.4929 0ZM13.1795 6.65017L6.85066 12.9791C6.72184 13.108 6.54934 13.1789 6.36509 13.1789C6.18074 13.1789 6.00834 13.108 5.87953 12.9792L1.02058 8.12032C0.752912 7.85265 0.752912 7.41686 1.02058 7.14909L7.34957 0.82031H12.4929C12.8715 0.82031 13.1796 1.12835 13.1796 1.507L13.1795 6.65017Z" fill="#5F5858"/>
<path d="M10.3846 2.32642C10.0404 2.32642 9.71672 2.46057 9.4733 2.70399C9.22987 2.94731 9.09583 3.27095 9.09583 3.6152C9.09583 3.95946 9.22987 4.2831 9.4733 4.52652C9.71672 4.76994 10.0404 4.90399 10.3846 4.90399C10.7288 4.90399 11.0524 4.76994 11.2958 4.52652C11.5392 4.2831 11.6733 3.95946 11.6733 3.6152C11.6733 3.27095 11.5392 2.94731 11.2959 2.70399C11.0525 2.46057 10.7289 2.32642 10.3846 2.32642ZM10.7158 3.94643C10.6274 4.03497 10.5097 4.08368 10.3846 4.08368C10.2594 4.08368 10.1418 4.03497 10.0534 3.94643C9.96484 3.85799 9.91614 3.74028 9.91614 3.6152C9.91614 3.49013 9.96484 3.37242 10.0534 3.28398C10.1418 3.19543 10.2595 3.14673 10.3846 3.14673C10.5097 3.14673 10.6273 3.19543 10.7158 3.28398C10.8044 3.37242 10.8531 3.49013 10.8531 3.6152C10.8531 3.74028 10.8043 3.85799 10.7158 3.94643Z" fill="#5F5858"/>
</svg>
